<?xml version="1.0" encoding="UTF-8"?> <svg xmlns="http://www.w3.org/2000/svg" xmlns:xlink="http://www.w3.org/1999/xlink" width="474.054" height="125.573" viewBox="0 0 474.054 125.573"><defs><clipPath id="clip-path"><rect id="Rectangle_1" data-name="Rectangle 1" width="101.283" height="53.578" transform="translate(126.181 1880.381)" fill="none"></rect></clipPath><clipPath id="clip-path-2"><rect id="Rectangle_3" data-name="Rectangle 3" width="101.356" height="56.309" transform="translate(77.473 1914.585)" fill="none"></rect></clipPath><clipPath id="clip-path-3"><rect id="Rectangle_2" data-name="Rectangle 2" width="101.29" height="55.203" transform="translate(77.473 1914.862)" fill="none"></rect></clipPath><clipPath id="clip-path-4"><rect id="Rectangle_4" data-name="Rectangle 4" width="101.286" height="52.732" transform="translate(77.473 1880.848)" fill="none"></rect></clipPath></defs><g id="Side-by-Side" transform="translate(-77.473 -1862.851)"><g id="Group_21" data-name="Group 21"><g id="Group_6" data-name="Group 6"><g id="Group_4" data-name="Group 4"><g id="Group_3" data-name="Group 3"><g id="Group_2" data-name="Group 2"><g id="Group_1" data-name="Group 1"><path id="Path_1" data-name="Path 1" d="M548.124,1862.855a3.4,3.4,0,0,0-3.4,3.4v63.461a3.4,3.4,0,0,0,6.807,0v-63.461A3.4,3.4,0,0,0,548.124,1862.855Z" fill="#fff"></path><path id="Path_2" data-name="Path 2" d="M513.4,1881.584a3.409,3.409,0,0,0-4.558,1.552l-19.222,39.045-28.276-57.428a3.4,3.4,0,1,0-6.1,3.007l31.328,63.628c.007.012.015.023.022.036a3.272,3.272,0,0,0,.219.375l.014.021a3.344,3.344,0,0,0,.28.352c.016.017.032.033.048.051a3.618,3.618,0,0,0,.285.268l.044.038a3.433,3.433,0,0,0,.637.41c.035.017.072.029.107.045s.065.028.1.041c.1.043.21.081.316.113l.113.032a3.3,3.3,0,0,0,.333.07c.034.005.067.013.1.017a3.324,3.324,0,0,0,.434.03h.006a3.309,3.309,0,0,0,.433-.03c.034,0,.067-.012.1-.017a3.188,3.188,0,0,0,.333-.07l.113-.032c.107-.032.212-.07.317-.113.032-.013.065-.026.1-.041s.071-.027.106-.045c.091-.044.176-.094.261-.145l.011-.007a3.3,3.3,0,0,0,.359-.254l.062-.053a3.421,3.421,0,0,0,.262-.247c.022-.023.044-.045.066-.069a3.362,3.362,0,0,0,.27-.339c.009-.013.017-.028.027-.042a3.242,3.242,0,0,0,.2-.351c.008-.015.018-.029.026-.044l22.277-45.245A3.408,3.408,0,0,0,513.4,1881.584Z" fill="#fff"></path><path id="Path_3" data-name="Path 3" d="M354.917,1863.469a3.392,3.392,0,0,0-4.474,1.772L326.208,1921.3l-17.213-38.066a3.4,3.4,0,1,0-6.2,2.807l20.383,45.078a3.406,3.406,0,0,0,3.1,2h.027a3.408,3.408,0,0,0,3.1-2.054l27.29-63.128A3.4,3.4,0,0,0,354.917,1863.469Z" fill="#fff"></path><path id="Path_4" data-name="Path 4" d="M297.217,1907.52a3.409,3.409,0,0,0-4.578,1.489l-6.6,12.95-25.221-57.079a3.4,3.4,0,1,0-6.223,2.753l28.113,63.628a3.408,3.408,0,0,0,3.019,2.026h.094a3.4,3.4,0,0,0,3.031-1.857l9.85-19.333A3.4,3.4,0,0,0,297.217,1907.52Z" fill="#fff"></path><path id="Path_5" data-name="Path 5" d="M418.483,1903.422a20.893,20.893,0,0,0-8.386-40.03l-24.525-.009a3.4,3.4,0,0,0-3.4,3.4v63.1a3.4,3.4,0,0,0,6.807,0v-59.692l21.121.006a14.085,14.085,0,0,1,2.841,27.882,3.4,3.4,0,0,0-2.342,4.894l14.579,28.3a3.4,3.4,0,0,0,6.05-3.113Z" fill="#fff"></path></g></g></g></g><g id="Group_5" data-name="Group 5"><path id="Path_6" data-name="Path 6" d="M379.1,1965.641a5.173,5.173,0,0,0-.107-1.082A5.534,5.534,0,0,1,379.1,1965.641Z" fill="#fff"></path><path id="Path_7" data-name="Path 7" d="M331.465,1958.949c-.744-1.647-1.781-2.448-3.176-2.448-1.365,0-2.389.8-3.133,2.448l-11.329,25.194a3.915,3.915,0,0,0-.367,1.493,2.255,2.255,0,0,0,.684,1.733,2.423,2.423,0,0,0,1.748.655,2.544,2.544,0,0,0,2.458-1.9l2.363-5.7h14.931l2.358,5.649a2.632,2.632,0,0,0,2.506,1.948,2.543,2.543,0,0,0,1.8-.681,2.12,2.12,0,0,0,.537-.781,3.183,3.183,0,0,0,.188-1.059,3.58,3.58,0,0,0-.324-1.451Zm-9.06,17.412,5.84-13.939,5.745,13.939Z" fill="#fff"></path><path id="Path_8" data-name="Path 8" d="M373.245,1956.9h-6.931c-2.024,0-2.966.941-2.966,2.965v25.371a2.638,2.638,0,0,0,.746,2.176,2.609,2.609,0,0,0,3.374,0,2.1,2.1,0,0,0,.7-1.426,5.633,5.633,0,0,0,.051-.75v-10.629h4.676a15.572,15.572,0,0,0,8.641-2.161c2.13-1.4,3.211-3.692,3.211-6.806a11.653,11.653,0,0,0-.181-2.076C383.731,1959.086,380.008,1956.9,373.245,1956.9Zm-.755,13.728h-4.276v-9.752h4.454a11.468,11.468,0,0,1,5.12.972,3.876,3.876,0,0,1,2.046,3.792C379.834,1968.95,377.363,1970.629,372.49,1970.629Z" fill="#fff"></path><path id="Path_9" data-name="Path 9" d="M410.162,1957.115a2.625,2.625,0,0,0-3.372,0,2.636,2.636,0,0,0-.748,2.176v25.948a2.638,2.638,0,0,0,.746,2.176,2.609,2.609,0,0,0,3.374,0,2.1,2.1,0,0,0,.7-1.426,5.633,5.633,0,0,0,.051-.75v-25.948a5.615,5.615,0,0,0-.051-.749A2.1,2.1,0,0,0,410.162,1957.115Z" fill="#fff"></path><path id="Path_10" data-name="Path 10" d="M535.57,1983.382H524.142v-24.093a5.794,5.794,0,0,0-.051-.749,2.1,2.1,0,0,0-.7-1.425,2.624,2.624,0,0,0-3.371,0,2.633,2.633,0,0,0-.749,2.176v25.37c0,2.025.942,2.966,2.966,2.966H535.57a2.155,2.155,0,0,0,1.836-.646,2.386,2.386,0,0,0,0-2.949A2.149,2.149,0,0,0,535.57,1983.382Z" fill="#fff"></path><path id="Path_11" data-name="Path 11" d="M487.392,1958.949c-.744-1.647-1.781-2.448-3.176-2.448-1.365,0-2.389.8-3.133,2.448l-11.329,25.194a3.915,3.915,0,0,0-.367,1.493,2.255,2.255,0,0,0,.684,1.733,2.423,2.423,0,0,0,1.748.655,2.544,2.544,0,0,0,2.458-1.9l2.363-5.7h14.931l2.358,5.649a2.633,2.633,0,0,0,2.506,1.948,2.543,2.543,0,0,0,1.8-.681,2.135,2.135,0,0,0,.538-.781,3.209,3.209,0,0,0,.187-1.059,3.581,3.581,0,0,0-.324-1.451Zm-9.06,17.412,5.841-13.939,5.744,13.939Z" fill="#fff"></path><path id="Path_12" data-name="Path 12" d="M454.591,1957.319a2.6,2.6,0,0,0-1.56-.418H432.859a2.611,2.611,0,0,0-1.56.418,1.8,1.8,0,0,0-.689.792,2.812,2.812,0,0,0,0,1.734,1.792,1.792,0,0,0,.689.794,2.617,2.617,0,0,0,1.56.416h7.654v24.182a2.463,2.463,0,0,0,4.12,2.176,2.1,2.1,0,0,0,.7-1.426,5.807,5.807,0,0,0,.051-.75v-24.182h7.651a2.608,2.608,0,0,0,1.56-.416,1.789,1.789,0,0,0,.69-.794,2.773,2.773,0,0,0,0-1.734A1.8,1.8,0,0,0,454.591,1957.319Z" fill="#fff"></path><path id="Path_13" data-name="Path 13" d="M405.309,1985.237a5.582,5.582,0,0,0,.06.839A5.791,5.791,0,0,1,405.309,1985.237Z" fill="#fff"></path><path id="Path_14" data-name="Path 14" d="M267.917,1975.57c.006.033.008.07.014.1C267.925,1975.639,267.923,1975.6,267.917,1975.57Z" fill="#fff"></path><path id="Path_15" data-name="Path 15" d="M439.78,1985.237a5.6,5.6,0,0,0,.06.84A5.95,5.95,0,0,1,439.78,1985.237Z" fill="#fff"></path><path id="Path_16" data-name="Path 16" d="M295.032,1981.327a2.115,2.115,0,0,0-1.525-.566,3.021,3.021,0,0,0-1.853.846,9.963,9.963,0,0,1-6.812,2.53,10.328,10.328,0,0,1-8.025-3.341,11.6,11.6,0,0,1-2.819-6.15,15.931,15.931,0,0,1-.186-2.472,14.221,14.221,0,0,1,.194-2.375,11.569,11.569,0,0,1,2.948-6.095,10.6,10.6,0,0,1,8.11-3.4,8.8,8.8,0,0,1,5.927,2.044,3.555,3.555,0,0,0,1.894.8,2.235,2.235,0,0,0,2.091-1.358,2.54,2.54,0,0,0,.163-.852,2.822,2.822,0,0,0-1.122-2.04,11.039,11.039,0,0,0-3.888-2.033,18.155,18.155,0,0,0-17.056,3.65,15.3,15.3,0,0,0-4.7,11.663,15.787,15.787,0,0,0,4.6,11.713,16.2,16.2,0,0,0,11.828,4.537c4.146,0,7.437-1.161,9.784-3.45a3.058,3.058,0,0,0,1.046-2.137,2.648,2.648,0,0,0-.154-.862A1.8,1.8,0,0,0,295.032,1981.327Z" fill="#fff"></path><path id="Path_17" data-name="Path 17" d="M468.654,1985.636a3,3,0,0,0,.205,1.13A3.343,3.343,0,0,1,468.654,1985.636Z" fill="#fff"></path></g></g><g id="Group_20" data-name="Group 20"><g id="Group_10" data-name="Group 10"><g id="Group_9" data-name="Group 9"><g id="Group_8" data-name="Group 8"><g id="Group_7" data-name="Group 7" clip-path="url(#clip-path)"><path id="Path_18" data-name="Path 18" d="M173.094,1881.533l-44.6,31.249a5.428,5.428,0,0,0-2.311,4.454l.025,14.64a2.083,2.083,0,0,0,3.278,1.7l43.981-30.813a5.8,5.8,0,0,1,6.63-.013l43.945,30.54a2.179,2.179,0,0,0,3.422-1.791l-.032-17.29-47.046-32.691a6.371,6.371,0,0,0-7.292.013" fill="#dc5145"></path></g></g></g></g><path id="Path_19" data-name="Path 19" d="M173.772,1948.133l-44.848-31.167a1.745,1.745,0,0,0-2.741,1.435l.028,15.293a5.415,5.415,0,0,0,2.328,4.44l44.526,30.939a6.714,6.714,0,0,0,7.683-.01l44.3-31.038a5.676,5.676,0,0,0,2.417-4.658l-.035-18.5-47.47,33.257a5.417,5.417,0,0,1-6.19.013" fill="#f05a46"></path><g id="Group_15" data-name="Group 15"><g id="Group_14" data-name="Group 14"><g id="Group_13" data-name="Group 13" clip-path="url(#clip-path-2)"><g id="Group_12" data-name="Group 12"><g id="Group_11" data-name="Group 11" clip-path="url(#clip-path-3)"><path id="Path_20" data-name="Path 20" d="M125.111,1947.967l-47.637-33.106.035,18.16a6.333,6.333,0,0,0,2.719,5.192l44.093,30.639a6.781,6.781,0,0,0,7.767-.016l43.941-30.787a6.407,6.407,0,0,0,2.733-5.266l-.029-14.965a1.643,1.643,0,0,0-2.585-1.345l-44.93,31.481a5.34,5.34,0,0,1-6.107.013" fill="#f05a46"></path></g></g></g></g></g><g id="Group_19" data-name="Group 19"><g id="Group_18" data-name="Group 18"><g id="Group_17" data-name="Group 17"><g id="Group_16" data-name="Group 16" clip-path="url(#clip-path-4)"><path id="Path_21" data-name="Path 21" d="M123.419,1882.307l-45.254,31.709a1.624,1.624,0,0,0-.694,1.329l.032,15.01a2.927,2.927,0,0,0,4.6,2.392l41.367-28.983a8.042,8.042,0,0,1,9.211-.016l42.311,29.4a2.4,2.4,0,0,0,3.763-1.972l-.026-14.079a5.356,5.356,0,0,0-2.3-4.386l-43.781-30.421a8.072,8.072,0,0,0-9.234.016" fill="#dc5145"></path></g></g></g></g></g></g></g></svg> 