<?xml version="1.0" encoding="UTF-8" standalone="no"?>
<svg width="100%" height="100%" viewBox="0 0 750 750" version="1.1" xmlns="http://www.w3.org/2000/svg" xmlns:xlink="http://www.w3.org/1999/xlink" xmlns:sketch="http://www.bohemiancoding.com/sketch/ns">
    <g id="Close" sketch:type="MSLayerGroup" transform="translate(102.000000, 102.000000)" fill="#000000">
        <path class="close_layer" d="M-30.9843421,324.048048 L576.264879,324.048048 L576.264879,324.045028 C576.379742,324.047039 576.494752,324.048048 576.609907,324.048048 C593.950293,324.048048 608.007452,301.186481 608.007452,272.985309 C608.007452,244.784136 593.950293,221.922569 576.609907,221.922569 C576.494752,221.922569 576.379742,221.923578 576.264879,221.922569 L-30.9843421,221.922569 C-48.1657829,222.226446 -62.0368591,244.971417 -62.0368591,272.985309 C-62.0368591,300.9992 -48.1657829,323.744171 -30.9843421,324.045028 Z" id="Rectangle-1" sketch:type="MSShapeGroup" transform="translate(272.985297, 272.985309) rotate(-45.000000) translate(-272.985297, -272.985309) "></path>
        <path class="close_layer" d="M-30.9619558,324.05032 L576.247107,324.05032 L576.247107,324.0473 C576.361962,324.049312 576.476965,324.05032 576.592112,324.05032 C593.931351,324.05032 607.987581,301.188753 607.987581,272.987581 C607.987581,244.786409 593.931351,221.924842 576.592112,221.924842 C576.476965,221.924842 576.361962,221.92585 576.247107,221.924842 L-30.9619558,221.924842 C-48.1422603,222.228718 -62.0124192,244.973689 -62.0124192,272.987581 C-62.0124192,301.001473 -48.1422603,323.746443 -30.9619558,324.0473 Z" id="Rectangle-2" sketch:type="MSShapeGroup" transform="translate(272.987581, 272.987581) rotate(-315.000000) translate(-272.987581, -272.987581) "></path>
    </g>
</svg>