<?xml version="1.0" encoding="UTF-8" standalone="no"?>
<svg width="100%" height="100%" viewBox="0 0 750 750" version="1.1" xmlns="http://www.w3.org/2000/svg" xmlns:xlink="http://www.w3.org/1999/xlink" xmlns:sketch="http://www.bohemiancoding.com/sketch/ns">
    <g id="Hamburger" sketch:type="MSLayerGroup" transform="translate(76.000000, 130.000000)" fill="#000000">
        <path class="hamburger_layer" d="M27.7109738,291 L569.614461,291 L569.614461,290.997309 C569.716963,290.999102 569.819597,291 569.922361,291 C585.396757,291 597.941234,270.628956 597.941234,245.5 C597.941234,220.371044 585.396757,200 569.922361,200 C569.819597,200 569.716963,200.000898 569.614461,200 L27.7109738,200 C12.3784178,200.270773 0,220.537922 0,245.5 C0,270.462078 12.3784178,290.729227 27.7109738,290.997309 Z" id="Rectangle-1" sketch:type="MSShapeGroup"></path>
        <path class="hamburger_layer" d="M27.7109738,491 L569.614461,491 L569.614461,490.997309 C569.716963,490.999102 569.819597,491 569.922361,491 C585.396757,491 597.941234,470.628956 597.941234,445.5 C597.941234,420.371044 585.396757,400 569.922361,400 C569.819597,400 569.716963,400.000898 569.614461,400 L27.7109738,400 C12.3784178,400.270773 0,420.537922 0,445.5 C0,470.462078 12.3784178,490.729227 27.7109738,490.997309 Z" id="Rectangle-2" sketch:type="MSShapeGroup"></path>
        <path class="hamburger_layer" d="M27.7109738,91 L569.614461,91 L569.614461,90.9973094 C569.716963,90.9991016 569.819597,91 569.922361,91 C585.396757,91 597.941234,70.6289561 597.941234,45.5 C597.941234,20.3710439 585.396757,0 569.922361,0 C569.819597,0 569.716963,0.000898385358 569.614461,0 L27.7109738,0 C12.3784178,0.270772558 0,20.5379219 0,45.5 C0,70.4620781 12.3784178,90.7292274 27.7109738,90.9973094 Z" id="Rectangle-3" sketch:type="MSShapeGroup"></path>
    </g>
</svg>