<svg xmlns="http://www.w3.org/2000/svg" xmlns:xlink="http://www.w3.org/1999/xlink" width="1200" height="1200" viewBox="0 0 1200 1200"><g><g transform="translate(600 600) scale(0.69 0.69) rotate(0) translate(-600 -600)" style="fill:#FFFFFF"><svg fill="#FFFFFF" xmlns="http://www.w3.org/2000/svg" xmlns:xlink="http://www.w3.org/1999/xlink" version="1.1" x="0px" y="0px" viewBox="0 0 100 100" style="enable-background:new 0 0 100 100;" xml:space="preserve"><g><path d="M15.6,84.8h68.8c5.5,0,10-4.5,10-10v-39V25.2c0-5.5-4.5-10-10-10H15.6c-5.5,0-10,4.5-10,10v10.5v39   C5.6,80.3,10.1,84.8,15.6,84.8z M7.6,25.2c0-4.4,3.6-8,8-8h68.8c4.4,0,8,3.6,8,8v8.5H7.6V25.2z M7.6,35.7h84.8v39c0,4.4-3.6,8-8,8   H15.6c-4.4,0-8-3.6-8-8V35.7z"></path><path d="M15.7,19.6c-3.4,0-6.1,2.7-6.1,6.1s2.7,6.1,6.1,6.1s6.1-2.7,6.1-6.1S19,19.6,15.7,19.6z M15.7,29.7c-2.3,0-4.1-1.8-4.1-4.1   s1.8-4.1,4.1-4.1s4.1,1.8,4.1,4.1S17.9,29.7,15.7,29.7z"></path><path d="M29.6,19.6c-3.4,0-6.1,2.7-6.1,6.1s2.7,6.1,6.1,6.1s6.1-2.7,6.1-6.1S32.9,19.6,29.6,19.6z M29.6,29.7   c-2.3,0-4.1-1.8-4.1-4.1s1.8-4.1,4.1-4.1s4.1,1.8,4.1,4.1S31.8,29.7,29.6,29.7z"></path><path d="M43.5,19.6c-3.4,0-6.1,2.7-6.1,6.1s2.7,6.1,6.1,6.1s6.1-2.7,6.1-6.1S46.8,19.6,43.5,19.6z M43.5,29.7   c-2.3,0-4.1-1.8-4.1-4.1s1.8-4.1,4.1-4.1s4.1,1.8,4.1,4.1S45.7,29.7,43.5,29.7z"></path><path d="M17.4,60.1h9.3c0.5,6,5.5,10.7,11.7,10.7h4.4c0.6,0,1-0.4,1-1V48.4c0-0.6-0.4-1-1-1h-4.4c-6.1,0-11.1,4.7-11.7,10.7h-9.3   c-0.6,0-1,0.4-1,1S16.8,60.1,17.4,60.1z M38.4,49.4h3.4v19.4h-3.4c-5.3,0-9.7-4.4-9.7-9.7S33,49.4,38.4,49.4z"></path><path d="M50.6,63.6c-0.6,0-1,0.4-1,1s0.4,1,1,1h5.7v4.3c0,0.6,0.4,1,1,1h4.4c6.1,0,11.1-4.7,11.7-10.7h9.3c0.6,0,1-0.4,1-1   s-0.4-1-1-1h-9.3c-0.5-6-5.5-10.7-11.7-10.7h-4.4c-0.6,0-1,0.4-1,1v4.3h-5.7c-0.6,0-1,0.4-1,1s0.4,1,1,1h5.7v8.9H50.6z M58.2,49.4   h3.4c5.3,0,9.7,4.4,9.7,9.7s-4.4,9.7-9.7,9.7h-3.4V49.4z"></path></g></svg></g></g></svg>