<svg xmlns="http://www.w3.org/2000/svg" xmlns:xlink="http://www.w3.org/1999/xlink" width="1200" height="1200" viewBox="0 0 1200 1200"><g><g transform="translate(600 600) scale(0.69 0.69) rotate(0) translate(-600 -600)" style="fill:#FFFFFF"><svg fill="#FFFFFF" xmlns="http://www.w3.org/2000/svg" xmlns:xlink="http://www.w3.org/1999/xlink" version="1.1" x="0px" y="0px" viewBox="0 0 64 64" style="enable-background:new 0 0 64 64;" xml:space="preserve"><g><path d="M58,15h-1V2c0-0.553-0.448-1-1-1H8C7.448,1,7,1.447,7,2v13H6c-2.757,0-5,2.243-5,5v32c0,2.757,2.243,5,5,5h14v4h-3   c-0.552,0-1,0.447-1,1s0.448,1,1,1h30c0.552,0,1-0.447,1-1s-0.448-1-1-1h-3v-4h14c2.757,0,5-2.243,5-5V20   C63,17.243,60.757,15,58,15z M41.799,45c-0.172-0.848-0.452-1.668-0.839-2.445c-0.246-0.495-0.847-0.698-1.341-0.45   c-0.495,0.246-0.696,0.847-0.45,1.341c0.248,0.498,0.434,1.019,0.572,1.555H24.26c0.893-3.487,4.038-6,7.74-6   c1.853,0,3.591,0.614,5.028,1.777c0.43,0.347,1.059,0.281,1.406-0.148c0.348-0.429,0.281-1.059-0.148-1.406   C36.515,37.789,34.283,37,32,37c-4.802,0-8.865,3.381-9.798,8H17v-1.224l2.853-0.729c0.335-0.086,0.602-0.338,0.706-0.667   c0.2-0.632,0.467-1.271,0.795-1.903c0.16-0.307,0.149-0.674-0.027-0.971l-1.506-2.54l3.145-3.146l2.54,1.507   c0.297,0.175,0.664,0.187,0.971,0.027c0.632-0.329,1.273-0.597,1.904-0.797c0.329-0.104,0.581-0.371,0.667-0.705L29.776,31h4.447   l0.729,2.853c0.085,0.334,0.337,0.601,0.667,0.705c0.631,0.2,1.271,0.468,1.904,0.797c0.307,0.159,0.673,0.149,0.971-0.027   l2.54-1.507l3.145,3.146l-1.506,2.54c-0.176,0.297-0.187,0.664-0.027,0.971c0.328,0.632,0.596,1.271,0.795,1.903   c0.104,0.329,0.371,0.581,0.706,0.667L47,43.776V45H41.799z M48.248,42.031l-3.081-0.788c-0.145-0.396-0.311-0.792-0.497-1.185   l1.625-2.741c0.233-0.393,0.17-0.894-0.153-1.217l-4.243-4.243c-0.322-0.322-0.823-0.386-1.217-0.153l-2.741,1.625   c-0.394-0.186-0.79-0.352-1.185-0.496l-0.788-3.081C35.855,29.31,35.457,29,35,29h-6c-0.457,0-0.855,0.31-0.969,0.752l-0.788,3.081   c-0.395,0.145-0.791,0.311-1.185,0.496l-2.741-1.625c-0.393-0.232-0.894-0.169-1.217,0.153l-4.243,4.243   c-0.323,0.323-0.386,0.824-0.153,1.217l1.625,2.741c-0.186,0.393-0.352,0.789-0.497,1.185l-3.081,0.788   C15.31,42.145,15,42.543,15,43v2H9V11h46v34h-6v-2C49,42.543,48.69,42.145,48.248,42.031z M55,3v6H9V3H55z M6,17h1v29   c0,0.553,0.448,1,1,1h32.913c0.011,0,0.02,0.006,0.031,0.006c0.037,0,0.074-0.002,0.111-0.006H56c0.552,0,1-0.447,1-1V17h1   c1.654,0,3,1.346,3,3v29H3V20C3,18.346,4.346,17,6,17z M42,61H22v-4h20V61z M58,55H6c-1.654,0-3-1.346-3-3v-1h58v1   C61,53.654,59.654,55,58,55z"></path><circle cx="14" cy="6" r="1"></circle><circle cx="18" cy="6" r="1"></circle><circle cx="22" cy="6" r="1"></circle><path d="M43.555,19.168l-6-4c-0.46-0.307-1.081-0.183-1.387,0.277c-0.306,0.46-0.182,1.08,0.277,1.387L41.197,20l-4.752,3.168   c-0.459,0.307-0.583,0.927-0.277,1.387C36.361,24.844,36.678,25,37.001,25c0.19,0,0.383-0.055,0.554-0.168l6-4   C43.833,20.646,44,20.334,44,20S43.833,19.354,43.555,19.168z"></path><path d="M27.832,15.445c-0.307-0.46-0.928-0.584-1.387-0.277l-6,4C20.167,19.354,20,19.666,20,20s0.167,0.646,0.445,0.832l6,4   C26.616,24.945,26.809,25,26.999,25c0.323,0,0.64-0.156,0.833-0.445c0.306-0.46,0.182-1.08-0.277-1.387L22.803,20l4.752-3.168   C28.014,16.525,28.138,15.905,27.832,15.445z"></path><path d="M34.316,13.052c-0.525-0.176-1.09,0.108-1.265,0.632l-4,12c-0.175,0.524,0.108,1.091,0.632,1.265   C29.789,26.983,29.896,27,30,27c0.419,0,0.809-0.265,0.949-0.684l4-12C35.124,13.792,34.84,13.226,34.316,13.052z"></path></g></svg></g></g></svg>