<svg xmlns="http://www.w3.org/2000/svg" xmlns:xlink="http://www.w3.org/1999/xlink" width="1200" height="1200" viewBox="0 0 1200 1200"><g><g transform="translate(600 600) scale(0.69 0.69) rotate(0) translate(-600 -600)" style="fill:#FFFFFF"><svg fill="#FFFFFF" xmlns="http://www.w3.org/2000/svg" xmlns:xlink="http://www.w3.org/1999/xlink" version="1.1" x="0px" y="0px" viewBox="0 0 64 64" enable-background="new 0 0 64 64" xml:space="preserve"><g><path d="M61,3.998H3c-1.654,0-3,1.346-3,3v52.004c0,0.553,0.447,1,1,1h62c0.553,0,1-0.447,1-1V6.998   C64,5.344,62.654,3.998,61,3.998z M2,9.998h60v48.004H2V9.998z M3,5.998h1.02c-0.552,0-0.994,0.447-0.994,1s0.452,1,1.005,1   c0.552,0,1-0.447,1-1s-0.448-1-1-1h2.988c-0.552,0-0.994,0.447-0.994,1s0.452,1,1.005,1c0.552,0,1-0.447,1-1s-0.448-1-1-1h2.992   c-0.552,0-0.994,0.447-0.994,1s0.452,1,1.005,1c0.552,0,1-0.447,1-1s-0.448-1-1-1H61c0.552,0,1,0.448,1,1v1H10.032H7.029H4.03H2v-1   C2,6.446,2.448,5.998,3,5.998z"></path><path d="M8,37.008c-2.206,0-4,1.794-4,4s1.794,4,4,4s4-1.794,4-4S10.206,37.008,8,37.008z M8,43.008c-1.103,0-2-0.897-2-2   s0.897-2,2-2s2,0.897,2,2S9.103,43.008,8,43.008z"></path><path d="M59,28.009H5c-0.553,0-1,0.447-1,1v4.999c0,0.553,0.447,1,1,1h54c0.553,0,1-0.447,1-1v-4.999   C60,28.456,59.553,28.009,59,28.009z M55.293,30.299L55,30.592l-0.293-0.293c-0.191-0.191-0.441-0.286-0.691-0.29h1.969   C55.734,30.013,55.484,30.107,55.293,30.299z M58,33.008H6v-2.999h47.984c-0.25,0.004-0.5,0.099-0.691,0.29   c-0.391,0.391-0.391,1.023,0,1.414l1,1c0.195,0.195,0.451,0.293,0.707,0.293s0.512-0.098,0.707-0.293l1-1   c0.391-0.391,0.391-1.023,0-1.414c-0.191-0.191-0.441-0.286-0.691-0.29H58V33.008z"></path><path d="M8.03,40.007H8.02c-0.552,0-0.994,0.447-0.994,1s0.452,1,1.005,1c0.552,0,1-0.447,1-1S8.582,40.007,8.03,40.007z"></path><path d="M59,11.999H5c-0.553,0-1,0.447-1,1v4.999c0,0.553,0.447,1,1,1h54c0.553,0,1-0.447,1-1v-4.999   C60,12.446,59.553,11.999,59,11.999z M58,16.998H6v-2.999h52V16.998z"></path><path d="M59,20H5c-0.553,0-1,0.447-1,1v4.999c0,0.553,0.447,1,1,1h54c0.553,0,1-0.447,1-1V21C60,20.447,59.553,20,59,20z    M58,24.999H6V22h52V24.999z"></path><path d="M15,40.007h13.992c0.553,0,1-0.447,1-1s-0.447-1-1-1H15c-0.553,0-1,0.447-1,1S14.447,40.007,15,40.007z"></path><path d="M22.985,42.007c0-0.553-0.447-1-1-1H15c-0.553,0-1,0.447-1,1s0.447,1,1,1h6.985C22.538,43.007,22.985,42.56,22.985,42.007z   "></path><path d="M42.004,41.008c0-2.206-1.794-4-4-4s-4,1.794-4,4s1.794,4,4,4S42.004,43.214,42.004,41.008z M36.004,41.008   c0-1.103,0.897-2,2-2s2,0.897,2,2s-0.897,2-2,2S36.004,42.11,36.004,41.008z"></path><path d="M58.996,38.007H45.004c-0.553,0-1,0.447-1,1s0.447,1,1,1h13.992c0.553,0,1-0.447,1-1S59.549,38.007,58.996,38.007z"></path><path d="M51.989,41.007h-6.985c-0.553,0-1,0.447-1,1s0.447,1,1,1h6.985c0.553,0,1-0.447,1-1S52.542,41.007,51.989,41.007z"></path><path d="M43.002,48.001c-0.001,0-0.001,0-0.002,0H21c-0.001,0-0.002,0.001-0.003,0.001c-2.202,0.003-3.993,1.795-3.993,3.998   c0,2.204,1.791,3.996,3.993,3.999C20.998,55.999,20.999,56,21,56h22c0.001,0,0.001,0,0.002,0c2.203-0.003,3.995-1.795,3.995-3.999   C46.997,49.796,45.205,48.004,43.002,48.001z M42.998,54H21.003c-1.103,0-1.999-0.897-1.999-2s0.896-1.999,1.999-1.999h21.995   c1.103,0,1.999,0.897,1.999,2S44.101,54,42.998,54z"></path><path d="M39,51H25c-0.553,0-1,0.447-1,1s0.447,1,1,1h14c0.553,0,1-0.447,1-1S39.553,51,39,51z"></path></g></svg></g></g></svg>