<svg xmlns="http://www.w3.org/2000/svg" xmlns:xlink="http://www.w3.org/1999/xlink" width="1200" height="1200" viewBox="0 0 1200 1200"><g><g transform="translate(600 600) scale(0.69 0.69) rotate(0) translate(-600 -600)" style="fill:#FFFFFF"><svg fill="#FFFFFF" xmlns="http://www.w3.org/2000/svg" viewBox="0 0 64 64" x="0px" y="0px"><g><path d="M61,46H59V13a5.006,5.006,0,0,0-5-5H10a5.006,5.006,0,0,0-5,5V46H3a1,1,0,0,0-1,1v3a4,4,0,0,0,4,4H58a4,4,0,0,0,4-4V47A1,1,0,0,0,61,46ZM7,13a3,3,0,0,1,3-3H54a3,3,0,0,1,3,3V46H55V15a3,3,0,0,0-3-3H12a3,3,0,0,0-3,3V46H7Zm46,2V46H38.118A2.794,2.794,0,0,0,35.6,47.553a.8.8,0,0,1-.723.447H29.118a.8.8,0,0,1-.723-.447A2.794,2.794,0,0,0,25.882,46H11V15a1,1,0,0,1,1-1H52A1,1,0,0,1,53,15Zm7,35a2,2,0,0,1-2,2H6a2,2,0,0,1-2-2V48H25.882a.8.8,0,0,1,.723.447A2.794,2.794,0,0,0,29.118,50h5.764A2.794,2.794,0,0,0,37.4,48.447.8.8,0,0,1,38.118,48H60Z"></path><path d="M28.549,31.206c.008,0,.014.011.022.015l.054.022c.228.106.46.2.7.287.039.014.078.029.117.042.225.077.455.142.689.2.053.013.105.029.158.041.221.048.445.084.673.113.061.008.121.022.182.028a7.692,7.692,0,0,0,1.716,0c.061-.006.121-.02.182-.028.228-.029.452-.065.673-.113.053-.012.1-.028.158-.041.234-.056.464-.121.689-.2.039-.013.078-.028.117-.042.238-.085.47-.181.7-.287l.054-.022c.008,0,.014-.011.022-.015a8,8,0,1,0-6.9,0ZM34,29.65l-.013.005a5.969,5.969,0,0,1-.94.247c-.031.006-.062.01-.093.015a5.929,5.929,0,0,1-1.908,0c-.031-.005-.062-.009-.093-.015a5.969,5.969,0,0,1-.94-.247L30,29.65V28a2,2,0,0,1,4,0ZM31,23a1,1,0,1,1,1,1A1,1,0,0,1,31,23Zm1-5a5.992,5.992,0,0,1,4,10.46V28a3.982,3.982,0,0,0-1.619-3.195A2.972,2.972,0,0,0,35,23a3,3,0,0,0-6,0,2.972,2.972,0,0,0,.619,1.8A3.982,3.982,0,0,0,28,28v.46A5.992,5.992,0,0,1,32,18Z"></path><path d="M48,34H16a1,1,0,0,0-1,1v8a1,1,0,0,0,1,1H48a1,1,0,0,0,1-1V35A1,1,0,0,0,48,34Zm-1,8H17V36H47Z"></path><rect x="19" y="38" width="2" height="2"></rect><rect x="23" y="38" width="2" height="2"></rect><rect x="27" y="38" width="2" height="2"></rect><rect x="31" y="38" width="2" height="2"></rect><rect x="13" y="16" width="6" height="2"></rect><rect x="21" y="16" width="2" height="2"></rect></g></svg></g></g></svg>