<svg height='300px' width='300px'  fill="#ffffff" xmlns="http://www.w3.org/2000/svg" xmlns:xlink="http://www.w3.org/1999/xlink" version="1.1" x="0px" y="0px" viewBox="0 0 48 48" style="enable-background:new 0 0 48 48;" xml:space="preserve"><path d="M38,13c-5.5,0-10,4.5-10,10c0,3.1,1,5.4,3.3,7.7c1.2,1.2,1.7,2.2,1.7,3.3v2h-1v2h1v2c0,0.5,0.2,1,0.6,1.4S34.5,42,35,42h2v2  h2v-2h2c0.5,0,1-0.2,1.4-0.6S43,40.5,43,40v-2h1v-2h-1v-2c0-1.1,0.5-2.1,1.7-3.3C47,28.4,48,26.1,48,23C48,17.5,43.5,13,38,13z   M41,40h-6v-2h6V40z M43.3,29.3c-1,1-2.3,2.5-2.3,4.7v2h-6v-2c0-2.2-1.3-3.7-2.3-4.7C30.8,27.3,30,25.6,30,23c0-4.4,3.6-8,8-8  s8,3.6,8,8C46,25.6,45.2,27.3,43.3,29.3z M37,17h2v8h-2V17z M37,27h2v2h-2V27z M47,6h-3V5c0-0.6-0.4-1-1-1H28  c-0.3,0-0.5,0.1-0.7,0.3L24,7.6l-3.3-3.3C20.5,4.1,20.3,4,20,4H5C4.4,4,4,4.4,4,5v1H1C0.4,6,0,6.4,0,7v34c0,0.6,0.4,1,1,1h29v-2  h-3.6l2-2H30v-2h-2c-0.3,0-0.5,0.1-0.7,0.3L24,39.6l-3.3-3.3C20.5,36.1,20.3,36,20,36h-2H6V6h13.6L23,9.4V36h2V9.4L28.4,6H42v6h2V8  h2v7h2V7C48,6.4,47.6,6,47,6z M18,38h1.6l2,2H2V8h2v29c0,0.6,0.4,1,1,1H18z M17,10H8V8h9V10z M21,26H8v-2h13V26z M21,30H8v-2h13V30z   M8,32h13v2H8V32z M21,13c0-0.6-0.4-1-1-1H9c-0.6,0-1,0.4-1,1v8c0,0.6,0.4,1,1,1h11c0.6,0,1-0.4,1-1V13z M19,20h-9v-6h9V20z"></path></svg>