<?xml version="1.0" encoding="UTF-8"?> <svg xmlns="http://www.w3.org/2000/svg" xmlns:xlink="http://www.w3.org/1999/xlink" width="29px" height="30px" viewBox="0 0 29 30" version="1.1"><!-- Generator: Sketch 63.1 (92452) - https://sketch.com --><title>Combined Shape</title><desc>Created with Sketch.</desc><g id="Developers" stroke="none" stroke-width="1" fill="none" fill-rule="evenodd"><g transform="translate(-1035.000000, -6095.000000)" fill="#3EC4FF" id="TECHNOLOGY"><g transform="translate(58.000000, 5439.000000)"><path d="M990.315326,663.499991 C990.876195,663.499991 991.376038,663.908723 991.480339,664.448731 L991.837722,666.9425 C992.308302,667.159991 992.749619,667.412481 993.173134,667.709988 L995.529827,666.778745 C996.081825,666.576241 996.682116,666.783739 996.977183,667.264982 L999.144413,670.946234 C999.436915,671.424998 999.328794,672.047502 998.881133,672.419996 L996.857632,673.979976 C996.883081,674.237495 996.898321,674.493734 996.898321,674.751253 C996.898321,675.004978 996.883081,675.258742 996.858895,675.507477 L998.863332,677.051231 C999.328794,677.437472 999.436915,678.061251 999.139291,678.547484 L996.982261,682.21248 C996.683414,682.703747 996.080563,682.909973 995.545107,682.712496 L993.174392,681.774985 C992.761045,682.06247 992.314646,682.318747 991.840242,682.539991 L991.487946,685.00748 C991.382382,685.582483 990.881276,685.999991 990.316589,685.999991 L985.992365,685.999991 C985.431466,685.999991 984.931658,685.591233 984.827356,685.051226 L984.469974,682.55749 C983.999394,682.340001 983.558077,682.087477 983.134562,681.78997 L980.777833,682.721244 C980.225871,682.923718 979.625579,682.71749 979.330515,682.234973 L977.163286,678.553722 C976.87078,678.074993 976.978866,677.45249 977.426562,677.079992 L979.451323,675.521255 C979.425879,675.263736 979.410633,675.007497 979.410633,674.749978 C979.410633,674.496249 979.425879,674.242489 979.450061,673.993723 L977.445628,672.45 C976.980163,672.063724 976.872042,671.43998 977.169665,670.953743 L979.325398,667.287474 C979.625579,666.796246 980.228395,666.591223 980.762588,666.787493 L983.133268,667.725005 C983.546616,667.437487 983.99305,667.181243 984.467418,666.959997 L984.819714,664.492478 C984.925278,663.917507 985.426384,663.499991 985.991107,663.499991 L990.315326,663.499991 Z M990.241555,664.749993 L985.991107,664.749993 L985.6795,667.47624 C985.647712,667.692491 985.503979,667.876258 985.300497,667.962473 C984.682366,668.222506 984.116416,668.547503 983.619129,668.928745 C983.439793,669.06498 983.198139,669.098739 982.990834,669.014999 L980.384847,667.985004 L978.302853,671.521241 L980.515854,673.226236 C980.693895,673.362502 980.782916,673.582472 980.753686,673.801238 C980.711699,674.108738 980.68247,674.428736 980.68247,674.749978 C980.68247,675.072495 980.711699,675.394977 980.754948,675.71749 C980.782916,675.936221 980.692633,676.153747 980.515854,676.289978 L978.302853,677.994977 L980.384847,681.531245 L982.990834,680.499974 C983.2007,680.416239 983.441056,680.449993 983.619129,680.586229 C984.139303,680.983733 984.687447,681.299976 985.296674,681.549986 C985.503979,681.634998 985.64897,681.821245 985.680758,682.038737 L986.067404,684.749993 L990.316589,684.749993 L990.629458,682.023719 C990.659984,681.807502 990.804975,681.622494 991.008461,681.536244 C991.626593,681.276245 992.192538,680.951249 992.68983,680.569971 C992.869165,680.433736 993.108259,680.398738 993.318125,680.483752 L995.92411,681.513748 L998.006102,677.977476 L995.793106,676.272481 C995.615064,676.136246 995.526043,675.916244 995.555271,675.697478 C995.597258,675.389979 995.62649,675.069981 995.62649,674.748738 C995.62649,674.426221 995.597258,674.103739 995.554008,673.781226 C995.526043,673.562496 995.616322,673.345005 995.793106,673.208739 L998.006102,671.503739 L995.92411,667.967502 L993.318125,668.999982 C993.110815,669.084992 992.870428,669.051238 992.68983,668.913728 C992.169655,668.516224 991.621511,668.19998 991.01228,667.950005 C990.804975,667.864995 990.659984,667.678744 990.628196,667.461253 L990.241555,664.749993 Z M988.154477,671.000005 C990.258094,671.000005 991.969988,672.682473 991.969988,674.749978 C991.969988,676.817483 990.258094,678.499987 988.154477,678.499987 C986.05086,678.499987 984.33897,676.817483 984.33897,674.749978 C984.33897,672.682473 986.05086,671.000005 988.154477,671.000005 Z M988.154477,672.249975 C986.751633,672.249975 985.610806,673.37125 985.610806,674.749975 C985.610806,676.128737 986.751633,677.249975 988.154477,677.249975 C989.557321,677.249975 990.698153,676.128737 990.698153,674.749975 C990.698153,673.37125 989.557321,672.249975 988.154477,672.249975 Z M1000.9063,656 C1001.38055,656 1001.78194,656.352045 1001.819,656.800461 L1001.98263,657.892482 C1002.14498,657.970301 1002.30477,658.060473 1002.46455,658.163002 L1003.56645,657.734364 C1004.03816,657.581183 1004.50987,657.754107 1004.72334,658.133355 L1005.86613,660.043126 C1006.08344,660.427276 1005.99908,660.884338 1005.66929,661.168473 L1004.7016,661.902215 C1004.70671,661.993649 1004.70928,662.083821 1004.70928,662.176481 C1004.70928,662.267879 1004.70544,662.356829 1004.69776,662.444517 L1005.64756,663.156064 L1005.67951,663.182005 L1005.67951,663.182005 C1006.01059,663.464878 1006.09496,663.923167 1005.8866,664.29499 L1004.72844,666.233156 C1004.47278,666.61982 1004.01259,666.770521 1003.5984,666.625983 L1002.46839,666.188698 C1002.32266,666.281359 1002.16545,666.369047 1001.99668,666.450572 L1001.82795,667.589534 C1001.74999,668.030529 1001.35497,668.352927 1000.9063,668.352927 L998.605344,668.352927 C998.148991,668.352927 997.762953,668.037949 997.687535,667.604344 L997.517497,666.46048 C997.355142,666.382626 997.195357,666.292454 997.035576,666.189925 L995.933676,666.618598 C995.464537,666.773005 994.991556,666.59882 994.776823,666.219576 L993.633988,664.309831 C993.41668,663.924394 993.501048,663.466105 993.832133,663.182005 L994.808772,662.442065 C994.80493,662.354341 994.802361,662.266653 994.802361,662.176481 C994.802361,662.086309 994.80493,661.998586 994.808772,661.912124 L993.861548,661.195637 C993.498509,660.913985 993.405196,660.448276 993.626345,660.057936 L994.783198,658.12222 C995.038866,657.734364 995.495219,657.583632 995.911939,657.729392 L997.036843,658.166712 C997.186411,658.07283 997.346197,657.985107 997.514963,657.902355 L997.683694,656.764651 C997.76165,656.322398 998.155371,656 998.605344,656 L1000.9063,656 Z M1000.5931,657.235297 L998.905752,657.235297 L998.731913,658.406359 C998.699924,658.618838 998.556767,658.799186 998.353517,658.884422 C998.028838,659.020277 997.745058,659.178395 997.509819,659.35258 C997.329604,659.484761 997.09056,659.518122 996.880899,659.435336 L995.7381,658.99063 L994.891868,660.406307 L995.86847,661.144985 C996.046187,661.278423 996.136925,661.492129 996.108818,661.708287 C996.08962,661.861468 996.08067,662.014653 996.08067,662.176481 C996.08067,662.338273 996.08962,662.491459 996.110085,662.644639 C996.138197,662.859571 996.047454,663.073277 995.869773,663.207942 L994.893139,663.946655 L995.74067,665.362296 L996.882202,664.916334 C997.093098,664.834804 997.330871,664.865713 997.511122,664.99912 C997.788491,665.205405 998.05695,665.356102 998.330513,665.457405 C998.545251,665.537708 998.699924,665.724215 998.73318,665.945346 L998.905752,667.11763 L1000.60462,667.11763 L1000.77846,665.946568 C1000.81041,665.734124 1000.95361,665.553776 1001.15686,665.46854 C1001.48411,665.331388 1001.76021,665.17698 1001.97878,665.007767 C1002.16031,664.868166 1002.40192,664.834804 1002.61539,664.916334 L1003.77097,665.362296 L1004.61597,663.946655 L1003.63039,663.207942 C1003.4527,663.074539 1003.36066,662.859571 1003.38877,662.643413 C1003.40924,662.491459 1003.43097,662.338273 1003.43097,662.176481 C1003.43097,662.027011 1003.42329,661.886183 1003.39518,661.745355 C1003.35171,661.51807 1003.44246,661.28707 1003.63039,661.146243 L1004.60699,660.407533 L1003.75949,658.991888 L1002.61796,659.43782 C1002.40576,659.520571 1002.16798,659.488471 1001.98904,659.355068 C1001.71163,659.148748 1001.44318,658.998051 1001.16964,658.896779 C1000.95488,658.816476 1000.8002,658.629934 1000.76825,658.408807 L1000.5931,657.235297 Z M999.755821,659.705887 C1001.16581,659.705887 1002.31244,660.81394 1002.31244,662.176481 C1002.31244,663.538987 1001.16581,664.64704 999.755821,664.64704 C998.345834,664.64704 997.199198,663.538987 997.199198,662.176481 C997.199198,660.81394 998.345834,659.705887 999.755821,659.705887 Z M999.755821,660.941184 C999.051479,660.941184 998.477512,661.495808 998.477512,662.176481 C998.477512,662.857123 999.051479,663.411778 999.755821,663.411778 C1000.46016,663.411778 1001.03413,662.857123 1001.03413,662.176481 C1001.03413,661.495808 1000.46016,660.941184 999.755821,660.941184 Z" id="Combined-Shape"></path></g></g></g></svg> 