<?xml version="1.0" encoding="UTF-8"?> <svg xmlns="http://www.w3.org/2000/svg" xmlns:xlink="http://www.w3.org/1999/xlink" width="30px" height="48px" viewBox="0 0 30 48" version="1.1"><!-- Generator: Sketch 63.1 (92452) - https://sketch.com --><title>Shape</title><desc>Created with Sketch.</desc><g id="Developers" stroke="none" stroke-width="1" fill="none" fill-rule="evenodd"><g transform="translate(-1014.000000, -4559.000000)" fill="#3EC4FF" fill-rule="nonzero" id="SERVICES"><g transform="translate(120.000000, 4558.000000)"><g id="Card-/-Benefit-Copy-2" transform="translate(818.000000, 0.380503)"><g id="ADAP-Website-Icons-03" transform="translate(75.283019, 0.619497)"><path d="M30.058413,15.4777852 C31.2142984,13.6239464 30.8153479,11.2103803 29.1228989,9.81812325 L27.6447865,8.58615101 C27.4356266,8.41122445 27.2963131,8.16818624 27.2518706,7.90069276 L26.9805715,6.1777842 C26.6532757,4.05244577 24.8110741,2.47999129 22.6397858,2.47260451 L20.7219818,2.47260451 C20.4585714,2.47250572 20.2035839,2.38069675 20.0016359,2.21324193 L18.5328787,1.02758443 C16.8893805,-0.342528143 14.4884509,-0.342528143 12.8449527,1.02758443 L11.4603918,2.22250488 C11.2543974,2.38926192 10.9967674,2.4808331 10.7306907,2.48186746 L8.79417643,2.48186746 C6.62288817,2.48925424 4.78068661,4.06170872 4.45339077,6.18704715 L4.18209167,7.90995571 C4.13764912,8.17744919 3.99833562,8.4204874 3.78917572,8.59541395 L2.31106337,9.81812325 C0.618614382,11.2103803 0.219663842,13.6239464 1.37554922,15.4777852 L2.26428766,16.8857535 C2.41572414,17.1292406 2.46915399,17.4202088 2.41396992,17.7008931 L2.06782969,19.5534829 C1.63569122,21.7348319 2.92903469,23.8891088 5.07083011,24.5554755 L6.55829761,25.00936 L1.98363342,45.26743 L9.46774661,40.8490032 L14.2856445,48 L15.6514951,41.979083 L17.0079907,48 L21.8352437,40.8397402 L29.3193569,45.26743 L24.6698515,25.0556747 L24.7914684,24.9908341 L26.3631322,24.5091607 C28.5049276,23.8427941 29.798271,21.6885172 29.3661326,19.5071682 L29.0199923,17.6545783 C28.9648083,17.3738941 29.0182381,17.0829259 29.1696746,16.8394388 L30.058413,15.4777852 Z M10.4126159,36.4676282 L6.83895185,38.5981065 L9.17773723,28.3440217 C10.4394538,29.419483 12.2056242,29.6989988 13.7430463,29.0665318 L15.2866446,28.4273883 L15.2866446,28.4273883 L12.732691,39.9041824 L10.4126159,36.4676282 Z M20.8061781,36.4676282 L18.5328787,39.9041824 L17.3260655,34.5779866 L18.5328787,29.2703166 C18.8400167,29.338044 19.1537304,29.3722125 19.4683929,29.3722091 C20.4391876,29.3650377 21.3801669,29.0392663 22.1439633,28.4459142 L24.435973,38.5610547 L20.8061781,36.4676282 Z M27.2705809,13.7548767 L26.3350667,15.162845 C25.7430423,16.0974873 25.5323305,17.2201438 25.7456928,18.3029848 L26.1011882,20.1555746 C26.2043137,20.7166932 25.8725241,21.2668652 25.3247114,21.4431245 L23.8091785,21.8599573 C22.703333,22.199443 21.7783143,22.9588098 21.2365146,23.9719097 L20.403907,25.565137 C20.1365906,26.0815088 19.5107413,26.3042702 18.9725704,26.0745992 L17.4196169,25.4354557 C16.3328824,25.0036502 15.1197901,25.0036502 14.0330557,25.4354557 L12.4801022,26.0745992 C11.9417897,26.2994379 11.3192983,26.0778717 11.0487655,25.565137 L10.2161579,24.0274874 C9.68596165,22.9933176 8.75935453,22.2126292 7.64349402,21.8599573 L6.07183025,21.3782839 C5.52401761,21.2020245 5.19222799,20.6518526 5.29535351,20.090734 L5.65084888,18.2381441 C5.8642112,17.1553031 5.65349941,16.0326466 5.06147497,15.0980043 L4.12596082,13.690036 C3.82913532,13.2117556 3.92838612,12.5906721 4.35983936,12.2264901 L5.83795171,11.0037808 C6.66021913,10.32905 7.20571918,9.38053899 7.37219492,8.33605138 L7.64349402,6.60387987 C7.73934212,6.06527674 8.21378062,5.67380754 8.766111,5.67758495 L10.6932701,5.67758495 C11.7212777,5.6695248 12.714082,5.30580721 13.4998126,4.64939758 L14.9311492,3.46374008 C15.3497772,3.10399345 15.9719233,3.10399345 16.3905513,3.46374008 L17.821888,4.64939758 C18.6076186,5.30580721 19.6004229,5.6695248 20.6284304,5.67758495 L22.5555896,5.67758495 C23.1079199,5.67380754 23.5823584,6.06527674 23.6782065,6.60387987 L23.9495056,8.33605138 C24.1159814,9.38053899 24.6614814,10.32905 25.4837489,11.0037808 L26.9618612,12.2264901 C27.4643967,12.5734692 27.6042344,13.2494779 27.279936,13.7641396 L27.2705809,13.7548767 Z" id="Shape"></path></g></g></g></g></g></svg> 