<?xml version="1.0" encoding="UTF-8"?> <svg xmlns="http://www.w3.org/2000/svg" xmlns:xlink="http://www.w3.org/1999/xlink" width="30px" height="20px" viewBox="0 0 30 20" version="1.1"><!-- Generator: Sketch 63.1 (92452) - https://sketch.com --><title>Combined Shape</title><desc>Created with Sketch.</desc><g id="Developers" stroke="none" stroke-width="1" fill="none" fill-rule="evenodd"><g transform="translate(-629.000000, -6321.000000)" fill="#3EC4FF" id="TECHNOLOGY"><g transform="translate(58.000000, 5439.000000)"><path d="M586,892.697655 C588.721515,892.697655 591.149819,893.992549 592.714479,896.005286 C593.46812,895.665574 594.290215,895.488348 595.125735,895.488348 C598.364425,895.488348 601,898.117735 601,901.348817 C601,901.708268 600.707579,902 600.347284,902 C599.987021,902 599.694605,901.708268 599.694605,901.348817 C599.694605,898.835347 597.645123,896.79068 595.125735,896.79068 C594.546283,896.79068 593.976247,896.899338 593.444202,897.109311 C594.141206,898.359955 594.538469,899.801708 594.538469,901.335529 C594.538469,901.702316 594.244211,901.999964 593.881646,901.999964 C593.519112,901.999964 593.224854,901.702316 593.224854,901.335529 C593.224854,899.917699 592.823843,898.592939 592.130522,897.471217 C592.022974,897.420045 591.930233,897.337802 591.863562,897.229549 C591.809047,897.139805 591.778909,897.042175 591.771198,896.944249 C590.452416,895.173186 588.356225,894.02656 586,894.02656 C583.643775,894.02656 581.547584,895.173186 580.227951,896.9439 C580.220425,897.042153 580.190065,897.139096 580.135538,897.228256 C580.069737,897.335827 579.977712,897.417714 579.872727,897.470735 C579.176632,898.59137 578.775146,899.916859 578.775146,901.335529 C578.775146,901.702316 578.480883,901.999964 578.118317,901.999964 C577.755789,901.999964 577.461531,901.702316 577.461531,901.335529 C577.461531,899.801299 577.859002,898.359188 578.555241,897.109047 C578.024037,896.899338 577.453969,896.79068 576.874514,896.79068 C574.35502,896.79068 572.305452,898.835347 572.305452,901.348817 C572.305452,901.708268 572.013021,902 571.652708,902 C571.292431,902 571,901.708268 571,901.348817 C571,898.117735 573.635689,895.488348 576.874514,895.488348 C577.71007,895.488348 578.532201,895.665574 579.286863,896.004107 C580.850163,893.992549 583.278463,892.697655 586,892.697655 Z M595.230739,887.11627 C597.138737,887.11627 598.692311,888.681848 598.692311,890.604636 C598.692311,892.527423 597.138737,894.093039 595.230739,894.093039 C593.322742,894.093039 591.769205,892.527423 591.769205,890.604636 C591.769205,888.681848 593.322742,887.11627 595.230739,887.11627 Z M576.769224,887.11627 C578.678634,887.11627 580.230795,888.681848 580.230795,890.604636 C580.230795,892.527423 578.677221,894.093039 576.769224,894.093039 C574.861225,894.093039 573.307689,892.527423 573.307689,890.604636 C573.307689,888.681848 574.859851,887.11627 576.769224,887.11627 Z M595.230739,888.511625 C594.085659,888.511625 593.153828,889.45068 593.153828,890.604636 C593.153828,891.758592 594.085659,892.697688 595.230739,892.697688 C596.37582,892.697688 597.307692,891.758592 597.307692,890.604636 C597.307692,889.45068 596.37582,888.511625 595.230739,888.511625 Z M576.769224,888.511625 C575.624144,888.511625 574.692311,889.45068 574.692311,890.604636 C574.692311,891.758592 575.624144,892.697688 576.769224,892.697688 C577.914304,892.697688 578.846176,891.758592 578.846176,890.604636 C578.846176,889.45068 577.914304,888.511625 576.769224,888.511625 Z M585.769213,882 C588.314285,882 590.384592,884.086392 590.384592,886.651154 C590.384592,889.215954 588.314285,891.302309 585.769213,891.302309 C583.224177,891.302309 581.153834,889.215954 581.153834,886.651154 C581.153834,884.086392 583.224177,882 585.769213,882 Z M585.769213,883.328905 C583.952073,883.328905 582.472517,884.81993 582.472517,886.651154 C582.472517,888.482379 583.952073,889.973437 585.769213,889.973437 C587.586352,889.973437 589.065941,888.482379 589.065941,886.651154 C589.065941,884.81993 587.586352,883.328905 585.769213,883.328905 Z" id="Combined-Shape"></path></g></g></g></svg> 