<?xml version="1.0" encoding="UTF-8"?> <svg xmlns="http://www.w3.org/2000/svg" xmlns:xlink="http://www.w3.org/1999/xlink" width="21px" height="26px" viewBox="0 0 21 26" version="1.1"><!-- Generator: Sketch 63.1 (92452) - https://sketch.com --><title>Combined Shape</title><desc>Created with Sketch.</desc><g id="Symbols" stroke="none" stroke-width="1" fill="none" fill-rule="evenodd"><g id="Icon-/-Benefits-/-Time" transform="translate(-2.000000, 0.000000)" fill="#3EC4FF"><path d="M12.1739009,1.77635684e-15 C15.4975146,1.77635684e-15 18.2028792,2.77000277 18.2028792,6.17302566 C18.2028792,6.60168602 18.1494712,7.03538546 18.0370249,7.5150161 C18.3562147,7.74174857 18.662635,7.9861502 18.9539799,8.24706009 L19.39,7.81 L19.1218613,7.58670803 C18.9013815,7.40292216 18.9013815,7.10420136 19.1218613,6.92041926 C19.3423749,6.73665977 19.7007977,6.73665977 19.9213076,6.92041926 L20.2131266,7.16283442 C20.3778649,7.14469139 20.5490963,7.19867796 20.6751974,7.32479414 C20.7752435,7.42485397 20.8298984,7.55330508 20.8391619,7.68438501 L21.0520085,7.86280886 C21.2725184,8.04659472 21.2725184,8.34531553 21.0520085,8.52907125 C20.9423263,8.62048186 20.7975932,8.66668268 20.65286,8.66668268 C20.5125989,8.66668268 20.3723379,8.62329286 20.2629595,8.53741518 L19.7529118,9.04599362 C20.1860266,9.52963299 20.5736504,10.0548157 20.9089822,10.6147407 C21.0002134,10.6580866 21.0795845,10.7212849 21.1354571,10.8024972 C21.2109668,10.9102028 21.2326138,11.0314544 21.2072816,11.1449336 C21.9032529,12.4857018 22.3112517,14.0008338 22.3454615,15.6062519 C22.347538,15.6164745 22.3478319,15.6270344 22.3478319,15.6376625 L22.3464683,15.6601083 C22.3473561,15.7153289 22.3478018,15.770655 22.3478018,15.8260831 C22.3478018,17.5129987 21.9350343,19.1053901 21.2052018,20.5075545 C21.232584,20.620679 21.211226,20.7420365 21.1362032,20.8502493 C21.0798919,20.9314786 20.9997566,20.994753 20.9073657,21.0374791 C20.0432979,22.4826475 18.8299068,23.6959529 17.3852369,24.5611493 C17.3419482,24.6526904 17.2787815,24.7320893 17.1976149,24.7883979 C17.1182999,24.8429013 17.0319574,24.869569 16.9466134,24.869569 C16.9152248,24.869569 16.8840008,24.8660088 16.8533617,24.8590311 C15.4516947,25.5875974 13.8600221,25.9999689 12.1739159,25.9999689 L12.0087832,25.9995282 C12.0010593,25.9998417 11.9932957,26 11.9854953,26 L11.954,25.997 L11.8943237,25.9961816 C10.3118713,25.9532638 8.81840032,25.5471653 7.4944433,24.8584194 C7.46394923,24.8658935 7.43247271,24.8695355 7.40089441,24.8695355 C7.3154864,24.8695355 7.22907983,24.8440879 7.14973471,24.78835 C7.06856096,24.7318105 7.00541253,24.652142 6.96273596,24.5602072 C5.52819467,23.7019754 4.32228867,22.5003127 3.4584084,21.0699727 C3.35335322,21.0305141 3.2594165,20.9555206 3.19871915,20.8504716 C3.13488764,20.7412593 3.1172451,20.618109 3.13980369,20.5032698 C2.41197562,19.1023336 2,17.5113798 2,15.8260831 L2.00039485,15.6610008 C2.00013247,15.6532603 2,15.6454798 2,15.6376625 L2.002,15.602 L2.00378731,15.5464909 C2.0466833,13.9648427 2.45239089,12.4720856 3.14050037,11.1486293 C3.11737209,11.0335291 3.13484953,10.9106026 3.19809967,10.8015439 C3.25923421,10.6961462 3.35301859,10.6213215 3.45941523,10.5821621 C4.18848432,9.37352772 5.16227852,8.32855588 6.31127257,7.51557577 C6.1984057,7.03599544 6.14492258,6.60198747 6.14492258,6.17302566 C6.14492258,2.77000277 8.85028717,1.77635684e-15 12.1739009,1.77635684e-15 Z M12.5502441,6.76961036 L12.5507422,7.06521648 C12.5507422,7.3252237 12.29751,7.53624925 11.9854953,7.53624925 C11.6735107,7.53624925 11.4202786,7.3252237 11.4202786,7.06521648 L11.4208867,6.7923269 C10.3100672,6.88213674 9.21363568,7.17131501 8.1952133,7.65986171 L8.33844952,7.90986503 C8.47711602,8.15203402 8.39474134,8.45980206 8.15459206,8.59905638 C8.07520549,8.64549459 7.98878762,8.66668268 7.90336453,8.66668268 C7.73055518,8.66668268 7.5607377,8.57586742 7.46828332,8.41439255 L7.31398395,8.14548293 C7.28411999,8.16421684 7.25434843,8.18314099 7.22467114,8.20225541 C7.19490769,8.2217321 7.16372964,8.23802821 7.13158398,8.25107694 C6.07126298,8.95859309 5.16748324,9.88288334 4.48358107,10.9598915 L4.76207617,11.1201829 C5.00338754,11.2588947 5.0861899,11.5654569 4.94685079,11.8066801 C4.85397664,11.9675219 4.68333621,12.057983 4.50966282,12.057983 C4.42382826,12.057983 4.33701926,12.0368778 4.25724985,11.9906242 L3.99195019,11.8377633 C3.5068369,12.8289664 3.19663862,13.9207388 3.10182462,15.0726112 L3.41304819,15.0724457 C3.67305768,15.0724457 3.88408172,15.3256779 3.88408172,15.6376625 C3.88408172,15.9496772 3.67305768,16.2029093 3.41304819,16.2029093 L3.07863207,16.2028197 C3.13143353,17.4935917 3.45428583,18.7159056 3.9920657,19.8146384 L4.2571191,19.6627892 C4.49725858,19.5222198 4.80699093,19.6045531 4.94623132,19.8465148 C5.08647289,20.0864606 5.00375719,20.3936559 4.76158745,20.5322056 L4.48313925,20.6915781 C5.1838241,21.7952355 6.11538867,22.7385577 7.20934676,23.4530585 L7.46819665,22.9111018 C7.60684808,22.6214591 7.91326713,22.5233088 8.15440742,22.6893529 C8.39551757,22.8553639 8.47688617,23.2262252 8.33823851,23.5170695 L8.11900971,23.9751204 C9.12782263,24.4791283 10.2427193,24.801231 11.420444,24.8981729 L11.4202786,24.3043108 C11.4202786,23.9923308 11.6735107,23.739102 11.9854953,23.739102 C12.29751,23.739102 12.5507422,23.9923308 12.5507422,24.3043108 L12.5506525,24.9213655 C13.8676493,24.8674913 15.1133781,24.5324815 16.229287,23.9748879 L16.0099589,23.5178683 C15.8704144,23.2283971 15.9527175,22.8577883 16.1936807,22.6906405 C16.4315993,22.5222911 16.7408105,22.6215853 16.8793564,22.9122914 L17.1377083,23.4535652 C18.1991207,22.7604745 19.107695,21.8519899 19.8008905,20.7906518 L19.2594312,20.5317044 C18.9698556,20.3930342 18.8704943,20.0865624 19.0377005,19.8454108 C19.2049067,19.6052539 19.5756474,19.5228491 19.865223,19.6615232 L20.3229524,19.880989 C20.8804064,18.765199 21.2153305,17.5196334 21.2691972,16.2028197 L20.6521441,16.2029093 C20.3401633,16.2029093 20.0869349,15.9496772 20.0869349,15.6376625 C20.0869349,15.3256779 20.3401633,15.0724457 20.6521441,15.0724457 L21.2460047,15.0726112 C21.1490478,13.8947053 20.826861,12.7796468 20.3227199,11.7707113 L19.8653775,11.9906732 C19.769724,12.0368929 19.6655922,12.057983 19.5626964,12.057983 C19.3544366,12.057983 19.1498131,11.9675897 19.0384428,11.8068911 C18.8701552,11.5668436 18.9694148,11.2594825 19.2600153,11.1208725 L19.8007497,10.861298 C19.1248016,9.82643059 18.2440804,8.93689659 17.2165664,8.25067637 C17.1839625,8.2379481 17.1522457,8.22172389 17.1220454,8.20225541 L17.032,8.146 L16.8795184,8.41424182 C16.7870641,8.57578453 16.617273,8.6666563 16.4444372,8.6666563 C16.3590141,8.6666563 16.2725963,8.64545314 16.1932398,8.5990187 C15.9530868,8.45967771 15.8706857,8.1517288 16.0093522,7.90941663 L16.1521851,7.66034039 C15.0187824,7.11661648 13.7889241,6.81970647 12.5502441,6.76961036 Z M11.9854953,8.6666563 C12.29751,8.6666563 12.5507422,8.9105021 12.5507422,9.21092609 L12.55,14.694 L15.0309922,12.2141109 C15.2391879,12.0059039 15.5776698,12.0059039 15.7858655,12.2141109 C15.9940612,12.4223443 15.9940612,12.7608073 15.7858655,12.9690407 L12.55,16.204 L12.5507422,17.9194763 C12.5507422,18.2199304 12.29751,18.463746 11.9854953,18.463746 C11.6735107,18.463746 11.4202786,18.2199304 11.4202786,17.9194763 L11.42,17.334 L10.4472693,18.3078593 C10.3436726,18.4114296 10.2070334,18.463746 10.070364,18.463746 C9.93369457,18.463746 9.79702517,18.4114296 9.69236964,18.3078593 C9.48417395,18.0996523 9.48417395,17.761159 9.69236964,17.5529558 L11.42,15.824 L11.4202786,9.21092609 C11.4202786,8.9105021 11.6735107,8.6666563 11.9854953,8.6666563 Z M12.1739009,1.12236967 C9.45427775,1.12236967 7.24110388,3.38842145 7.24110388,6.17302566 C7.24110388,6.37383512 7.25647598,6.57925993 7.28885168,6.79521356 C7.34101679,6.78348085 7.39291701,6.78004033 7.44388549,6.78442376 L7.29919308,6.86103382 C8.58030104,6.16311546 9.9814962,5.74780202 11.4201288,5.64004122 L11.42,3.391 L11.1690624,3.39133044 C10.8917482,3.39133044 10.6666563,3.13809828 10.6666563,2.82608358 C10.6666563,2.51409902 10.8917482,2.26086686 11.1690624,2.26086686 L13.1787394,2.26086686 C13.4560837,2.26086686 13.6811718,2.51409902 13.6811718,2.82608358 C13.6811718,3.13809828 13.4560837,3.39133044 13.1787394,3.39133044 L12.55,3.391 L12.5509356,5.61889853 C14.0676199,5.67558781 15.55097,6.07371835 16.9053241,6.78441405 C16.955102,6.78006717 17.006935,6.78340829 17.0578596,6.79499909 L17.0486124,6.86103382 C17.0880608,6.62083933 17.1066979,6.39413467 17.1066979,6.17302566 C17.1066979,3.38842145 14.893524,1.12236967 12.1739009,1.12236967 Z" id="Combined-Shape"></path></g></g></svg> 