<?xml version="1.0" encoding="UTF-8"?> <svg xmlns="http://www.w3.org/2000/svg" xmlns:xlink="http://www.w3.org/1999/xlink" width="38px" height="40px" viewBox="0 0 38 40" version="1.1"><!-- Generator: Sketch 63.1 (92452) - https://sketch.com --><title>Fill 1</title><desc>Created with Sketch.</desc><g id="Symbols" stroke="none" stroke-width="1" fill="none" fill-rule="evenodd"><g id="Icon-/-Partners-/-Distributor" transform="translate(-1.000000, 0.000000)" fill="#3EC4FF"><path d="M19.8559975,8.3333506 C22.1593985,8.3333506 24.0348789,6.46331585 24.0348789,4.16665501 C24.0348789,1.86999418 22.1610588,0 19.8559975,0 C17.5525497,0 15.6770693,1.86999418 15.6770693,4.16665501 C15.6770693,6.46331585 17.5525497,8.3333506 19.8559975,8.3333506 Z M19.8559975,1.66667244 C21.2383316,1.66667244 22.3633181,2.7883188 22.3633181,4.16665501 C22.3633181,5.54499122 21.2383316,6.66668396 19.8559975,6.66668396 C18.4736166,6.66668396 17.3486301,5.54499122 17.3486301,4.16665501 C17.3486301,2.7883188 18.4752711,1.66667244 19.8559975,1.66667244 Z M31.7006444,10.000023 C34.0040455,10.000023 35.87952,8.12998249 35.87952,5.83332165 C35.87952,3.53666082 34.0057,1.66667244 31.7006444,1.66667244 C29.3972434,1.66667244 27.5217631,3.53666082 27.5217631,5.83332165 C27.5217631,8.12998249 29.3972434,10.000023 31.7006444,10.000023 Z M31.7006444,3.33333908 C33.0830253,3.33333908 34.2079651,4.45498544 34.2079651,5.83332165 C34.2079651,7.21165786 33.0846798,8.3333506 31.7006444,8.3333506 C30.3182636,8.3333506 29.193277,7.21165786 29.193277,5.83332165 C29.193277,4.45498544 30.319918,3.33333908 31.7006444,3.33333908 Z M27.3596201,23.7283185 L26.2513594,14.0483186 C25.9889432,11.739994 24.1552394,10.000023 21.9888722,10.000023 L17.7214157,10.000023 C15.5584158,10.000023 13.7263724,11.739994 13.4622491,14.0483186 L12.3540294,23.7283185 C12.2620928,24.5383475 12.5128108,25.3433214 13.0410515,25.9333561 C13.4973494,26.4416808 14.1008125,26.73833 14.7577094,26.7749793 L15.6804309,39.2283235 C15.7121696,39.6633487 16.0765719,40 16.512876,40 L23.1990722,40 C23.6370366,40 24.001433,39.6633487 24.0315173,39.2283235 L24.9542387,26.7749793 C25.6094753,26.73833 26.2145988,26.4433329 26.6708967,25.9333561 C27.202458,25.3416692 27.4515157,24.5383475 27.3596201,23.7283185 Z M25.4272976,24.8233272 C25.3303392,24.930017 25.123058,25.1116634 24.8154979,25.1116634 L24.1786357,25.1116634 C23.7406772,25.1116634 23.3762749,25.448359 23.344542,25.8833387 L22.423475,38.3333304 L17.2901335,38.3333304 L16.3707736,25.8833387 C16.3373278,25.448359 15.9746326,25.1116634 15.536674,25.1116634 L14.9014721,25.1116634 C14.5955723,25.1116634 14.3866309,24.930017 14.2896666,24.8233272 C14.0774104,24.5850083 13.9770904,24.2550199 14.0155523,23.9166663 L15.123813,14.2366723 C15.290972,12.7716694 16.4092354,11.6666491 17.7247305,11.6666491 L21.9922395,11.6666491 C23.3060801,11.6666491 24.4243378,12.7716694 24.5931571,14.2366723 L25.7014178,23.9166663 C25.7398796,24.2550199 25.6395538,24.5850083 25.4272976,24.8233272 Z M38.9802659,23.8583417 L37.9088067,15.3183128 C37.6497053,13.2366839 35.8661615,11.6683477 33.7633185,11.6683477 L29.6362633,11.6683477 C29.171582,11.6683477 28.7035391,11.7500056 28.2438387,11.9133274 C27.8092358,12.0666781 27.5819199,12.5433158 27.7357205,12.9766897 C27.8911346,13.4100172 28.3675608,13.6383244 28.8021578,13.4833157 C29.0812998,13.3849853 29.3621431,13.3350201 29.6362633,13.3350201 L33.7633185,13.3350201 C35.0253389,13.3350201 36.0934833,14.2766723 36.2506044,15.5249911 L37.3220636,24.0650141 C37.3521888,24.3049851 37.2802812,24.5383475 37.1198452,24.719988 C36.9593626,24.9016808 36.7370217,25.0016634 36.49298,25.0016634 L35.87952,25.0016634 C35.4399011,25.0016634 35.0771591,25.3383127 35.0454262,25.7749967 L34.2648014,36.6683131 L29.1347804,36.6683131 L28.5330186,28.2733271 C28.5012798,27.8150141 28.0967554,27.4549851 27.6404165,27.5016518 C27.1807629,27.5333387 26.8330338,27.9333213 26.8664797,28.3916807 L27.5234234,37.5599994 C27.5568633,37.9949791 27.9212598,38.3333304 28.3575171,38.3333304 L35.0437659,38.3333304 C35.4816836,38.3333304 35.84608,37.9949791 35.8762052,37.561651 L36.6567833,26.6633271 C37.3153815,26.620017 37.932203,26.320017 38.3718277,25.8233561 C38.8482013,25.2849909 39.070548,24.569988 38.9802659,23.8583417 Z M12.3473531,27.6916518 C11.8809705,27.6483416 11.4881501,28.0050141 11.4547043,28.4633271 L10.8663476,36.6666491 L5.73466753,36.6666491 L4.95570473,25.7733445 C4.92396773,25.3383127 4.55956778,25.0000112 4.11994716,25.0000112 L3.50648715,25.0000112 C3.26240216,25.0000112 3.0401046,24.8999822 2.87962308,24.7183359 C2.71918715,24.5366431 2.64728359,24.3049851 2.67736262,24.0633156 L3.74886799,15.5233331 C3.90428265,14.2750201 4.9724259,13.3333157 6.2361036,13.3333157 L10.3632103,13.3333157 C10.5504099,13.3333157 10.7493544,13.3616578 10.9933903,13.4266897 C11.4396913,13.5366839 11.8976905,13.2766897 12.0146895,12.831652 C12.1316885,12.3866549 11.8642505,11.929994 11.4179495,11.813339 C11.0318054,11.7133563 10.6975342,11.6666491 10.36155,11.6666491 L6.2361036,11.6666491 C4.13330562,11.6666491 2.3514245,13.2349853 2.09066453,15.3166606 L1.01920529,23.8566895 C0.93058109,24.5683359 1.15126645,25.2833388 1.62764469,25.8216576 C2.06726473,26.3183242 2.68404185,26.6183242 3.34264292,26.661675 L4.12326368,37.5599994 C4.15504687,37.9949791 4.5194474,38.3333304 4.95570473,38.3333304 L11.6419506,38.3333304 C12.079915,38.3333304 12.4442647,37.9949791 12.4760502,37.5599994 L13.1195887,28.5816865 C13.1530287,28.1233271 12.8053522,27.7249967 12.3473531,27.6916518 Z M8.29882914,10.000023 C10.6022302,10.000023 12.4777105,8.12998249 12.4777105,5.83332165 C12.4777105,3.53666082 10.6038847,1.66667244 8.29882914,1.66667244 C5.9954275,1.66667244 4.11994716,3.53666082 4.11994716,5.83332165 C4.11994716,8.12998249 5.9954275,10.000023 8.29882914,10.000023 Z M8.29882914,3.33333908 C9.68121002,3.33333908 10.8061498,4.45498544 10.8061498,5.83332165 C10.8061498,7.21165786 9.68286448,8.3333506 8.29882914,8.3333506 C6.91810272,8.3333506 5.79150907,7.21165786 5.79150907,5.83332165 C5.79150907,4.45498544 6.91810272,3.33333908 8.29882914,3.33333908 Z" id="Fill-1"></path></g></g></svg> 