<?xml version="1.0" encoding="UTF-8"?> <svg xmlns="http://www.w3.org/2000/svg" xmlns:xlink="http://www.w3.org/1999/xlink" width="40px" height="40px" viewBox="0 0 40 40" version="1.1"><!-- Generator: Sketch 63.1 (92452) - https://sketch.com --><title>Fill 1</title><desc>Created with Sketch.</desc><g id="Symbols" stroke="none" stroke-width="1" fill="none" fill-rule="evenodd"><g id="Icon-/-Partners-/-OEM" fill="#3EC4FF"><path d="M20,12.0000313 C20,11.4480193 19.6415896,11 19.2000239,11 L12.8000206,11 C12.3584104,11 12,11.4480193 12,12.0000313 C12,12.5520433 12.3584104,13 12.8000206,13 L19.2000239,13 C19.6415896,13 20,12.5520433 20,12.0000313 Z M20,23.9999687 C20,24.5519876 20.3584101,25 20.7999755,25 L27.1999744,25 C27.6415843,25 28,24.5519876 28,23.9999687 C28,23.4480124 27.6415843,23 27.1999744,23 L20.7999755,23 C20.3584101,23 20,23.4480124 20,23.9999687 Z M28.1428295,26 L17.8571646,26 C17.384011,26 17,26.4479637 17,26.9999757 C17,27.5519876 17.384011,28 17.8571646,28 L28.1428295,28 C28.6159831,28 29,27.5519876 29,26.9999757 C29,26.4479637 28.6159831,26 28.1428295,26 Z M28.6911134,7.24636353 C28.5324941,7.08942292 28.3182136,7 28.0937494,7 L7.84372744,7 C7.37796519,7 7,7.37796519 7,7.84372744 L7,33.1562667 C7,33.6220289 7.37796519,34 7.84372744,34 L33.1562667,34 C33.6220289,34 34,33.6220289 34,33.1562667 L34,12.9062447 C34,12.6817805 33.9105712,12.4675001 33.7536306,12.3088808 L28.6911134,7.24636353 Z M32,31 L9,31 L9,8 L27.5527819,8 L32,12.4472181 L32,31 Z M39.1666899,16.6666606 C39.6266551,16.6666606 40,16.2933099 40,15.8333447 C40,15.3733331 39.6266551,14.9999882 39.1666899,14.9999882 L36.6799768,14.9999882 L36.6799768,10.000023 L39.1666899,10.000023 C39.6266551,10.000023 40,9.62667812 40,9.16666653 C40,8.70665494 39.6266551,8.3333506 39.1666899,8.3333506 L36.6799768,8.3333506 L36.6799768,6.67834773 C36.6799768,4.83999993 35.1849855,3.34500865 33.3466841,3.34500865 L31.6666493,3.34500865 L31.6666493,0.833310133 C31.6666493,0.373344922 31.2933449,0 30.8333391,0 C30.3733217,0 30.0000232,0.373344922 30.0000232,0.833310133 L30.0000232,3.34500865 L25.0000116,3.34500865 L25.0000116,0.833310133 C25.0000116,0.373344922 24.6266667,0 24.1666551,0 C23.7066899,0 23.3333391,0.373344922 23.3333391,0.833310133 L23.3333391,3.34500865 L16.6666609,3.34500865 L16.6666609,0.833310133 C16.6666609,0.373344922 16.2933101,0 15.8333449,0 C15.3733333,0 14.9999884,0.373344922 14.9999884,0.833310133 L14.9999884,3.34500865 L10.0000232,3.34500865 L10.0000232,0.833310133 C10.0000232,0.373344922 9.62667826,0 9.16666667,0 C8.70665507,0 8.33335072,0.373344922 8.33335072,0.833310133 L8.33335072,3.34500865 L6.68,3.34500865 C4.84165275,3.34500865 3.34666029,4.83999993 3.34666029,6.67834773 L3.34666029,8.3333506 L0.833312464,8.3333506 C0.373346319,8.3333506 0,8.70665494 0,9.16666653 C0,9.62667812 0.373346319,10.000023 0.833312464,10.000023 L3.34666029,10.000023 L3.34666029,14.9999882 L0.833312464,14.9999882 C0.373346319,14.9999882 0,15.3733331 0,15.8333447 C0,16.2933099 0.373346319,16.6666606 0.833312464,16.6666606 L3.34666029,16.6666606 L3.34666029,23.3333388 L0.833312464,23.3333388 C0.373346319,23.3333388 0,23.7066895 0,24.1666547 C0,24.6266663 0.373346319,25.0000112 0.833312464,25.0000112 L3.34666029,25.0000112 L3.34666029,30.0000227 L0.833312464,30.0000227 C0.373346319,30.0000227 0,30.3733213 0,30.8333387 C0,31.2933445 0.373346319,31.6666488 0.833312464,31.6666488 L3.34666029,31.6666488 L3.34666029,33.344985 C3.34666029,35.1833334 4.84165275,36.6783235 6.68,36.6783235 L8.33335072,36.6783235 L8.33335072,39.1666864 C8.33335072,39.6266547 8.70665507,40 9.16666667,40 C9.62667826,40 10.0000232,39.6266547 10.0000232,39.1666864 L10.0000232,36.6783235 L14.9999884,36.6783235 L14.9999884,39.1666864 C14.9999884,39.6266547 15.3733333,40 15.8333449,40 C16.2933101,40 16.6666609,39.6266547 16.6666609,39.1666864 L16.6666609,36.6783235 L23.3333391,36.6783235 L23.3333391,39.1666864 C23.3333391,39.6266547 23.7066899,40 24.1666551,40 C24.6266667,40 25.0000116,39.6266547 25.0000116,39.1666864 L25.0000116,36.6783235 L30.0000232,36.6783235 L30.0000232,39.1666864 C30.0000232,39.6266547 30.3733217,40 30.8333391,40 C31.2933449,40 31.6666493,39.6266547 31.6666493,39.1666864 L31.6666493,36.6783235 L33.3466841,36.6783235 C35.1833333,36.6783235 36.6799768,35.1833334 36.6799768,33.344985 L36.6799768,31.6666488 L39.1666899,31.6666488 C39.6266551,31.6666488 40,31.2933445 40,30.8333387 C40,30.3733213 39.6266551,30.0000227 39.1666899,30.0000227 L36.6799768,30.0000227 L36.6799768,25.0000112 L39.1666899,25.0000112 C39.6266551,25.0000112 40,24.6266663 40,24.1666547 C40,23.7066895 39.6266551,23.3333388 39.1666899,23.3333388 L36.6799768,23.3333388 L36.6799768,16.6666606 L39.1666899,16.6666606 Z M35,9.08830429 C34.9982957,9.11168402 34.9866319,9.13166085 34.9866319,9.15499419 C34.9866319,9.17832175 34.9982957,9.19835075 35,9.2216783 L35,15.754993 C34.9982957,15.7783205 34.9866319,15.7983495 34.9866319,15.8216771 C34.9866319,15.8450104 34.9982957,15.8649873 35,15.8883206 L35,24.0900017 C34.9982957,24.1116829 34.9866319,24.1316597 34.9866319,24.154993 C34.9866319,24.1783206 34.9982957,24.1983438 35,24.2216771 L35,30.7566904 C34.9982957,30.7783716 34.9866319,30.7983484 34.9866319,30.8216817 C34.9866319,30.8450093 34.9982957,30.8649919 35,30.8883658 L35,33.3333299 C35,34.2516998 34.253305,35 33.333329,35 L30.9366412,35 C30.8966355,34.994993 30.8616384,34.976669 30.8199862,34.976669 C30.7783283,34.976669 30.7433312,34.994993 30.7033255,35 L24.2700093,35 C24.2300036,34.994993 24.1950065,34.976669 24.153308,34.976669 C24.11165,34.976669 24.076653,34.994993 24.036653,35 L15.9366659,35 C15.8966601,34.994993 15.861663,34.976669 15.8200051,34.976669 C15.7783529,34.976669 15.7433095,34.994993 15.7033501,35 L9.26998759,35 C9.22998183,34.994993 9.19498476,34.976669 9.15333262,34.976669 C9.11167469,34.976669 9.07667761,34.994993 9.03667185,35 L6.66666812,35 C5.7466921,35 5,34.2516998 5,33.3333299 L5,6.66667362 C5,5.74834835 5.7466921,5 6.66666812,5 L33.333329,5 C34.253305,5 35,5.74834835 35,6.66667362 L35,9.08830429 Z" id="Fill-1"></path></g></g></svg> 