<?xml version="1.0" encoding="UTF-8"?> <svg xmlns="http://www.w3.org/2000/svg" xmlns:xlink="http://www.w3.org/1999/xlink" width="36px" height="30px" viewBox="0 0 36 30" version="1.1"><!-- Generator: Sketch 63.1 (92452) - https://sketch.com --><title>Combined Shape</title><desc>Created with Sketch.</desc><g id="Symbols" stroke="none" stroke-width="1" fill="none" fill-rule="evenodd"><g id="Icon-/-Platform-/-View" fill="#3EC4FF"><path d="M0.736824785,22.6315481 C1.14357318,22.6315481 1.4736901,22.9616634 1.4736901,23.3683734 L1.4736901,26.3157536 C1.4736901,27.5344956 2.46546401,28.5263095 3.6842055,28.5263095 L6.6315857,28.5263095 C7.03833251,28.5263095 7.36845311,28.8563864 7.36845311,29.2631343 C7.36845311,29.6698823 7.03833251,30 6.6315857,30 L3.6842055,30 C1.65200827,30 -1.88293825e-13,28.3464892 -1.88293825e-13,26.3157536 L-1.88293825e-13,23.3683734 C-1.88293825e-13,22.9616634 0.330117339,22.6315481 0.736824785,22.6315481 Z M35.0525996,22.6315481 C35.4593464,22.6315481 35.789467,22.9616634 35.789467,23.3683734 L35.789467,26.3157536 C35.789467,28.3464892 34.1374587,30 32.1052194,30 L29.1578392,30 C28.7511292,30 28.4210139,29.6698823 28.4210139,29.2631343 C28.4210139,28.8563864 28.7511292,28.5263095 29.1578392,28.5263095 L32.1052194,28.5263095 C33.3239598,28.5263095 34.3157743,27.5344956 34.3157743,26.3157536 L34.3157743,23.3683734 C34.3157743,22.9616634 34.6458528,22.6315481 35.0525996,22.6315481 Z M29.2045497,18.0582806 C29.5188124,18.3115487 29.5645492,18.7674691 29.3063495,19.0772161 C26.9325475,21.9184017 22.5597008,23.6842203 17.8947124,23.6842203 C13.2297609,23.6842203 8.8568774,21.9184017 6.48311748,19.0772161 C6.22491783,18.7689481 6.27065461,18.3130224 6.58487523,18.0582806 C6.90210638,17.8049705 7.3653268,17.8513178 7.62352645,18.1595858 C9.72587621,20.6736823 13.6605445,22.2368434 17.8947124,22.2368434 C22.1288856,22.2368434 26.0635908,20.6736823 28.1659353,18.1595858 C28.4240981,17.8498441 28.8873606,17.8064494 29.2045497,18.0582806 Z M21.9017333,18.1314226 C22.1777961,18.4424959 22.1720803,18.9430636 21.890307,19.2478264 C20.814719,20.4115301 19.3958367,21.052645 17.895444,21.052645 C16.3950461,21.052645 14.9761638,20.4115301 13.89916,19.2478264 C13.6173867,18.9430636 13.6116709,18.4424959 13.8876916,18.1314226 C14.1637491,17.8219599 14.6171748,17.8140389 14.8989481,18.1188016 C16.5166038,19.8636203 19.2742421,19.8636203 20.8905136,18.1188016 C21.175129,17.8140389 21.6285547,17.8219599 21.9017333,18.1314226 Z M17.8954914,5.78946579 C25.0883342,5.78946579 30.9683315,9.63136582 31.5743622,14.7243589 L31.575,14.736 L35.0438312,14.736822 C35.455378,14.736822 35.7894249,15.0905268 35.7894249,15.5262946 C35.7894249,15.9621046 35.455378,16.3158093 35.0438312,16.3158093 L0.745594247,16.3158093 C0.334046229,16.3158093 -1.3500312e-13,15.9621046 -1.3500312e-13,15.5262946 C-1.3500312e-13,15.0905268 0.334046229,14.736822 0.745594247,14.736822 L4.21393091,14.7364693 C4.21429354,14.7324389 4.21468518,14.7284024 4.21510583,14.7243589 C4.82264869,9.63136582 10.7026907,5.78946579 17.8954914,5.78946579 Z M17.8954914,7.29315321 C11.6635522,7.29315321 6.37730727,10.5486088 5.75530265,14.7362403 L12.107,14.736 L12.1092468,14.6407863 C12.2235804,11.4809462 14.7743779,8.94735622 17.8947335,8.94735622 C21.0464276,8.94735622 23.6170915,11.5321609 23.6828864,14.7363058 L30.035,14.736 L30.0120271,14.58869 C29.2902787,10.4731375 24.0548108,7.29315321 17.8954914,7.29315321 Z M17.8947335,10.4260753 C15.5420427,10.4260753 13.6199104,12.3484076 13.5543471,14.7361738 L22.233,14.736 L22.2317891,14.6476473 C22.1218254,12.3010725 20.2182726,10.4260753 17.8947335,10.4260753 Z M6.6315857,-5.24025268e-14 C7.03833251,-5.24025268e-14 7.36845311,0.330115339 7.36845311,0.736825311 C7.36845311,1.14357213 7.03833251,1.47369273 6.6315857,1.47369273 L3.6842055,1.47369273 C2.46546401,1.47369273 1.4736901,2.46546506 1.4736901,3.6842055 L1.4736901,6.6315857 C1.4736901,7.03833251 1.14357318,7.36845311 0.736824785,7.36845311 C0.330117339,7.36845311 -1.88293825e-13,7.03833251 -1.88293825e-13,6.6315857 L-1.88293825e-13,3.6842055 C-1.88293825e-13,1.65347143 1.65200827,-5.24025268e-14 3.6842055,-5.24025268e-14 L6.6315857,-5.24025268e-14 Z M32.1052194,-5.24025268e-14 C34.1374587,-5.24025268e-14 35.789467,1.65347143 35.789467,3.6842055 L35.789467,6.6315857 C35.789467,7.03833251 35.4593464,7.36845311 35.0525996,7.36845311 C34.6458528,7.36845311 34.3157743,7.03833251 34.3157743,6.6315857 L34.3157743,3.6842055 C34.3157743,2.46546506 33.3239598,1.47369273 32.1052194,1.47369273 L29.1578392,1.47369273 C28.7511292,1.47369273 28.4210139,1.14357213 28.4210139,0.736825311 C28.4210139,0.330115339 28.7511292,-5.24025268e-14 29.1578392,-5.24025268e-14 L32.1052194,-5.24025268e-14 Z" id="Combined-Shape"></path></g></g></svg> 