<?xml version="1.0" encoding="UTF-8"?> <svg xmlns="http://www.w3.org/2000/svg" xmlns:xlink="http://www.w3.org/1999/xlink" width="11px" height="24px" viewBox="0 0 11 24" version="1.1"><!-- Generator: Sketch 63.1 (92452) - https://sketch.com --><title>Facebook</title><desc>Created with Sketch.</desc><g id="Symbols" stroke="none" stroke-width="1" fill="none" fill-rule="evenodd"><g id="Icon-/-Social-/-Facebook" fill="#FFFFFF" fill-rule="nonzero"><path d="M2.16144718,4.64803586 C2.16144718,5.25284577 2.16144718,7.9523659 2.16144718,7.9523659 L0,7.9523659 L0,11.9929135 L2.16144718,11.9929135 L2.16144718,24 L6.60151852,24 L6.60151852,11.9932483 L9.58101254,11.9932483 C9.58101254,11.9932483 9.8600552,10.0558366 9.99531691,7.93746745 C9.60751686,7.93746745 6.61830791,7.93746745 6.61830791,7.93746745 C6.61830791,7.93746745 6.61830791,5.5868053 6.61830791,5.17478238 C6.61830791,4.76186668 7.1024103,4.20643925 7.58088301,4.20643925 C8.05845896,4.20643925 9.06642022,4.20643925 10,4.20643925 C10.9335798,4.20643925 10,1.75550554 10,0 C8.75369915,0 7.3358177,0 6.71082393,0 C2.05169339,-0.000278997098 2.16144718,4.04428614 2.16144718,4.64803586 Z" id="Facebook"></path></g></g></svg> 