<?xml version="1.0" encoding="UTF-8"?> <svg xmlns="http://www.w3.org/2000/svg" xmlns:xlink="http://www.w3.org/1999/xlink" width="40px" height="40px" viewBox="0 0 40 40" version="1.1"><!-- Generator: Sketch 63.1 (92452) - https://sketch.com --><title>Combined Shape</title><desc>Created with Sketch.</desc><g id="Symbols" stroke="none" stroke-width="1" fill="none" fill-rule="evenodd"><g id="Icon-/-Partners-/-Solution" fill="#3EC4FF"><path d="M20.3030545,0 C20.4301478,0 20.5566843,0.00359002091 20.6826345,0.0107175467 C31.3956652,0.372543656 40,9.20060671 40,20.0000242 L39.9992366,20.2646224 C39.9997439,20.2773594 40,20.2901638 40,20.3030303 L39.9968272,20.3589769 C39.930569,24.1045108 38.8294524,27.6021888 36.967852,30.5776364 C36.9695984,30.5864584 36.9697455,30.5962414 36.9697455,30.6060606 C36.9697455,31.0113949 36.7202922,31.3550508 36.3750173,31.472236 C32.8760545,36.451065 27.1654008,39.7700279 20.6825377,39.9885148 C20.5566843,39.99641 20.4301478,40 20.3030545,40 L20.2047492,39.9989685 C20.1365876,39.9996556 20.0683453,40 20.0000242,40 C9.084059,40 0.182227703,31.2089465 0.00276216092,20.3349597 C0.000170459947,20.3239837 0,20.3135277 0,20.3030303 L0.00184624174,20.2738855 C0.000616727812,20.1827424 0,20.091454 0,20.0000242 C0,8.9722 8.9722,0 20.0000242,0 L20.2121874,0.000612281758 C20.2424445,0.000204331619 20.2727337,0 20.3030545,0 Z M19.393,31.515 L13.0046108,31.5162787 C14.5754716,35.1730553 16.8563674,37.6833367 19.3932895,38.1732622 L19.393,31.515 Z M27.6014983,31.5162787 L21.212,31.515 L21.2128196,38.1732622 C23.7497417,37.6833367 26.0306375,35.1730553 27.6014983,31.5162787 Z M11.0798396,31.5155687 L5.83744603,31.515664 C8.12821132,34.3277078 11.2381585,36.4472034 14.8000596,37.5069199 C13.3123804,36.0414874 12.0419437,33.9901839 11.0798396,31.5155687 Z M34.1625586,31.515664 L29.5262695,31.5155687 C28.6260856,33.8309197 27.45598,35.7756936 26.0905551,37.2167257 C29.2803791,36.0849286 32.0649112,34.0906485 34.1625586,31.515664 Z M9.11023302,21.2121467 L1.77896652,21.2129596 C1.98330928,24.3146847 2.96550932,27.2072663 4.53183441,29.6969707 L10.4519653,29.6968512 C9.68205892,27.1687595 9.20890272,24.2942718 9.11023302,21.2121467 Z M19.393,21.212 L10.8376488,21.2125382 C10.9485266,24.2929458 11.4777315,27.1925732 12.3136985,29.6966841 L19.393,29.696 L19.393,21.212 Z M38.2210347,21.2129596 L31.4958761,21.2121467 C31.3972064,24.2942718 30.9240502,27.1687595 30.1541438,29.6968512 L35.4681686,29.6969707 C37.034492,27.2072663 38.0166919,24.3146847 38.2210347,21.2129596 Z M29.7684603,21.2125382 L21.212,21.212 L21.212,29.696 L28.2924105,29.6966841 C29.1283776,27.1925732 29.6575825,24.2929458 29.7684603,21.2125382 Z M10.4519653,10.3031858 L4.53183441,10.3030422 C2.86389054,12.9542785 1.85832312,16.0623663 1.74906998,19.3933677 L9.09573402,19.3931633 C9.14848525,16.0819504 9.63187849,12.9960579 10.4519653,10.3031858 Z M19.393,10.303 L12.3136985,10.3033286 C11.4231272,12.9710118 10.8807014,16.0875719 10.8213071,19.3933869 L19.393,19.393 L19.393,10.303 Z M35.4681686,10.3030422 L30.1541438,10.3031858 C30.9742306,12.9960579 31.4576238,16.0819504 31.5103751,19.3931633 L38.2509312,19.3933677 C38.1416781,16.0623663 37.1361106,12.9542785 35.4681686,10.3030422 Z M28.2924105,10.3033286 L21.212,10.303 L21.212,19.393 L29.784802,19.3933869 C29.7254077,16.0875719 29.1829819,12.9710118 28.2924105,10.3033286 Z M14.8000693,2.49311041 L14.5375209,2.57336143 C10.8354939,3.73617745 7.63780933,6.0484985 5.36467651,9.09011506 L10.8534934,9.09034024 C11.8387748,6.34396051 13.1925999,4.07651814 14.8000693,2.49311041 Z M12.754594,9.09062883 L19.393,9.09 L19.3932895,1.82673721 C16.7183423,2.34331799 14.3280383,5.10607704 12.754594,9.09062883 Z M26.0909286,2.78346159 L26.121094,2.81563586 C27.590678,4.37802655 28.8323885,6.52529311 29.7526157,9.09034024 L34.6353275,9.09011506 C32.4918436,6.22197435 29.5262652,4.00231205 26.0909286,2.78346159 Z M21.2128196,1.82673721 L21.212,9.09 L27.8515151,9.09062883 C26.2780708,5.10607704 23.8877668,2.34331799 21.2128196,1.82673721 Z" id="Combined-Shape"></path></g></g></svg> 