<?xml version="1.0" encoding="UTF-8"?> <!-- Generator: Adobe Illustrator 23.1.0, SVG Export Plug-In . SVG Version: 6.00 Build 0) --> <svg xmlns="http://www.w3.org/2000/svg" xmlns:xlink="http://www.w3.org/1999/xlink" version="1.1" id="Layer_1" x="0px" y="0px" viewBox="0 0 27.8 29" style="enable-background:new 0 0 27.8 29;" xml:space="preserve"> <style type="text/css"> .st0{fill-rule:evenodd;clip-rule:evenodd;fill:#3EC4FF;} </style> <title>Combined Shape</title> <desc>Created with Sketch.</desc> <g id="Product"> <g id="SOLUTIONS" transform="translate(-972.000000, -6244.000000)"> <g transform="translate(0.000000, 5968.000000)"> <path id="Combined-Shape" class="st0" d="M985.6,290c2.5,0,4.7,1.3,6.1,3.4c0.7-0.3,1.4-0.5,2.2-0.5c2.9,0,5.3,2.7,5.3,5.9 c0,0.4-0.3,0.7-0.6,0.7s-0.6-0.3-0.6-0.7c0-2.5-1.9-4.6-4.2-4.6c-0.5,0-1,0.1-1.5,0.3c0.6,1.3,1,2.7,1,4.3c0,0.4-0.3,0.7-0.6,0.7 c-0.3,0-0.6-0.3-0.6-0.7c0-1.4-0.4-2.8-1-3.9c-0.1-0.1-0.2-0.1-0.2-0.2c0-0.1-0.1-0.2-0.1-0.3c-1.2-1.8-3.1-3-5.3-3 c-2.1,0-4.1,1.2-5.3,3c0,0.1,0,0.2-0.1,0.3c-0.1,0.1-0.1,0.2-0.2,0.2c-0.6,1.1-1,2.5-1,3.9c0,0.4-0.3,0.7-0.6,0.7 s-0.6-0.3-0.6-0.7c0-1.6,0.4-3,1-4.3c-0.5-0.2-1-0.3-1.5-0.3c-2.3,0-4.2,2.1-4.2,4.6c0,0.4-0.3,0.7-0.6,0.7s-0.6-0.3-0.6-0.7 c0-3.3,2.4-5.9,5.3-5.9c0.8,0,1.5,0.2,2.2,0.5C981,291.3,983.2,290,985.6,290z M994,285c1.7,0,3.1,1.4,3.1,3.2s-1.4,3.2-3.1,3.2 c-1.7,0-3.1-1.4-3.1-3.2S992.3,285,994,285z M977.2,285c1.7,0,3.1,1.4,3.1,3.2s-1.4,3.2-3.1,3.2c-1.7,0-3.1-1.4-3.1-3.2 S975.5,285,977.2,285z M994,286.2c-1,0-1.9,0.9-1.9,1.9s0.8,1.9,1.9,1.9s1.9-0.9,1.9-1.9S995.1,286.2,994,286.2z M977.2,286.2 c-1,0-1.9,0.9-1.9,1.9s0.8,1.9,1.9,1.9s1.9-0.9,1.9-1.9S978.3,286.2,977.2,286.2z M985.4,280.3c2.3,0,4.2,1.9,4.2,4.2 s-1.9,4.2-4.2,4.2c-2.3,0-4.2-1.9-4.2-4.2S983.1,280.3,985.4,280.3z M985.4,281.5c-1.7,0-3,1.4-3,3c0,1.7,1.3,3,3,3 c1.7,0,3-1.4,3-3C988.4,282.9,987.1,281.5,985.4,281.5z"></path> </g> </g> </g> </svg> 