<?xml version="1.0" encoding="UTF-8"?> <svg xmlns="http://www.w3.org/2000/svg" xmlns:xlink="http://www.w3.org/1999/xlink" width="30px" height="18px" viewBox="0 0 30 18" version="1.1"><!-- Generator: Sketch 63.1 (92452) - https://sketch.com --><title>Combined Shape</title><desc>Created with Sketch.</desc><g id="Product" stroke="none" stroke-width="1" fill="none" fill-rule="evenodd"><g transform="translate(-573.000000, -6244.000000)" fill="#3EC4FF" id="SOLUTIONS"><g transform="translate(0.000000, 5968.000000)"><path d="M587.999929,276 C596.975061,276 602.652683,284.001251 602.888914,284.342851 C603.050192,284.573916 603.033935,284.883237 602.852679,285.096911 C602.563914,285.436045 595.701306,293.391326 587.999929,293.391326 C580.298551,293.391326 573.435945,285.436045 573.147181,285.096911 C572.95094,284.864615 572.95094,284.525481 573.147181,284.294416 C573.435945,283.955281 580.298551,276 587.999929,276 Z M587.999929,277.242238 C581.817324,277.242238 575.95349,283.091917 574.464719,284.695646 C575.95597,286.29814 581.826076,292.149087 587.999929,292.149087 C594.226281,292.149087 600.130142,286.213658 601.567658,284.662133 C600.322628,283.084491 595.22381,277.242238 587.999929,277.242238 Z M587.999998,279.478258 C590.757487,279.478258 592.999984,281.720748 592.999984,284.478272 C592.999984,287.235762 590.757487,289.478258 587.999998,289.478258 C585.242474,289.478258 582.999984,287.235762 582.999984,284.478272 C582.999984,281.720748 585.242474,279.478258 587.999998,279.478258 Z M587.999998,280.728262 C585.932491,280.728262 584.249988,282.410765 584.249988,284.478272 C584.249988,286.545779 585.932491,288.228248 587.999998,288.228248 C590.067505,288.228248 591.749974,286.545779 591.749974,284.478272 C591.749974,282.410765 590.067505,280.728262 587.999998,280.728262 Z" id="Combined-Shape"></path></g></g></g></svg> 