<?xml version="1.0" encoding="UTF-8"?> <svg xmlns="http://www.w3.org/2000/svg" xmlns:xlink="http://www.w3.org/1999/xlink" width="30px" height="20px" viewBox="0 0 30 20" version="1.1"><!-- Generator: Sketch 63.1 (92452) - https://sketch.com --><title>Combined Shape</title><desc>Created with Sketch.</desc><g id="Product" stroke="none" stroke-width="1" fill="none" fill-rule="evenodd"><g transform="translate(-972.000000, -6244.000000)" fill="#3EC4FF" id="SOLUTIONS"><g transform="translate(0.000000, 5968.000000)"><path d="M987,286.697655 C989.721515,286.697655 992.149819,287.992549 993.714479,290.005286 C994.46812,289.665574 995.290215,289.488348 996.125735,289.488348 C999.364425,289.488348 1002,292.117735 1002,295.348817 C1002,295.708268 1001.70758,296 1001.34728,296 C1000.98702,296 1000.6946,295.708268 1000.6946,295.348817 C1000.6946,292.835347 998.645123,290.79068 996.125735,290.79068 C995.546283,290.79068 994.976247,290.899338 994.444202,291.109311 C995.141206,292.359955 995.538469,293.801708 995.538469,295.335529 C995.538469,295.702316 995.244211,295.999964 994.881646,295.999964 C994.519112,295.999964 994.224854,295.702316 994.224854,295.335529 C994.224854,293.917699 993.823843,292.592939 993.130522,291.471217 C993.022974,291.420045 992.930233,291.337802 992.863562,291.229549 C992.809047,291.139805 992.778909,291.042175 992.771198,290.944249 C991.452416,289.173186 989.356225,288.02656 987,288.02656 C984.643775,288.02656 982.547584,289.173186 981.227951,290.9439 C981.220425,291.042153 981.190065,291.139096 981.135538,291.228256 C981.069737,291.335827 980.977712,291.417714 980.872727,291.470735 C980.176632,292.59137 979.775146,293.916859 979.775146,295.335529 C979.775146,295.702316 979.480883,295.999964 979.118317,295.999964 C978.755789,295.999964 978.461531,295.702316 978.461531,295.335529 C978.461531,293.801299 978.859002,292.359188 979.555241,291.109047 C979.024037,290.899338 978.453969,290.79068 977.874514,290.79068 C975.35502,290.79068 973.305452,292.835347 973.305452,295.348817 C973.305452,295.708268 973.013021,296 972.652708,296 C972.292431,296 972,295.708268 972,295.348817 C972,292.117735 974.635689,289.488348 977.874514,289.488348 C978.71007,289.488348 979.532201,289.665574 980.286863,290.004107 C981.850163,287.992549 984.278463,286.697655 987,286.697655 Z M996.230739,281.11627 C998.138737,281.11627 999.692311,282.681848 999.692311,284.604636 C999.692311,286.527423 998.138737,288.093039 996.230739,288.093039 C994.322742,288.093039 992.769205,286.527423 992.769205,284.604636 C992.769205,282.681848 994.322742,281.11627 996.230739,281.11627 Z M977.769224,281.11627 C979.678634,281.11627 981.230795,282.681848 981.230795,284.604636 C981.230795,286.527423 979.677221,288.093039 977.769224,288.093039 C975.861225,288.093039 974.307689,286.527423 974.307689,284.604636 C974.307689,282.681848 975.859851,281.11627 977.769224,281.11627 Z M996.230739,282.511625 C995.085659,282.511625 994.153828,283.45068 994.153828,284.604636 C994.153828,285.758592 995.085659,286.697688 996.230739,286.697688 C997.37582,286.697688 998.307692,285.758592 998.307692,284.604636 C998.307692,283.45068 997.37582,282.511625 996.230739,282.511625 Z M977.769224,282.511625 C976.624144,282.511625 975.692311,283.45068 975.692311,284.604636 C975.692311,285.758592 976.624144,286.697688 977.769224,286.697688 C978.914304,286.697688 979.846176,285.758592 979.846176,284.604636 C979.846176,283.45068 978.914304,282.511625 977.769224,282.511625 Z M986.769213,276 C989.314285,276 991.384592,278.086392 991.384592,280.651154 C991.384592,283.215954 989.314285,285.302309 986.769213,285.302309 C984.224177,285.302309 982.153834,283.215954 982.153834,280.651154 C982.153834,278.086392 984.224177,276 986.769213,276 Z M986.769213,277.328905 C984.952073,277.328905 983.472517,278.81993 983.472517,280.651154 C983.472517,282.482379 984.952073,283.973437 986.769213,283.973437 C988.586352,283.973437 990.065941,282.482379 990.065941,280.651154 C990.065941,278.81993 988.586352,277.328905 986.769213,277.328905 Z" id="Combined-Shape"></path></g></g></g></svg> 