<?xml version="1.0" encoding="UTF-8"?> <svg xmlns="http://www.w3.org/2000/svg" xmlns:xlink="http://www.w3.org/1999/xlink" width="30px" height="32px" viewBox="0 0 30 32" version="1.1"><!-- Generator: Sketch 63.1 (92452) - https://sketch.com --><title>Combined Shape</title><desc>Created with Sketch.</desc><g id="Product" stroke="none" stroke-width="1" fill="none" fill-rule="evenodd"><g transform="translate(-575.000000, -6340.000000)" fill="#3EC4FF" id="SOLUTIONS"><g transform="translate(0.000000, 5968.000000)"><path d="M588.774476,379.846143 C589.354684,379.846143 589.871763,380.273739 589.979662,380.83867 L590.349367,383.447536 C590.836174,383.675065 591.292709,383.939207 591.730828,384.250445 L594.168786,383.276222 C594.739819,383.064372 595.360809,383.281447 595.666052,383.784902 L597.908013,387.636056 C598.210602,388.136917 598.098753,388.788151 597.635655,389.177837 L595.542378,390.809816 C595.568704,391.07922 595.58447,391.347286 595.58447,391.61669 C595.58447,391.882125 595.568704,392.147602 595.543684,392.407817 L597.61724,394.022821 C598.098753,394.426888 598.210602,395.079456 597.902715,395.588131 L595.671304,399.42228 C595.362152,399.93622 594.738513,400.151964 594.184594,399.945373 L591.73213,398.964592 C591.304529,399.265346 590.842737,399.533451 590.351975,399.764906 L589.987531,402.346279 C589.878326,402.94782 589.359941,403.384607 588.775782,403.384607 L584.302447,403.384607 C583.722206,403.384607 583.205164,402.956974 583.097265,402.392044 L582.72756,399.783213 C582.240753,399.555685 581.784218,399.291507 581.346099,398.980269 L578.908104,399.954525 C578.337108,400.166344 577.716116,399.950597 577.410877,399.445811 L575.168917,395.594657 C574.866324,395.093833 574.978138,394.442598 575.441271,394.052908 L577.535852,392.422231 C577.50953,392.152826 577.493758,391.884761 577.493758,391.615356 C577.493758,391.349917 577.50953,391.084445 577.534546,390.824198 L575.460995,389.209226 C574.979479,388.805122 574.867629,388.152591 575.175515,387.643911 L577.405584,383.808431 C577.716116,383.294531 578.339719,383.080046 578.892332,383.285375 L581.34476,384.266156 C581.772361,383.965367 582.23419,383.697297 582.724915,383.46584 L583.089359,380.884436 C583.198564,380.282928 583.716949,379.846143 584.301145,379.846143 L588.774476,379.846143 Z M588.69816,381.153836 L584.301145,381.153836 L583.978793,384.005909 C583.945909,384.232141 583.79722,384.42439 583.586721,384.514584 C582.947275,384.786619 582.361809,385.126615 581.847375,385.525453 C581.661855,385.667976 581.411868,385.703293 581.197414,385.615688 L578.501565,384.538154 L576.347779,388.237601 L578.63709,390.021288 C578.821271,390.163843 578.913361,390.393966 578.883123,390.622829 C578.839689,390.94452 578.809451,391.279288 578.809451,391.615356 C578.809451,391.952759 578.839689,392.290125 578.884429,392.627523 C578.913361,392.856348 578.819966,393.083914 578.63709,393.226433 L576.347779,395.010124 L578.501565,398.709603 L581.197414,397.630735 C581.414517,397.543136 581.663161,397.578448 581.847375,397.720971 C582.385486,398.136821 582.952532,398.46766 583.582766,398.729209 C583.79722,398.818145 583.94721,399.012988 583.980095,399.240517 L584.380073,402.076913 L588.775782,402.076913 L589.09944,399.224807 C589.131018,398.99861 589.281009,398.805064 589.491511,398.714832 C590.130958,398.442834 590.716419,398.102838 591.230858,397.703963 C591.416378,397.56144 591.663716,397.524826 591.880819,397.613765 L594.576666,398.691299 L596.73045,394.991815 L594.441144,393.208128 C594.256963,393.065605 594.164872,392.83545 594.195108,392.606587 C594.238543,392.284895 594.268783,391.950128 594.268783,391.614059 C594.268783,391.276657 594.238543,390.939291 594.193802,390.601893 C594.164872,390.373067 594.258265,390.145539 594.441144,390.002983 L596.73045,388.219292 L594.576666,384.519845 L591.880819,385.599977 C591.666361,385.688911 591.417684,385.653599 591.230858,385.509742 C590.692747,385.093892 590.125701,384.763052 589.495462,384.50154 C589.281009,384.412607 589.131018,384.217759 589.098134,383.99023 L588.69816,381.153836 Z M586.539114,387.692308 C588.71527,387.692308 590.486195,389.452429 590.486195,391.615356 C590.486195,393.778284 588.71527,395.538442 586.539114,395.538442 C584.362959,395.538442 582.592038,393.778284 582.592038,391.615356 C582.592038,389.452429 584.362959,387.692308 586.539114,387.692308 Z M586.539114,388.999969 C585.087896,388.999969 583.90773,390.172995 583.90773,391.615356 C583.90773,393.05775 585.087896,394.230743 586.539114,394.230743 C587.990332,394.230743 589.170503,393.05775 589.170503,391.615356 C589.170503,390.172995 587.990332,388.999969 586.539114,388.999969 Z M599.730654,372 C600.221254,372 600.636491,372.368293 600.674826,372.837405 L600.844095,373.979826 C601.012049,374.061237 601.177344,374.155571 601.342639,374.262832 L602.482536,373.814411 C602.970511,373.654161 603.458485,373.835065 603.679317,374.231817 L604.861519,376.229731 C605.08632,376.63161 604.999048,377.109768 604.657888,377.407017 L603.656831,378.174623 C603.662116,378.270277 603.664774,378.364611 603.664774,378.461548 C603.664774,378.557164 603.660805,378.65022 603.652857,378.741955 L604.635407,379.486342 C604.645971,379.495388 604.657888,379.504434 604.668457,379.51348 C605.01096,379.809409 605.098237,380.28885 604.882694,380.677834 L603.684597,382.705452 C603.420113,383.109962 602.944055,383.267619 602.515587,383.11641 L601.346608,382.658943 C601.195856,382.75588 601.033219,382.847615 600.858634,382.932903 L600.684085,384.124432 C600.60344,384.58578 600.194795,384.923058 599.730654,384.923058 L597.350356,384.923058 C596.878267,384.923058 596.478917,384.593543 596.400898,384.139926 L596.224997,382.943269 C596.057044,382.861821 595.891748,382.767488 595.726458,382.660226 L594.586561,383.108684 C594.101245,383.270218 593.611955,383.087993 593.389817,382.691246 L592.207574,380.69336 C591.982772,380.290133 592.070049,379.810692 592.412552,379.51348 L593.422867,378.739389 C593.418894,378.647617 593.416235,378.555881 593.416235,378.461548 C593.416235,378.367214 593.418894,378.275442 593.422867,378.18499 L592.442981,377.435434 C592.067423,377.140783 591.970893,376.653579 592.199668,376.245225 L593.396412,374.220168 C593.660896,373.814411 594.132985,373.656722 594.564075,373.80921 L595.727769,374.266714 C595.882495,374.168498 596.04779,374.076726 596.222376,373.990156 L596.396925,372.799942 C596.477569,372.337278 596.884867,372 597.350356,372 L599.730654,372 Z M599.406659,373.29231 L597.661123,373.29231 L597.481289,374.517421 C597.448197,374.739707 597.300103,374.928379 597.089845,375.017548 C596.75397,375.159674 596.460405,375.325089 596.217054,375.507313 C596.030625,375.645595 595.783338,375.680496 595.566447,375.593889 L594.384241,375.128659 L593.508829,376.609673 L594.519107,377.382445 C594.702952,377.522041 594.796819,377.74561 594.767742,377.971745 C594.747882,378.131996 594.738624,378.292251 594.738624,378.461548 C594.738624,378.630807 594.747882,378.791063 594.769053,378.951313 C594.798135,379.176165 594.704262,379.399734 594.520455,379.540614 L593.510144,380.313422 L594.3869,381.7944 L595.567795,381.327854 C595.785964,381.242562 596.031936,381.274897 596.218402,381.414462 C596.505335,381.630268 596.783052,381.78792 597.066048,381.893898 C597.288191,381.977907 597.448197,382.173022 597.4826,382.404359 L597.661123,383.630748 L599.418576,383.630748 L599.598409,382.405637 C599.63146,382.183388 599.779595,381.994716 599.989853,381.905547 C600.328387,381.762064 600.614009,381.600531 600.840121,381.423508 C601.027903,381.277464 601.277844,381.242562 601.498676,381.327854 L602.694109,381.7944 L603.568244,380.313422 L602.548674,379.540614 C602.364867,379.401054 602.269647,379.176165 602.298728,378.95003 C602.319899,378.791063 602.342385,378.630807 602.342385,378.461548 C602.342385,378.305179 602.334442,378.157851 602.305361,378.010524 C602.260393,377.772749 602.354265,377.531087 602.548674,377.38376 L603.558953,376.610956 L602.682229,375.129974 L601.501334,375.596487 C601.281818,375.683058 601.035846,375.649476 600.850727,375.509916 C600.563757,375.294074 600.286045,375.136422 600.003081,375.030476 C599.780906,374.946467 599.620895,374.751315 599.587845,374.519983 L599.406659,373.29231 Z M598.540505,375.876927 C599.999112,375.876927 601.185287,377.03612 601.185287,378.461548 C601.185287,379.886938 599.999112,381.046132 598.540505,381.046132 C597.081897,381.046132 595.895722,379.886938 595.895722,378.461548 C595.895722,377.03612 597.081897,375.876927 598.540505,375.876927 Z M598.540505,377.169237 C597.811875,377.169237 597.218116,377.749459 597.218116,378.461548 C597.218116,379.173604 597.811875,379.753858 598.540505,379.753858 C599.269134,379.753858 599.862898,379.173604 599.862898,378.461548 C599.862898,377.749459 599.269134,377.169237 598.540505,377.169237 Z" id="Combined-Shape"></path></g></g></g></svg> 