<?xml version="1.0" encoding="UTF-8"?> <svg xmlns="http://www.w3.org/2000/svg" xmlns:xlink="http://www.w3.org/1999/xlink" width="26px" height="30px" viewBox="0 0 26 30" version="1.1"><!-- Generator: Sketch 63.1 (92452) - https://sketch.com --><title>Combined Shape</title><desc>Created with Sketch.</desc><g id="Product" stroke="none" stroke-width="1" fill="none" fill-rule="evenodd"><g transform="translate(-577.000000, -6162.000000)" fill="#3EC4FF" id="SOLUTIONS"><g transform="translate(0.000000, 5968.000000)"><path d="M588.761919,194 C597.024962,194 600.523803,200.70624 600.523803,203.374993 C600.523803,204.914996 600.372765,205.943751 600.288594,206.393751 C601.191145,207.969988 603,211.238715 603,212.12497 C603,213.041226 602.02809,213.551229 601.317449,213.799964 L601.730957,215.052476 C601.805231,215.277475 601.74706,215.524971 601.581145,215.692479 L600.962116,216.317465 C600.922159,216.357805 600.878067,216.39147 600.831208,216.418459 C600.831055,216.427323 600.829955,216.439377 600.828519,216.45147 C600.787261,216.798756 600.476644,217.042512 600.150248,216.999565 C600.22668,217.115769 600.24975,217.162473 600.373497,217.35319 C600.555519,217.637346 600.833368,218.066737 600.833368,218.899028 C600.833368,220.813628 598.785244,221.162171 597.291648,221.416017 C595.298124,221.755755 593.144444,222.966901 592.929689,223.417761 C592.929689,223.766339 592.667587,224 592.331494,224 C591.99664,224 591.733333,223.667849 591.733333,223.319272 C591.733333,221.844152 595.492249,220.443578 597.095079,220.170799 C599.439239,219.770437 599.620026,219.391544 599.620026,218.899028 C599.620026,218.451924 599.513266,218.286476 599.365217,218.056646 C599.217195,217.825524 599.013372,217.509799 599.013372,217.004612 C599.013372,216.491874 599.222044,216.191287 599.395577,216.030887 C599.566208,215.873931 599.755659,215.799409 599.918248,215.765455 C599.936593,215.644122 599.993765,215.527607 600.086756,215.433723 L600.434688,215.08248 L599.936944,213.573721 C599.881265,213.404973 599.901051,213.219965 599.987709,213.064995 C600.075633,212.911226 600.224214,212.801243 600.397534,212.764969 C601.066107,212.62247 601.707449,212.288722 601.764393,212.116218 C601.718573,211.624988 600.345539,208.976248 599.100004,206.816229 C599.020782,206.676237 598.996013,206.508729 599.034393,206.351242 C599.03562,206.338738 599.28574,205.287491 599.28574,203.374993 C599.28574,201.654978 596.653521,195.250003 588.761919,195.250003 C580.810849,195.250003 578.238098,201.566248 578.238098,204.624996 C578.238098,207.411241 579.971416,210.44622 581.364273,212.884978 C582.385722,214.671232 583.190492,216.082474 583.190492,217.124977 C583.190492,219.488709 579.708948,223.364959 579.311511,223.798733 C579.190188,223.932452 579.024273,223.999966 578.857131,223.999966 C578.70732,223.999966 578.55628,223.944957 578.437414,223.83373 C578.186103,223.599981 578.17,223.204958 578.402751,222.951231 C579.389538,221.869978 581.952393,218.716232 581.952393,217.124977 C581.952393,216.417461 581.146396,215.00498 580.292088,213.508721 C578.826186,210.94248 577,207.744988 577,204.624996 C577,200.213736 580.648653,194 588.761919,194 Z M584.800017,200.956514 C585.517609,200.956514 586.100035,201.443461 586.100035,202.043482 C586.100035,202.643477 585.517609,203.130455 584.800017,203.130455 C584.749255,203.130455 584.699169,203.128018 584.649919,203.123277 L584.258342,203.535628 L584.258342,205.527669 L587.659354,209.112369 C587.770184,209.229182 587.833368,209.388708 587.833368,209.555743 L587.833368,223.371971 C587.833368,223.718641 587.566422,224 587.237513,224 C586.908604,224 586.641693,223.718641 586.641693,223.371971 L586.641693,209.815747 L583.240646,206.232329 C583.129816,206.114234 583.066667,205.954743 583.066667,205.787673 L583.066667,203.275624 C583.066667,203.108589 583.129816,202.949064 583.240646,202.831003 L583.596849,202.455688 C583.534425,202.328549 583.5,202.189356 583.5,202.043482 C583.5,201.443461 584.082391,200.956514 584.800017,200.956514 Z M585.991446,197.913039 C586.154756,197.913039 586.310652,197.978865 586.426053,198.0944 L587.653786,199.336637 C587.893216,199.578863 587.893216,199.972663 587.653786,200.214888 C587.414391,200.457145 587.025188,200.457145 586.785789,200.214888 L585.7373,199.155277 L583.79013,199.155277 L581.6944,201.275765 L581.6944,206.972654 L585.19832,210.518011 C585.312503,210.633542 585.377599,210.791285 585.377599,210.956519 L585.377599,223.378865 C585.377599,223.721728 585.102575,223.999965 584.763713,223.999965 C584.42485,223.999965 584.149866,223.721728 584.149866,223.378865 L584.149866,211.213637 L580.645909,207.668315 C580.531726,207.552784 580.466667,207.395011 580.466667,207.229806 L580.466667,201.018618 C580.466667,200.853414 580.531726,200.69564 580.645909,200.578875 L583.101372,198.0944 C583.216778,197.978865 583.372708,197.913039 583.53598,197.913039 L585.991446,197.913039 Z M591.541947,211.572945 C591.795443,211.815197 591.795443,212.208953 591.541947,212.4512 L590.43319,213.512008 L590.43319,217.966511 L590.856946,218.371601 C590.92997,218.356005 591.005708,218.347798 591.083346,218.347798 C591.681342,218.347798 592.166697,218.834745 592.166697,219.434766 C592.166697,220.03476 591.681342,220.521738 591.083346,220.521738 C590.485325,220.521738 590,220.03476 590,219.434766 L590.006361,219.31638 L590.006361,219.31638 L589.323107,218.663376 C589.202216,218.546615 589.133333,218.38888 589.133333,218.22365 L589.133333,213.254869 C589.133333,213.089669 589.202216,212.931904 589.323107,212.815143 L590.622964,211.572945 C590.876421,211.330732 591.288491,211.330732 591.541947,211.572945 Z M596.341508,214.174824 C596.552858,214.407981 596.552858,214.786963 596.341508,215.020123 L595.417083,216.041127 L595.417083,218.184802 C595.417083,218.514793 595.174316,218.782615 594.875195,218.782615 C594.5761,218.782615 594.333333,218.514793 594.333333,218.184802 L594.333333,215.793636 C594.333333,215.634636 594.390763,215.482788 594.491556,215.370406 L595.575306,214.174824 C595.786629,213.941694 596.130189,213.941694 596.341508,214.174824 Z M597.622533,208.964252 C597.859154,209.206504 597.859154,209.60026 597.622533,209.842508 L592.946853,214.629902 L592.946853,216.857152 C592.946853,217.200008 592.675019,217.478234 592.340078,217.478234 C592.005172,217.478234 591.733333,217.200008 591.733333,216.857152 L591.733333,214.372763 C591.733333,214.207563 591.79764,214.049794 591.910502,213.933033 L596.764585,208.964252 C597.001206,208.722039 597.385907,208.722039 597.622533,208.964252 Z M595.022576,207.668975 C595.259176,207.923319 595.259176,208.336727 595.022576,208.59107 L593.80939,209.895238 C593.695319,210.017864 593.541265,210.086973 593.379887,210.086973 L590.953446,210.086973 C590.792103,210.086973 590.638014,210.017864 590.523978,209.896568 L589.310757,208.592366 C589.074192,208.338022 589.074192,207.92461 589.310757,207.670306 C589.547357,207.415963 589.931928,207.415963 590.168528,207.670306 L591.204589,208.78277 L593.128745,208.78277 L594.16484,207.668975 C594.40144,207.414667 594.786011,207.414667 595.022576,207.668975 Z M586.693714,204.190814 L587.721624,205.303869 L595.898178,205.303869 C596.230402,205.303869 596.5,205.596126 596.5,205.956273 C596.5,206.31642 596.230402,206.608716 595.898178,206.608716 L587.472462,206.608716 C587.312384,206.608716 587.159509,206.539533 587.04637,206.418181 L585.842695,205.113365 C585.607989,204.858896 585.607989,204.445284 585.842695,204.190814 C586.077432,203.93638 586.458978,203.93638 586.693714,204.190814 Z M596.322567,201.582026 C596.559176,201.836369 596.559176,202.249777 596.322567,202.504121 L595.109286,203.808289 C594.995246,203.930915 594.841183,204.000023 594.679796,204.000023 L591.039957,204.000023 C590.705116,204.000023 590.433333,203.707871 590.433333,203.347907 C590.433333,202.987972 590.705116,202.69582 591.039957,202.69582 L594.428641,202.69582 L595.464788,201.582026 C595.701367,201.327718 596.085989,201.327718 596.322567,201.582026 Z M593.466684,198.347821 C594.184275,198.347821 594.766701,198.932159 594.766701,199.652185 C594.766701,200.372175 594.184275,200.956548 593.466684,200.956548 C593.350576,200.956548 593.238008,200.941251 593.130875,200.912557 L592.843395,201.199683 C592.721173,201.322313 592.556116,201.391426 592.383212,201.391426 L590.052537,201.391426 L588.942467,202.505264 C588.816346,202.631777 588.649998,202.695677 588.483611,202.695677 C588.317228,202.695677 588.150845,202.631777 588.023432,202.505264 C587.769967,202.250912 587.769967,201.837487 588.023432,201.583135 L589.323311,200.278884 C589.445494,200.156293 589.610585,200.087176 589.783455,200.087176 L592.114129,200.087176 L592.210884,199.990511 C592.182045,199.8826 592.166667,199.769183 592.166667,199.652185 C592.166667,198.932159 592.749058,198.347821 593.466684,198.347821 Z" id="Combined-Shape"></path></g></g></g></svg> 