<?xml version="1.0" encoding="UTF-8"?> <svg xmlns="http://www.w3.org/2000/svg" xmlns:xlink="http://www.w3.org/1999/xlink" width="31px" height="30px" viewBox="0 0 31 30" version="1.1"><!-- Generator: Sketch 63.1 (92452) - https://sketch.com --><title>Combined Shape</title><desc>Created with Sketch.</desc><g id="Solutions" stroke="none" stroke-width="1" fill="none" fill-rule="evenodd"><g id="Solutions-—-Hover" transform="translate(-973.000000, -1885.000000)" fill="#3EC4FF"><g id="Group-2" transform="translate(-1.000000, 1491.000000)"><path d="M991.446917,394.00013 C991.490673,394.005293 991.529434,394.022794 991.570675,394.036541 C991.601959,394.047804 991.635687,394.052798 991.665695,394.06906 C991.66697,394.0703 991.66821,394.06906 991.669454,394.0703 C991.671965,394.071539 991.673209,394.074054 991.675723,394.075294 C991.706972,394.092795 991.730711,394.117805 991.758241,394.140301 C991.78449,394.161557 991.813228,394.175304 991.835759,394.200314 L991.835759,394.200314 L1004.33856,407.951896 C1004.34731,407.960644 1004.34607,407.974391 1004.35354,407.984414 C1004.35981,407.991892 1004.36481,408.000641 1004.36981,408.00815 C1004.3973,408.045667 1004.42858,408.08067 1004.44733,408.123177 C1004.45859,408.146917 1004.45859,408.174406 1004.46607,408.200691 C1004.47106,408.220672 1004.47609,408.239448 1004.47985,408.259429 C1004.48357,408.279445 1004.49232,408.295702 1004.4936,408.316927 C1004.49484,408.333185 1004.49859,408.346932 1004.49859,408.361949 C1004.49859,408.365704 1004.49983,408.369458 1004.49983,408.375696 C1004.49983,408.411939 1004.48485,408.443218 1004.47858,408.478221 C1004.47234,408.516973 1004.47482,408.55697 1004.45983,408.595727 L1004.45983,408.595727 L1004.45356,408.603236 C1004.44609,408.620737 1004.43606,408.634484 1004.42858,408.650742 C1004.42483,408.65822 1004.42731,408.666968 1004.42359,408.674477 L1004.42359,408.674477 L996.296766,423.676206 L996.296766,423.676206 C996.282984,423.694947 996.269237,423.704971 996.260484,423.717477 C996.235469,423.756234 996.20674,423.788718 996.172973,423.82124 C996.159226,423.834985 996.151717,423.853726 996.135455,423.866232 C996.120464,423.878736 996.102963,423.882492 996.087941,423.892481 C996.077953,423.898751 996.070439,423.909983 996.059207,423.916253 C996.040431,423.926242 996.02045,423.931238 996.000429,423.939988 C995.956674,423.960003 995.911678,423.972509 995.865404,423.981259 C995.846663,423.98498 995.830401,423.995004 995.810385,423.997486 C995.789129,423.99876 995.769144,424 995.747888,424 L995.747888,424 L995.745524,424 L995.700982,423.998273 L995.700982,423.998273 L995.656618,423.99373 L978.777811,421.493471 L978.777811,421.493471 L978.741567,421.475969 C978.707802,421.46846 978.672797,421.46722 978.640273,421.454714 C978.639033,421.45344 978.637792,421.45344 978.636552,421.45344 C978.619016,421.445965 978.606543,421.430945 978.589041,421.422195 C978.539014,421.397184 978.487748,421.372207 978.445232,421.333452 L978.445232,421.333452 L978.437755,421.323426 C978.400236,421.288425 978.376463,421.245914 978.350209,421.203438 C978.333981,421.177187 978.310209,421.154657 978.297702,421.125926 C978.28647,421.100915 978.285195,421.073424 978.277719,421.047141 C978.275204,421.03467 978.262697,421.028399 978.260217,421.015894 L978.260217,421.015894 L974.509367,404.76402 C974.506852,404.751513 974.515603,404.740285 974.513122,404.727778 C974.491864,404.61275 974.493105,404.492764 974.541856,404.376493 C974.56811,404.31524 974.609385,404.267734 974.649386,404.221469 C974.660652,404.207726 974.665648,404.191464 974.678154,404.180201 C974.705648,404.151467 974.740653,404.13521 974.773177,404.11271 L974.773177,404.11271 L974.79192,404.092694 L991.045568,394.091556 C991.066824,394.077813 991.091838,394.074054 991.114338,394.064031 C991.148101,394.049044 991.176835,394.029028 991.211842,394.020279 C991.215596,394.01904 991.218111,394.01656 991.221865,394.015285 C991.228104,394.014046 991.233098,394.015285 991.239367,394.014046 C991.274374,394.006532 991.308137,394.009047 991.343144,394.007777 C991.378147,394.005293 991.41191,393.999024 991.446917,394.00013 Z M984.048992,409.604587 L980.705762,417.961787 L981.332128,417.282988 C981.567203,417.030438 981.962279,417.014176 982.214824,417.247954 C982.468645,417.481763 982.484907,417.876799 982.249862,418.131829 L982.249862,418.131829 L981.417155,419.033174 C981.293366,419.166942 981.127092,419.234464 980.958303,419.234464 C980.80702,419.234464 980.654493,419.179445 980.534458,419.068172 C980.451941,418.991937 980.403192,418.895651 980.371939,418.795641 L980.371939,418.795641 L979.840562,420.125816 C979.885562,420.212078 979.914331,420.30206 979.91681,420.397073 L979.91681,420.397073 L994.276308,422.524826 L986.852129,413.147506 L986.413293,413.623806 C986.290744,413.757574 986.12323,413.825061 985.954441,413.825061 C985.803158,413.825061 985.650596,413.770077 985.530596,413.660044 C985.276776,413.425031 985.260514,413.029995 985.495589,412.776205 L985.495589,412.776205 L986.068207,412.154868 L984.048992,409.604587 Z M989.130127,408.998272 L985.16301,408.998272 L995.57283,422.146018 C995.591602,422.143536 995.605354,422.132272 995.624095,422.131033 C995.651589,422.128517 995.677843,422.138543 995.705368,422.139783 L995.705368,422.139783 L1002.82571,408.998272 L994.926444,408.998272 C994.926444,409.314554 994.696398,409.588329 994.373812,409.619573 C994.352556,409.620848 994.331296,409.622088 994.310036,409.622088 C993.993718,409.622088 993.721156,409.382076 993.689908,409.059525 L993.689908,409.059525 L993.683674,408.998272 L989.465221,408.998272 C989.553972,409.024522 989.637764,409.065759 989.710253,409.132041 C989.964074,409.365819 989.980335,409.76085 989.745291,410.015884 L989.745291,410.015884 L988.912584,410.917225 C988.79007,411.050993 988.622521,411.118515 988.453732,411.118515 C988.302449,411.118515 988.149922,411.063501 988.029887,410.952228 C987.776102,410.71845 987.75984,410.323418 987.994884,410.068384 L987.994884,410.068384 L988.827587,409.167039 C988.911344,409.077022 989.018876,409.027037 989.130127,408.998272 L989.130127,408.998272 Z M995.335333,418.266418 C995.681011,418.24124 995.961633,418.495467 995.99416,418.85955 L995.99416,418.85955 L996.114605,420.183546 C996.147098,420.546351 995.906239,420.872051 995.576227,420.907769 C995.554522,420.910433 995.535273,420.911746 995.514794,420.911746 C995.208848,420.911746 994.947506,420.657557 994.917404,420.314636 L994.917404,420.314636 L994.796959,418.99064 C994.764432,418.627872 995.005326,418.302171 995.335333,418.266418 Z M976.004683,405.681622 L979.029115,418.790647 L983.062518,408.707 L976.004683,405.681622 Z M994.893696,414.738335 C995.19804,414.703933 995.519223,414.966074 995.551711,415.331507 L995.551711,415.331507 L995.673202,416.655501 C995.706881,417.01827 995.466318,417.343971 995.135486,417.379728 C995.115033,417.381039 995.095806,417.382353 995.074127,417.382353 C994.769783,417.382353 994.507536,417.128162 994.47747,416.786557 L994.47747,416.786557 L994.355979,415.462562 C994.3223,415.099794 994.562899,414.774093 994.893696,414.738335 Z M983.940234,414.500137 C984.189136,414.240047 984.607514,414.224654 984.874989,414.462963 C985.143739,414.703809 985.160963,415.108683 984.912057,415.368738 L984.912057,415.368738 L984.030278,416.293756 C983.900502,416.430842 983.723071,416.500041 983.544329,416.500041 C983.384161,416.500041 983.222603,416.443659 983.095523,416.330894 C982.826737,416.090049 982.809514,415.68521 983.05842,415.42512 L983.05842,415.42512 Z M994.452985,410.767151 C994.803476,410.736728 995.08048,410.996142 995.111812,411.360164 L995.111812,411.360164 L995.232257,412.683814 C995.26475,413.046486 995.023891,413.372103 994.693879,413.407847 C994.6734,413.410472 994.652925,413.411822 994.632446,413.411822 C994.3265,413.411822 994.065158,413.157666 994.035056,412.814834 L994.035056,412.814834 L993.914611,411.491219 C993.882084,411.128508 994.122978,410.802895 994.452985,410.767151 Z M991.428141,395.820486 L986.968409,403.997683 L986.995903,403.997683 C987.340989,403.997683 987.62106,404.277727 987.62106,404.622774 C987.62106,404.96779 987.340989,405.247829 986.995903,405.247829 L986.995903,405.247829 L986.286989,405.247829 L984.922941,407.748126 L990.336654,407.748126 C990.346678,407.610603 990.391673,407.474355 990.492931,407.364322 L990.492931,407.364322 L991.325638,406.461737 C991.560683,406.207948 991.955759,406.192961 992.20834,406.425464 C992.462125,406.660513 992.478387,407.055549 992.243342,407.309339 L992.243342,407.309339 L991.838239,407.748126 L993.568634,407.748126 C993.568634,407.431839 993.79868,407.156794 994.121266,407.12555 C994.436344,407.090547 994.771407,407.340583 994.80517,407.685634 L994.80517,407.685634 L994.811403,407.748126 L1000.42891,407.748126 L999.757517,407.496846 C999.434961,407.375585 999.269931,407.015552 999.392445,406.691757 C999.513724,406.367966 999.871317,406.204189 1000.19762,406.325454 L1000.19762,406.325454 L1001.30286,406.739262 C1001.62545,406.860528 1001.79048,407.220561 1001.66796,407.544357 C1001.63544,407.630619 1001.56918,407.686873 1001.50793,407.748126 L1001.50793,407.748126 L1002.46063,407.748126 L992.774573,397.09307 L993.013337,398.124425 C993.084966,398.438889 992.909136,398.756852 992.61827,398.835452 C992.574845,398.847187 992.53037,398.853073 992.486941,398.853073 C992.242738,398.853073 992.021321,398.675893 991.96055,398.408369 L991.96055,398.408369 L991.721755,397.377019 C991.650126,397.062581 991.825956,396.744591 992.116822,396.665987 C992.208532,396.639502 992.301935,396.641816 992.388839,396.667655 L991.634447,395.839262 C991.596925,395.845496 991.559443,395.853005 991.523161,395.853005 C991.488158,395.853005 991.461904,395.826755 991.428141,395.820486 L991.428141,395.820486 Z M989.697781,396.385564 L976.473561,404.522768 L977.91637,405.141586 C977.741347,405.030317 977.618796,404.845284 977.618796,404.622774 C977.618796,404.277727 977.898868,403.997683 978.243954,403.997683 L978.243954,403.997683 L979.494236,403.997683 C979.839292,403.997683 980.119362,404.277727 980.119362,404.622774 C980.119362,404.96779 979.839292,405.247829 979.494236,405.247829 L979.494236,405.247829 L978.243954,405.247829 C978.190172,405.247829 978.142661,405.230332 978.092669,405.217825 L978.092669,405.217825 L983.593895,407.5756 L985.142994,404.735286 C985.135481,404.697773 985.120494,404.662771 985.120494,404.622774 C985.120494,404.356477 985.286768,404.133966 985.520568,404.042709 L985.520568,404.042709 L989.697781,396.385564 Z M996.155599,405.459182 C996.269166,405.115808 996.608716,404.943446 996.90961,405.072039 L996.90961,405.072039 L997.943453,405.510875 C998.246703,405.639473 998.40009,406.021282 998.285358,406.364657 C998.197534,406.629811 997.973911,406.794211 997.73738,406.794211 C997.668306,406.794211 997.599227,406.780949 997.531343,406.751796 L997.531343,406.751796 L996.4975,406.31296 C996.19425,406.184362 996.040867,405.802557 996.155599,405.459182 Z M993.606592,403.285813 C993.969842,403.19374 994.331724,403.412602 994.421886,403.77152 L994.421886,403.77152 L994.499926,404.078444 L994.798596,404.189197 C995.147053,404.318628 995.323267,404.704241 995.191431,405.048524 C995.099931,405.29136 994.8766,405.434141 994.633099,405.460837 C994.549681,405.699697 994.337137,405.881161 994.068052,405.907857 C994.045177,405.910539 994.02097,405.911862 993.999427,405.911862 C993.821846,405.911862 993.659052,405.839792 993.537968,405.725034 L993.537968,405.725034 L993.477425,405.737056 C993.314637,405.737056 993.150507,405.678336 993.021344,405.560926 C992.877385,405.428808 992.810132,405.248667 992.810132,405.068527 C992.675591,404.945788 992.588133,404.774988 992.588133,404.580143 C992.588133,404.265237 992.812801,404.013067 993.110135,403.943679 C993.107466,403.640764 993.298507,403.361894 993.606592,403.285813 Z M990.713152,404.147131 C991.017571,404.147131 991.264642,404.34479 991.264642,404.588305 C991.264642,404.831846 991.017571,405.029505 990.713152,405.029505 L990.713152,405.029505 L989.610199,405.029505 C989.305811,405.029505 989.05874,404.831846 989.05874,404.588305 C989.05874,404.34479 989.305811,404.147131 989.610199,404.147131 L989.610199,404.147131 Z M983.213193,404.147131 C983.517611,404.147131 983.764682,404.34479 983.764682,404.588305 C983.764682,404.831846 983.517611,405.029505 983.213193,405.029505 L983.213193,405.029505 L982.11024,405.029505 C981.805852,405.029505 981.558781,404.831846 981.558781,404.588305 C981.558781,404.34479 981.805852,404.147131 982.11024,404.147131 L982.11024,404.147131 Z M992.695008,400.195005 C993.077082,400.113988 993.475025,400.307734 993.572013,400.622392 L993.572013,400.622392 L993.89036,401.653302 C993.98587,401.96796 993.751425,402.286175 993.363607,402.364832 C993.307181,402.37658 993.246365,402.382434 993.1885,402.382434 C992.862896,402.382434 992.567676,402.205157 992.486641,401.937449 L992.486641,401.937449 L992.168255,400.906535 C992.072745,400.591881 992.307189,400.273662 992.695008,400.195005 Z" id="Combined-Shape"></path></g></g></g></svg> 