<?xml version="1.0" encoding="UTF-8"?> <svg xmlns="http://www.w3.org/2000/svg" xmlns:xlink="http://www.w3.org/1999/xlink" width="18px" height="30px" viewBox="0 0 18 30" version="1.1"><!-- Generator: Sketch 63.1 (92452) - https://sketch.com --><title>Fill 6</title><desc>Created with Sketch.</desc><g id="Solutions" stroke="none" stroke-width="1" fill="none" fill-rule="evenodd"><g id="Solutions-—-Hover" transform="translate(-576.000000, -1579.000000)" fill="#3EC4FF"><g id="Group-2" transform="translate(-1.000000, 1491.000000)"><path d="M593.027942,88 C594.055276,88 594.891318,88.8778163 594.891318,89.9565194 C594.891318,90.8308967 594.342002,91.5733056 593.586757,91.8231849 L593.586972,96.4140291 C593.586972,98.0211576 592.880599,99.5514862 591.648253,100.610941 L589.410568,102.534091 C589.271812,102.653022 589.196143,102.817847 589.196143,102.999982 C589.196143,103.182151 589.273099,103.346943 589.411821,103.465908 L591.648253,105.389023 C592.880599,106.448478 593.586972,107.978811 593.586972,109.58597 L593.586757,114.176811 C594.342002,114.426681 594.891318,115.169066 594.891318,116.043445 C594.891318,117.122149 594.055276,118 593.027942,118 L579.363342,118 C578.33601,118 577.5,117.122149 577.5,116.043445 C577.5,115.348429 577.847054,114.736808 578.368725,114.389641 L578.369564,109.58597 C578.369564,107.978811 579.075937,106.448478 580.308284,105.389023 L582.545968,103.465908 C582.684689,103.346943 582.760394,103.182151 582.760394,102.999982 C582.760394,102.817847 582.683437,102.653022 582.544681,102.534091 L580.308284,100.610941 C579.075937,99.5514862 578.369564,98.0211576 578.369564,96.4140291 L578.368725,91.6103479 C577.847054,91.2631702 577.5,90.6515347 577.5,89.9565194 C577.5,88.8778163 578.33601,88 579.363342,88 L593.027942,88 Z M593.027942,115.391284 L579.363342,115.391284 C579.02051,115.391284 578.742239,115.683469 578.742239,116.043445 C578.742239,116.403456 579.02051,116.695642 579.363342,116.695642 L593.027942,116.695642 C593.370807,116.695642 593.649081,116.403456 593.649081,116.043445 C593.649081,115.683469 593.370807,115.391284 593.027942,115.391284 Z M585.954745,107.52725 L580.27791,109.081423 C580.109462,109.127533 579.866268,109.140929 579.654393,109.121609 C579.639565,109.273666 579.630935,109.429341 579.630935,109.58597 L579.63,114.086 L592.325,114.086 L592.3256,109.58597 C592.3256,109.42354 592.316318,109.262136 592.298067,109.102425 C592.26964,109.098374 592.244559,109.093037 592.220814,109.087081 L585.954745,107.52725 Z M592.325,91.913 L579.63,91.913 L579.630935,96.4140291 C579.630935,97.6642928 580.180892,98.8538435 581.13826,99.6778947 L583.375945,101.60101 C583.787145,101.954153 584.021766,102.463444 584.021766,102.999982 C584.021766,103.536521 583.785892,104.045811 583.375945,104.397724 L581.13826,106.322104 C580.393875,106.962804 579.895793,107.824491 579.71102,108.763895 L585.504294,107.179293 C585.733159,107.116297 586.103263,107.113964 586.344305,107.173626 L592.21815,108.635275 C592.014581,107.745994 591.528546,106.933449 590.818241,106.322104 L588.580591,104.398954 C588.169392,104.045811 587.93477,103.536521 587.93477,102.999982 C587.93477,102.463444 588.170644,101.954153 588.580591,101.60224 L590.818241,99.6778947 C591.775644,98.8538435 592.3256,97.6642928 592.3256,96.4140291 L592.325,91.913 Z M589.057521,97.999988 C589.306347,97.999988 589.531716,98.1515313 589.626585,98.3838311 C589.722638,98.6161264 589.66969,98.8832044 589.493533,99.060865 L586.414281,102.166448 C586.293585,102.286944 586.135924,102.347809 585.978268,102.347809 C585.820607,102.347809 585.662951,102.286944 585.542256,102.166448 L582.462968,99.060865 C582.286846,98.8819696 582.233899,98.6161264 582.329951,98.3838311 C582.424785,98.1515313 582.650189,97.999988 582.899015,97.999988 L589.057521,97.999988 Z M587.570844,99.2422257 L584.385661,99.2422257 L585.978268,100.848419 L587.570844,99.2422257 Z M593.027942,89.3043593 L579.363342,89.3043593 C579.02051,89.3043593 578.742239,89.5965459 578.742239,89.9565194 C578.742239,90.316532 579.02051,90.6087186 579.363342,90.6087186 L593.027942,90.6087186 C593.370807,90.6087186 593.649081,90.316532 593.649081,89.9565194 C593.649081,89.5965459 593.370807,89.3043593 593.027942,89.3043593 Z" id="Combined-Shape"></path></g></g></g></svg> 