<?xml version="1.0" encoding="UTF-8"?> <svg xmlns="http://www.w3.org/2000/svg" xmlns:xlink="http://www.w3.org/1999/xlink" width="32px" height="30px" viewBox="0 0 32 30" version="1.1"><!-- Generator: Sketch 63.1 (92452) - https://sketch.com --><title>Combined Shape</title><desc>Created with Sketch.</desc><g id="Solutions" stroke="none" stroke-width="1" fill="none" fill-rule="evenodd"><g id="Solutions-—-Hover" transform="translate(-973.000000, -1681.000000)" fill="#3EC4FF"><g id="Group-2" transform="translate(-1.000000, 1491.000000)"><path d="M991.291653,190 C992.776542,190 995.141839,192.383324 995.141839,195.206616 C995.141839,196.987269 994.51299,199.20398 994.121558,200.413201 L1002.20055,200.413201 C1003.96912,200.413201 1005.40909,201.873686 1005.40909,203.667356 C1005.40909,204.488687 1005.10749,205.259263 1004.57487,205.847626 C1005.10236,206.385194 1005.40909,207.115416 1005.40909,207.897724 C1005.40909,209.026241 1004.77122,210.016799 1003.82408,210.500998 C1004.02171,210.900616 1004.12568,211.341879 1004.12568,211.802651 C1004.12568,212.931204 1003.48782,213.921762 1002.54067,214.405962 C1002.7383,214.805579 1002.84228,215.246842 1002.84228,215.707615 C1002.84228,217.321655 1001.5473,218.636329 999.954619,218.636329 L988.08312,218.636329 C987.264304,218.636329 985.984513,218.389869 984.953761,217.91745 L984.954533,219.353127 C984.954533,219.7102 984.661833,220 984.301138,220 L975.153392,220 C974.792737,220 974.5,219.7102 974.5,219.353127 L974.5,203.828638 C974.5,203.471602 974.792737,203.181802 975.153392,203.181802 L984.301138,203.181802 C984.661833,203.181802 984.954533,203.471602 984.954533,203.828638 L984.954,203.874 L985.028642,203.837842 L988.724842,195.714239 L988.724842,191.301653 C988.724842,191.103799 988.813401,190.917676 988.96611,190.792708 C989.005896,190.760176 989.958168,190 991.291653,190 Z M983.647712,204.475514 L975.806821,204.475514 L975.806821,218.70629 L983.647712,218.70629 L983.646148,216.949357 C983.572482,216.781248 983.572482,216.587774 983.646148,216.419665 L983.647,205.229 L983.620052,205.161043 C983.572868,205.007888 983.584857,204.846407 983.646098,204.705781 L983.647712,204.475514 Z M991.291653,191.301653 C990.73849,191.301653 990.275195,191.506003 990.00825,191.655721 L990.00825,195.857429 C990.00825,195.951152 989.9877,196.044879 989.949186,196.129497 L986.099004,204.590196 C986.037395,204.724273 985.933418,204.833641 985.8038,204.899996 L984.954,205.33 L984.954011,216.442557 C985.706544,216.953132 987.166172,217.336002 988.081847,217.336002 L999.953347,217.336002 C1000.83761,217.336002 1001.55759,216.605742 1001.55759,215.708906 C1001.55759,215.261151 1001.3779,214.842025 1001.05066,214.528311 C1000.86838,214.355207 1000.80423,214.089667 1000.88253,213.850167 C1000.96079,213.609344 1001.16998,213.438858 1001.41769,213.410199 C1002.23008,213.31389 1002.84228,212.622691 1002.84228,211.802651 C1002.84228,211.354897 1002.66258,210.935766 1002.33533,210.622057 C1002.15309,210.448953 1002.0889,210.183412 1002.16721,209.943912 C1002.24547,209.70309 1002.4547,209.532604 1002.70237,209.503945 C1003.51349,209.408927 1004.12568,208.717764 1004.12568,207.897724 C1004.12568,207.291143 1003.78942,206.739221 1003.24782,206.45808 C1003.04121,206.350044 1002.90774,206.139167 1002.90003,205.904872 C1002.89105,205.670577 1003.00655,205.448009 1003.20418,205.325654 C1003.78044,204.963773 1004.12568,204.344205 1004.12568,203.667356 C1004.12568,202.590889 1003.26193,201.714854 1002.20055,201.714854 L993.216746,201.714854 C993.004973,201.714854 992.808619,201.609436 992.687987,201.433714 C992.567351,201.257991 992.541674,201.032805 992.616119,200.83366 C992.62896,200.798505 993.858431,197.496218 993.858431,195.206616 C993.858431,193.075814 991.994947,191.301653 991.291653,191.301653 Z" id="Combined-Shape"></path></g></g></g></svg> 