<?xml version="1.0" encoding="UTF-8"?> <svg xmlns="http://www.w3.org/2000/svg" xmlns:xlink="http://www.w3.org/1999/xlink" width="24px" height="25px" viewBox="0 0 24 25" version="1.1"><!-- Generator: Sketch 63.1 (92452) - https://sketch.com --><title>Fill 1</title><desc>Created with Sketch.</desc><g id="Solutions" stroke="none" stroke-width="1" fill="none" fill-rule="evenodd"><g id="Solutions-—-Hover" transform="translate(-234.000000, -3461.000000)" fill="#3EC4FF"><g id="Group-3" transform="translate(119.000000, 3358.000000)"><g id="Group" transform="translate(1.000000, 92.000000)"><path d="M119.500461,21.1481246 C116.833251,21.1481246 114,22.0369399 114,23.6846952 L114,32.8163991 C114,34.4641551 116.833251,35.3529692 119.500461,35.3529692 C122.167698,35.3529692 125.000919,34.4641551 125.000919,32.8163991 L125.000919,23.6846952 C125.000919,22.0369399 122.167698,21.1481246 119.500461,21.1481246 Z M124.000835,32.8163991 C124.000835,33.4373585 122.247699,34.3383362 119.500461,34.3383362 C116.75322,34.3383362 115.000086,33.4373585 115.000086,32.8163991 L115.000086,31.2731282 C116.06116,31.9519382 117.812312,32.3090687 119.500461,32.3090687 C121.188611,32.3090687 122.93976,31.9519382 124.000835,31.2731282 L124.000835,32.8163991 Z M124.000835,29.7724999 C124.000835,30.3934576 122.247699,31.2944352 119.500461,31.2944352 C116.75322,31.2944352 115.000086,30.3934576 115.000086,29.7724999 L115.000086,28.2292293 C116.06116,28.9080376 117.812312,29.2651682 119.500461,29.2651682 C121.188611,29.2651682 122.93976,28.9080376 124.000835,28.2292293 L124.000835,29.7724999 Z M124.000835,26.7285976 C124.000835,27.3495587 122.247699,28.2505611 119.500461,28.2505611 C116.75322,28.2505611 115.000086,27.3495587 115.000086,26.7285976 L115.000086,25.1853552 C116.06116,25.8641352 117.812312,26.221294 119.500461,26.221294 C121.188611,26.221294 122.93976,25.8641352 124.000835,25.1853552 L124.000835,26.7285976 Z M119.500461,25.2066623 C116.75322,25.2066623 115.000086,24.3056564 115.000086,23.6846952 C115.000086,23.0637658 116.75322,22.1627599 119.500461,22.1627599 C122.247699,22.1627599 124.000835,23.0637658 124.000835,23.6846952 C124.000835,24.3056564 122.247699,25.2066623 119.500461,25.2066623 Z M126.501035,25.4501634 C126.225032,25.4501634 126.001006,25.677447 126.001006,25.9574952 C126.001006,26.2375117 126.225032,26.4647952 126.501035,26.4647952 C128.982251,26.4647952 131.002429,24.4162646 131.002429,21.8989576 C131.002429,19.381654 128.983267,17.3331199 126.502055,17.3331199 C124.810902,17.3331199 123.278788,18.2939599 122.503722,19.8402764 C122.378714,20.0898764 122.476715,20.3952799 122.722733,20.5221058 C122.968751,20.6468917 123.269778,20.550514 123.394786,20.2999082 C123.997832,19.0955423 125.187935,18.3477552 126.501035,18.3477552 C128.431207,18.3477552 130.001351,19.9407093 130.001351,21.8989576 C130.001351,23.8572093 128.431207,25.4501634 126.501035,25.4501634 Z M137.907018,20.4358505 C137.832,19.8443317 137.500962,19.3298987 137.000933,19.0244952 C136.507878,18.7221376 135.914838,18.6673646 135.367793,18.8763623 C134.937762,19.0407376 134.444704,18.8144882 134.246696,18.365007 C134.013681,17.8353623 133.725667,17.328034 133.392614,16.8582799 C133.103605,16.4503752 133.157619,15.9146634 133.517651,15.6143211 C133.962671,15.2429846 134.210704,14.6940517 134.199706,14.109634 C134.187692,13.5160752 133.91166,12.9681764 133.442636,12.6079682 C132.678561,12.0205046 131.844494,11.5314587 130.963433,11.1550364 C130.41738,10.9216576 129.809319,10.9531117 129.296284,11.2402576 C128.793251,11.5223176 128.449204,12.0144093 128.355201,12.5897105 C128.2782,13.058487 127.843154,13.3689517 127.350127,13.3192399 C126.790073,13.2593776 126.208027,13.2593776 125.647976,13.3192399 C125.144944,13.3618505 124.720892,13.0574493 124.643894,12.5887046 C124.5489,12.0134034 124.205845,11.5213117 123.70182,11.2402576 C123.186769,10.9531117 122.579732,10.9226634 122.035662,11.1550364 C121.155593,11.5314587 120.320531,12.0205046 119.556459,12.6079682 C119.088427,12.9681764 118.812395,13.5150693 118.800409,14.1086282 C118.789412,14.6930423 119.038433,15.2419505 119.483456,15.6143211 C119.843485,15.9146634 119.897502,16.4483599 119.607469,16.8572458 C119.274448,17.328034 118.986431,17.8353623 118.753394,18.3639729 C118.55538,18.813454 118.061333,19.0386976 117.6213,18.8713011 C117.149269,18.6927234 116.637225,18.711987 116.181179,18.9250682 C115.72315,19.1401646 115.362128,19.5409399 115.192089,20.0249246 C115.098086,20.2887234 115.234117,20.5789187 115.494135,20.6732846 C115.753134,20.7676505 116.04016,20.630674 116.133172,20.3668717 C116.214195,20.1375446 116.384206,19.9478105 116.601205,19.8453376 C116.812224,19.7449082 117.05025,19.7357634 117.280285,19.8250399 C118.204362,20.1761034 119.251436,19.7164717 119.666474,18.7779446 C119.871487,18.3112117 120.125524,17.8637705 120.419552,17.4487929 C121.019591,16.6005482 120.890587,15.4743234 120.118525,14.8290129 C119.91048,14.656527 119.795478,14.4008352 119.800493,14.1288976 C119.805484,13.847847 119.936499,13.587094 120.160525,13.4156176 C120.858565,12.8788717 121.619633,12.4324364 122.423718,12.0895117 C122.685724,11.9768882 122.975753,11.9920964 123.219787,12.1290729 C123.457786,12.261994 123.612805,12.4841917 123.657808,12.7561293 C123.822829,13.7616199 124.724891,14.4383846 125.752976,14.3277764 C126.24402,14.2760246 126.757059,14.2760246 127.247111,14.3277764 C128.282195,14.4373505 129.177282,13.7626258 129.342279,12.7561293 C129.387282,12.4851976 129.543293,12.261994 129.780328,12.1290729 C130.024334,11.9910905 130.313372,11.9768882 130.576394,12.0895117 C131.380454,12.4334705 132.142514,12.8799058 132.839591,13.4156176 C133.063588,13.5880999 133.195599,13.847847 133.200611,14.1288976 C133.206621,14.4018411 133.090599,14.6575364 132.882582,14.8310246 C132.111512,15.4753329 131.981513,16.6015823 132.582547,17.4497987 C132.876575,17.8647764 133.129592,18.3122458 133.335625,18.7789787 C133.750662,19.7175058 134.798753,20.1781434 135.73182,19.8220187 C135.983845,19.7256129 136.258853,19.7530152 136.487898,19.8920034 C136.724905,20.0371152 136.880915,20.2826564 136.916933,20.5647164 C136.973926,21.0081023 137.001925,21.4565776 137.001925,21.8979517 C137.001925,22.3392976 136.973926,22.7877729 136.916933,23.2311587 C136.881907,23.5142529 136.724905,23.7587882 136.487898,23.9038717 C136.257861,24.043894 135.982853,24.0692564 135.720822,23.9698293 C134.796745,23.6187658 133.749667,24.079407 133.335625,25.0179305 C133.129592,25.4856729 132.875584,25.9321046 132.581555,26.3481199 C131.981513,27.1963364 132.11052,28.3215799 132.882582,28.966894 C133.090599,29.1393764 133.205601,29.394034 133.200611,29.6669776 C133.195599,29.9490376 133.064608,30.2087846 132.840582,30.381267 C132.142514,30.9180129 131.381446,31.3644446 130.577386,31.7074011 C130.315359,31.8179811 130.026346,31.8037787 129.78132,31.6678364 C129.543293,31.5349152 129.387282,31.3126929 129.343299,31.0407834 C129.178274,30.0352929 128.274205,29.3595305 127.247111,29.4691329 C127.002085,29.4955011 126.75306,29.5086976 126.501035,29.5086976 C126.225032,29.5086976 126.001006,29.7359846 126.001006,30.0160011 C126.001006,30.2960458 126.225032,30.5233293 126.501035,30.5233293 C126.789081,30.5233293 127.073104,30.5080929 127.352111,30.4776729 C127.856164,30.4309787 128.280184,30.7394317 128.357213,31.2072023 C128.451215,31.7824717 128.794242,32.2745666 129.298295,32.556652 C129.584301,32.7159393 129.899329,32.797107 130.216366,32.797107 C130.468391,32.797107 130.723394,32.7463876 130.964425,32.6439146 C131.844494,32.2674644 132.679556,31.7784199 133.443628,31.1909564 C133.91268,30.8297423 134.187692,30.2818434 134.199706,29.6882846 C134.210704,29.103867 133.961679,28.5559682 133.516631,28.1835693 C133.156599,27.8832552 133.102613,27.3485493 133.391622,26.9406729 C133.725667,26.4698846 134.013681,25.9625529 134.246696,25.4329117 C134.445724,24.9824246 134.942749,24.7591929 135.378787,24.9256082 C135.917841,25.130554 136.508898,25.074747 137.001925,24.7733952 C137.501982,24.4679917 137.832,23.953587 137.907018,23.3620682 C137.969026,22.8760434 138,22.3839517 138,21.8989576 C138,21.413967 137.969026,20.9218752 137.907018,20.4358505 Z" id="Fill-1"></path></g></g></g></g></svg> 