<?xml version="1.0" encoding="UTF-8"?> <svg xmlns="http://www.w3.org/2000/svg" xmlns:xlink="http://www.w3.org/1999/xlink" width="24px" height="26px" viewBox="0 0 24 26" version="1.1"><!-- Generator: Sketch 63.1 (92452) - https://sketch.com --><title>Combined Shape</title><desc>Created with Sketch.</desc><g id="Solutions" stroke="none" stroke-width="1" fill="none" fill-rule="evenodd"><g id="Solutions-—-Hover" transform="translate(-801.000000, -3461.000000)" fill="#3EC4FF"><g id="Group-3" transform="translate(119.000000, 3358.000000)"><g id="Group" transform="translate(1.000000, 92.000000)"><path d="M692.01958,17.276914 C692.483747,17.276914 692.897411,17.6189911 692.983729,18.0709363 L693.279494,20.1580287 C693.668939,20.3400518 694.034167,20.551366 694.384663,20.8003564 L696.335029,20.0209778 C696.791855,19.8514974 697.288647,20.0251575 697.532841,20.4279212 L699.326411,23.5088448 C699.568482,23.9095334 699.479002,24.430521 699.108524,24.7422695 L697.433903,26.0478528 C697.454963,26.2633762 697.467576,26.4778288 697.467576,26.6933522 C697.467576,26.9057002 697.454963,27.1180814 697.434947,27.3262534 L699.093792,28.6182565 C699.479002,28.9415102 699.568482,29.4635648 699.322172,29.8705046 L697.537043,32.9378238 C697.289722,33.3489761 696.790811,33.5215713 696.347675,33.3562987 L694.385704,32.5716737 C694.043623,32.8122767 693.67419,33.0267607 693.28158,33.2119249 L692.990025,35.2770229 C692.902661,35.758256 692.487953,36.1076855 692.020625,36.1076855 L688.441957,36.1076855 C687.977765,36.1076855 687.564131,35.7655788 687.477812,35.3136351 L687.182048,33.2265704 C686.792602,33.0445484 686.427374,32.8332058 686.076879,32.584215 L684.126483,33.3636198 C683.669687,33.533075 683.172893,33.360478 682.928702,32.9566487 L681.135133,29.8757255 C680.893059,29.4750664 680.98251,28.9540788 681.353017,28.6423266 L683.028681,27.3377845 C683.007624,27.1222611 682.995007,26.9078085 682.995007,26.6922851 C682.995007,26.4799334 683.007624,26.2675559 683.027637,26.059358 L681.368796,24.7673808 C680.983583,24.4440976 680.894104,23.9220725 681.140412,23.5151291 L682.924467,20.4467446 C683.172893,20.0356252 683.671775,19.8640365 684.113866,20.0282996 L686.075808,20.812925 C686.417889,20.5722939 686.787352,20.3578376 687.179932,20.1726723 L687.471487,18.1075492 C687.558851,17.6263425 687.973559,17.276914 688.440916,17.276914 L692.01958,17.276914 Z M691.958528,18.3230689 L688.440916,18.3230689 L688.183035,20.6047271 C688.156727,20.7857127 688.037776,20.9395119 687.869377,21.0116668 C687.35782,21.2292948 686.889448,21.501292 686.4779,21.8203623 C686.329484,21.9343806 686.129494,21.9626341 685.957931,21.8925505 L683.801252,21.0305234 L682.078224,23.990081 L683.909672,25.4170303 C684.057017,25.5310745 684.130689,25.7151727 684.106499,25.8982629 C684.071751,26.1556164 684.047561,26.4234301 684.047561,26.6922851 C684.047561,26.9622072 684.071751,27.2320997 684.107543,27.5020181 C684.130689,27.6850788 684.055972,27.8671314 683.909672,27.981146 L682.078224,29.4080991 L683.801252,32.3676825 L685.957931,31.5045884 C686.131614,31.4345085 686.330529,31.4627583 686.4779,31.5767766 C686.908389,31.9094567 687.362025,32.1741283 687.866213,32.3833674 C688.037776,32.4545158 688.157768,32.6103901 688.184076,32.7924139 L688.504058,35.0615302 L692.020625,35.0615302 L692.279552,32.7798454 C692.304815,32.5988878 692.424807,32.4440511 692.593209,32.3718659 C693.104767,32.1542674 693.573135,31.8822703 693.984687,31.5631704 C694.133102,31.4491521 694.330973,31.4198611 694.504655,31.4910118 L696.661333,32.3530388 L698.38436,29.3934517 L696.552915,27.9665024 C696.40557,27.8524841 696.331898,27.66836 696.356086,27.4852698 C696.390834,27.2279164 696.415026,26.9601026 696.415026,26.6912476 C696.415026,26.4213255 696.390834,26.151433 696.355041,25.8815146 C696.331898,25.6984539 696.406612,25.5164308 696.552915,25.4023867 L698.38436,23.9754336 L696.661333,21.0158761 L694.504655,21.8799819 C694.333089,21.9511289 694.134147,21.9228791 693.984687,21.8077937 C693.554197,21.4751135 693.100561,21.2104419 692.59637,21.0012324 C692.424807,20.9300854 692.304815,20.7742075 692.278507,20.5921844 L691.958528,18.3230689 Z M690.231291,23.5538466 C691.972216,23.5538466 693.388956,24.961943 693.388956,26.6922851 C693.388956,28.4226272 691.972216,29.8307532 690.231291,29.8307532 C688.490367,29.8307532 687.073631,28.4226272 687.073631,26.6922851 C687.073631,24.961943 688.490367,23.5538466 690.231291,23.5538466 Z M690.231291,24.5999755 C689.070317,24.5999755 688.126184,25.5383963 688.126184,26.6922851 C688.126184,27.8461998 689.070317,28.7845947 690.231291,28.7845947 C691.392266,28.7845947 692.336402,27.8461998 692.336402,26.6922851 C692.336402,25.5383963 691.392266,24.5999755 690.231291,24.5999755 Z M700.784523,11 C701.177004,11 701.509193,11.2946347 701.539861,11.669924 L701.675276,12.5838611 C701.809639,12.6489896 701.941875,12.7244566 702.074111,12.8102657 L702.986029,12.451529 C703.376408,12.3233286 703.766788,12.468052 703.943454,12.7854534 L704.889215,14.3837847 C705.069056,14.7052882 704.999238,15.0878144 704.72631,15.3256135 L703.925465,15.9396987 C703.929693,16.0162217 703.931819,16.0916887 703.931819,16.1692381 C703.931819,16.2457315 703.928644,16.3201757 703.922286,16.3935639 L704.708325,16.9890732 C704.716777,16.9963101 704.72631,17.0035471 704.734766,17.010784 C705.008768,17.247527 705.078589,17.6310797 704.906155,17.9422669 L703.947678,19.5643618 C703.73609,19.88797 703.355244,20.0140953 703.012469,19.8931281 L702.077287,19.5271545 C701.956685,19.6047039 701.826576,19.6780921 701.686907,19.7463222 L701.547268,20.6995454 C701.482752,21.0686243 701.155836,21.3384467 700.784523,21.3384467 L698.880284,21.3384467 C698.502614,21.3384467 698.183133,21.0748347 698.120719,20.7119405 L697.979998,19.7546151 C697.845635,19.689457 697.713399,19.6139901 697.581166,19.528181 L696.669249,19.8869472 C696.280996,20.0161741 695.889564,19.8703946 695.711853,19.5529969 L694.766059,17.9546878 C694.586218,17.6321062 694.656039,17.2485535 694.930042,17.010784 L695.738294,16.391511 C695.735115,16.3180933 695.732988,16.2447051 695.732988,16.1692381 C695.732988,16.0937711 695.735115,16.0203534 695.738294,15.9479917 L694.954385,15.348347 C694.653939,15.1126267 694.576714,14.7228636 694.759734,14.3961797 L695.71713,12.7761341 C695.928717,12.451529 696.306388,12.3253778 696.65126,12.4473678 L697.582215,12.8133709 C697.705996,12.7347987 697.838232,12.661381 697.977901,12.5921245 L698.11754,11.6399535 C698.182055,11.2698224 698.507894,11 698.880284,11 L700.784523,11 Z M700.525327,12.0338484 L699.128898,12.0338484 L698.985031,13.0139368 C698.958558,13.1917655 698.840083,13.3427031 698.671876,13.4140384 C698.403176,13.5277391 698.168324,13.6600713 697.973643,13.8058507 C697.8245,13.9164758 697.62667,13.944397 697.453158,13.8751109 L696.507393,13.5029269 L695.807063,14.6877387 L696.615286,15.3059557 C696.762361,15.417633 696.837455,15.5964882 696.814194,15.7773962 C696.798306,15.9055966 696.790899,16.0338008 696.790899,16.1692381 C696.790899,16.3046459 696.798306,16.43285 696.815242,16.5610505 C696.838508,16.7409321 696.76341,16.9197872 696.616364,17.032491 L695.808115,17.6507375 L696.50952,18.8355198 L697.454236,18.4622834 C697.628771,18.3940497 697.825549,18.4199179 697.974721,18.5315695 C698.204268,18.7042141 698.426441,18.8303358 698.652839,18.9151185 C698.830553,18.9823257 698.958558,19.1384178 698.98608,19.3234871 L699.128898,20.3045983 L700.534861,20.3045983 L700.678727,19.3245099 C700.705168,19.1467107 700.823676,18.9957731 700.991883,18.9244378 C701.262709,18.8096515 701.491207,18.6804246 701.672097,18.5388064 C701.822322,18.4219709 702.022275,18.3940497 702.198941,18.4622834 L703.155288,18.8355198 L703.854595,17.6507375 L703.038939,17.032491 C702.891893,16.9208432 702.815718,16.7409321 702.838983,16.560024 C702.855919,16.43285 702.873908,16.3046459 702.873908,16.1692381 C702.873908,16.0441429 702.867554,15.9262809 702.844289,15.8084189 C702.808314,15.6181989 702.883412,15.4248699 703.038939,15.307008 L703.847162,14.6887652 L703.145784,13.5039792 L702.201067,13.8771897 C702.025454,13.9464462 701.828677,13.919581 701.680582,13.8079332 C701.451006,13.635259 701.228836,13.5091373 701.002465,13.4243805 C700.824725,13.3571732 700.696716,13.2010516 700.670276,13.015986 L700.525327,12.0338484 Z M699.832404,14.1015414 C700.999289,14.1015414 701.94823,15.0288964 701.94823,16.1692381 C701.94823,17.3095503 700.999289,18.2369053 699.832404,18.2369053 C698.665518,18.2369053 697.716578,17.3095503 697.716578,16.1692381 C697.716578,15.0288964 698.665518,14.1015414 699.832404,14.1015414 Z M699.832404,15.1353897 C699.2495,15.1353897 698.774493,15.5995675 698.774493,16.1692381 C698.774493,16.7388828 699.2495,17.2030865 699.832404,17.2030865 C700.415307,17.2030865 700.890318,16.7388828 700.890318,16.1692381 C700.890318,15.5995675 700.415307,15.1353897 699.832404,15.1353897 Z" id="Combined-Shape"></path></g></g></g></g></svg> 