<?xml version="1.0" encoding="UTF-8"?>
<svg width="25px" height="30px" viewBox="0 0 25 30" version="1.1" xmlns="http://www.w3.org/2000/svg" xmlns:xlink="http://www.w3.org/1999/xlink">
    <!-- Generator: Sketch 63.1 (92452) - https://sketch.com -->
    <title>Combined Shape</title>
    <desc>Created with Sketch.</desc>
    <g id="Developers" stroke="none" stroke-width="1" fill="none" fill-rule="evenodd">
        <g transform="translate(-1030.000000, -6321.000000)" fill="#3EC4FF" id="TECHNOLOGY">
            <g transform="translate(58.000000, 5439.000000)">
                <path d="M987.131596,882 C988.461987,882 989.543895,883.139996 989.543895,884.541817 L989.542964,884.948563 C989.930444,884.732484 990.380267,884.608696 990.859667,884.608696 C992.311,884.608696 993.491263,885.743235 993.491263,887.138348 L993.490997,888.555693 C993.799741,888.419543 994.141161,888.343883 994.500026,888.343883 C995.878754,888.343883 997,889.460696 997,890.834009 L997,903.907113 C997,908.369422 993.355013,912 988.874996,912 L985.273754,912 C981.975022,912 978.916268,910.212092 977.091259,907.217717 L972.303743,899.489643 C972.093761,899.093709 972,898.707761 972,898.304348 C972,896.931035 973.121245,895.814222 974.5,895.814222 C975.283752,895.814222 976.007493,896.170322 976.485013,896.790365 L979.622509,899.764809 C979.926254,900.100974 980.25125,900.006348 980.347491,899.968983 C980.44125,899.934126 980.749991,899.784739 980.749991,899.387539 L980.749991,887.098822 C980.749991,885.725509 981.871268,884.608696 983.249996,884.608696 C983.798895,884.608696 984.306981,884.785701 984.719753,885.085429 L984.719298,884.541817 C984.719298,883.139996 985.801206,882 987.131596,882 Z M987.131596,883.270909 C986.467018,883.270909 985.925447,883.840261 985.925447,884.541817 L985.925447,897.886304 C985.925447,898.237083 985.655259,898.521774 985.322355,898.521774 C984.989482,898.521774 984.719298,898.237083 984.719298,897.886304 L984.718864,887.571882 C984.584926,887.457682 984.5,887.288075 984.5,887.098822 C984.5,886.41153 983.938741,885.853757 983.249996,885.853757 C982.561254,885.853757 982,886.41153 982,887.098822 L982,899.387539 C982,900.169452 981.525022,900.855474 980.791254,901.133143 C980.058768,901.410778 979.246259,901.212809 978.72375,900.627626 L975.557493,897.619561 C974.718738,896.566257 973.250004,897.226135 973.250004,898.304348 C973.250004,898.506057 973.297504,898.697778 973.388751,898.875843 L978.155018,906.567822 C979.754987,909.19114 982.414996,910.754939 985.273754,910.754939 L988.874996,910.754939 C992.666272,910.754939 995.749996,907.682132 995.749996,903.907113 L995.749996,890.834009 C995.749996,890.146717 995.188772,889.588943 994.500026,889.588943 C994.086133,889.588943 993.718296,889.790353 993.490619,890.100245 L993.491263,897.889343 C993.491263,898.238409 993.196518,898.521739 992.833346,898.521739 C992.470215,898.521739 992.175465,898.238409 992.175465,897.889343 L992.174269,891.265108 C992.066369,891.153215 992.000022,891.001279 992.000022,890.834009 C992.000022,890.510434 992.062268,890.201098 992.175462,889.917255 L992.175465,887.138348 C992.175465,886.440148 991.584662,885.873522 990.859667,885.873522 C990.134671,885.873522 989.543868,886.440148 989.543868,887.138348 L989.543895,897.886304 C989.543895,898.237083 989.273706,898.521774 988.940803,898.521774 C988.607899,898.521774 988.337746,898.237083 988.337746,897.886304 L988.336962,887.486797 C988.268151,887.386866 988.22807,887.267081 988.22807,887.138348 C988.22807,886.888185 988.26602,886.6464 988.336677,886.418032 L988.337746,884.541817 C988.337746,883.840261 987.796175,883.270909 987.131596,883.270909 Z" id="Combined-Shape"></path>
            </g>
        </g>
    </g>
</svg>