<?xml version="1.0" encoding="UTF-8"?>
<svg width="41px" height="42px" viewBox="0 0 41 42" version="1.1" xmlns="http://www.w3.org/2000/svg" xmlns:xlink="http://www.w3.org/1999/xlink">
    <!-- Generator: Sketch 63.1 (92452) - https://sketch.com -->
    <title>Shape</title>
    <desc>Created with Sketch.</desc>
    <g id="Developers" stroke="none" stroke-width="1" fill="none" fill-rule="evenodd">
        <g transform="translate(-601.000000, -4564.000000)" fill="#3EC4FF" fill-rule="nonzero" id="SERVICES">
            <g transform="translate(120.000000, 4558.000000)">
                <g id="Card-/-Benefit-Copy" transform="translate(409.000000, 6.000000)">
                    <g id="ADAP-Website-Icons-02" transform="translate(72.000000, 0.000000)">
                        <path d="M32.5689084,12.9134143 C30.0459927,12.9134123 27.6699289,14.0972553 26.1539168,16.1096007 L16.5539223,10.0045255 C16.7206545,9.35929831 16.8052941,8.69568689 16.8058434,8.02935413 C16.807279,3.80299338 13.5241076,0.299604394 9.29814725,0.0180818542 C5.07218691,-0.263440686 1.3514657,2.7733671 0.789896859,6.96241322 C0.228328016,11.1514593 3.01833347,15.0573644 7.16986022,15.8941274 L7.16986022,25.9854575 C3.90647259,26.6129541 1.35866868,29.1665227 0.744162999,32.4256936 C0.129657323,35.6848645 1.57323753,38.9877981 4.38494919,40.755868 C7.19666084,42.5239379 10.8055298,42.3981022 13.486709,40.4385038 C16.1678881,38.4789054 17.3769105,35.0834798 16.5359279,31.8750594 L26.1359224,25.7699843 C28.411533,28.7835941 32.483504,29.8085634 35.9193022,28.2325914 C39.3551005,26.6566194 41.2268811,22.9053008 40.4164708,19.2196158 C39.6060606,15.5339309 36.3323127,12.9092071 32.550914,12.9134143 L32.5689084,12.9134143 Z M3.86789399,8.02935413 C3.86789399,5.3319622 6.0592218,3.145294 8.76236165,3.145294 C11.4655015,3.145294 13.6568293,5.3319622 13.6568293,8.02935413 C13.6568293,10.7267461 11.4655015,12.9134143 8.76236165,12.9134143 C6.06127547,12.9084732 3.87284558,10.7246967 3.86789399,8.02935413 L3.86789399,8.02935413 Z M8.76236165,38.7342909 C6.0592218,38.7342909 3.86789399,36.5476227 3.86789399,33.8502308 C3.86789399,31.1528389 6.0592218,28.9661707 8.76236165,28.9661707 C11.4655015,28.9661707 13.6568293,31.1528389 13.6568293,33.8502308 C13.6518777,36.5455734 11.4634478,38.7293499 8.76236165,38.7342909 L8.76236165,38.7342909 Z M15.1773533,29.020039 C13.9945094,27.4453213 12.270908,26.3615695 10.3368687,25.9764795 L10.3368687,15.8941274 C12.2686122,15.5089491 13.9912275,14.4290125 15.1773533,12.8595459 L24.7773477,18.9646211 C24.44134,20.260058 24.44134,21.6195269 24.7773477,22.9149638 L15.1773533,29.020039 Z M32.5689084,25.8148745 C30.588463,25.8148712 28.8031959,24.6239344 28.0461555,22.7977837 C27.2891151,20.9716331 27.7095167,18.8702092 29.1111908,17.4740867 C30.5128649,16.0779642 32.6195367,15.6623238 34.4481827,16.4211131 C36.2768288,17.1799025 37.4670166,18.9635616 37.4633844,20.9397925 C37.4584245,23.6351351 35.2699946,25.8189115 32.5689084,25.8238526 L32.5689084,25.8148745 Z" id="Shape"></path>
                    </g>
                </g>
            </g>
        </g>
    </g>
</svg>