<?xml version="1.0" encoding="UTF-8"?>
<svg width="30px" height="30px" viewBox="0 0 30 30" version="1.1" xmlns="http://www.w3.org/2000/svg" xmlns:xlink="http://www.w3.org/1999/xlink">
    <!-- Generator: Sketch 63.1 (92452) - https://sketch.com -->
    <title>Fill 1</title>
    <desc>Created with Sketch.</desc>
    <g id="Developers" stroke="none" stroke-width="1" fill="none" fill-rule="evenodd">
        <g transform="translate(-631.000000, -5817.000000)" fill="#3EC4FF" id="TECHNOLOGY">
            <g transform="translate(58.000000, 5439.000000)">
                <path d="M579.875576,390.501299 C576.541564,390.501299 573,391.596215 573,393.626056 L573,404.875243 C573,406.905085 576.541564,408 579.875576,408 C583.209622,408 586.751149,406.905085 586.751149,404.875243 L586.751149,393.626056 C586.751149,391.596215 583.209622,390.501299 579.875576,390.501299 Z M585.501044,404.875243 C585.501044,405.640192 583.309624,406.750091 579.875576,406.750091 C576.441525,406.750091 574.250108,405.640192 574.250108,404.875243 L574.250108,402.974115 C575.57645,403.810329 577.76539,404.250272 579.875576,404.250272 C581.985763,404.250272 584.1747,403.810329 585.501044,402.974115 L585.501044,404.875243 Z M585.501044,401.125517 C585.501044,401.890464 583.309624,403.000362 579.875576,403.000362 C576.441525,403.000362 574.250108,401.890464 574.250108,401.125517 L574.250108,399.224388 C575.57645,400.060601 577.76539,400.500544 579.875576,400.500544 C581.985763,400.500544 584.1747,400.060601 585.501044,399.224388 L585.501044,401.125517 Z M585.501044,397.375786 C585.501044,398.140738 583.309624,399.250667 579.875576,399.250667 C576.441525,399.250667 574.250108,398.140738 574.250108,397.375786 L574.250108,395.474693 C575.57645,396.31087 577.76539,396.750848 579.875576,396.750848 C581.985763,396.750848 584.1747,396.31087 585.501044,395.474693 L585.501044,397.375786 Z M579.875576,395.500941 C576.441525,395.500941 574.250108,394.391007 574.250108,393.626056 C574.250108,392.861144 576.441525,391.75121 579.875576,391.75121 C583.309624,391.75121 585.501044,392.861144 585.501044,393.626056 C585.501044,394.391007 583.309624,395.500941 579.875576,395.500941 Z M588.626294,395.800905 C588.28129,395.800905 588.001257,396.080892 588.001257,396.425879 C588.001257,396.770826 588.28129,397.050813 588.626294,397.050813 C591.727813,397.050813 594.253037,394.527263 594.253037,391.426237 C594.253037,388.325214 591.729084,385.80166 588.627569,385.80166 C586.513628,385.80166 584.598485,386.985303 583.629653,388.890183 C583.473393,389.197661 583.595894,389.573882 583.903416,389.730117 C584.210938,389.883838 584.587222,389.765112 584.743482,389.456395 C585.49729,387.972758 586.984919,387.051572 588.626294,387.051572 C591.039009,387.051572 593.001688,389.013905 593.001688,391.426237 C593.001688,393.838573 591.039009,395.800905 588.626294,395.800905 Z M602.883772,389.62386 C602.79,388.895179 602.376203,388.261458 601.751166,387.885236 C601.134847,387.512767 600.393547,387.445293 599.709741,387.702754 C599.172203,387.905245 598.555879,387.626532 598.308371,387.072824 C598.017101,386.420364 597.657084,385.795395 597.240768,385.216713 C596.879506,384.714223 596.947024,384.054289 597.397063,383.684302 C597.953338,383.226859 598.263379,382.550638 598.249632,381.830704 C598.234615,381.099509 597.889575,380.424562 597.303296,379.980828 C596.348201,379.257142 595.305618,378.654695 594.204291,378.190987 C593.521725,377.903491 592.761649,377.942239 592.120354,378.295969 C591.491563,378.643434 591.061504,379.249633 590.944001,379.958337 C590.84775,380.535814 590.303943,380.91827 589.687659,380.857031 C588.987591,380.783288 588.260034,380.783288 587.559971,380.857031 C586.931179,380.909523 586.401115,380.534536 586.304868,379.957098 C586.186125,379.248394 585.757306,378.642195 585.127275,378.295969 C584.483462,377.942239 583.724665,377.90473 583.044578,378.190987 C581.944491,378.654695 580.900663,379.257142 579.945574,379.980828 C579.360534,380.424562 579.015494,381.09827 579.000512,381.829465 C578.986765,382.549395 579.298041,383.225585 579.854321,383.684302 C580.304356,384.054289 580.371878,384.71174 580.009337,385.215439 C579.59306,385.795395 579.233038,386.420364 578.941743,387.07155 C578.694225,387.625258 578.076666,387.902732 577.526625,387.696519 C576.936587,387.476532 576.296531,387.500263 575.726474,387.762754 C575.153937,388.027727 574.70266,388.521436 574.490111,389.117648 C574.372607,389.442617 574.542646,389.800104 574.867669,389.916351 C575.191417,390.032599 575.5502,389.86386 575.666464,389.538887 C575.767744,389.256383 575.980257,389.022652 576.251506,388.896418 C576.51528,388.772701 576.812813,388.761435 577.100356,388.871413 C578.255453,389.303883 579.564296,388.73767 580.083093,387.581515 C580.339359,387.006555 580.656904,386.45536 581.02444,385.944156 C581.774488,384.899218 581.613234,383.511841 580.648156,382.716894 C580.3881,382.504412 580.244347,382.18943 580.250616,381.854435 C580.256854,381.508213 580.420624,381.186996 580.700656,380.975757 C581.573206,380.314549 582.524541,379.764594 583.529647,379.342151 C583.857154,379.203412 584.219691,379.222146 584.524734,379.390885 C584.822232,379.554629 585.016006,379.82835 585.07226,380.163345 C585.278537,381.401992 586.406113,382.235686 587.691221,382.09943 C588.305025,382.035678 588.946324,382.035678 589.558888,382.09943 C590.852744,382.234412 591.971603,381.403231 592.177849,380.163345 C592.234103,379.829589 592.429116,379.554629 592.72541,379.390885 C593.030418,379.220907 593.391715,379.203412 593.720493,379.342151 C594.725568,379.765867 595.678143,380.315823 596.549488,380.975757 C596.829485,381.188235 596.994499,381.508213 597.000763,381.854435 C597.008276,382.190669 596.863249,382.505656 596.603228,382.719373 C595.63939,383.513085 595.476891,384.900492 596.228184,385.945395 C596.595719,386.456599 596.91199,387.007829 597.169531,387.582789 C597.688328,388.738944 598.998441,389.306396 600.164775,388.867692 C600.479806,388.748931 600.823566,388.782687 601.109872,388.953905 C601.406131,389.132665 601.601144,389.435143 601.646166,389.782608 C601.717407,390.328807 601.752406,390.881276 601.752406,391.424997 C601.752406,391.968684 601.717407,392.521153 601.646166,393.067352 C601.602384,393.416091 601.406131,393.71733 601.109872,393.896055 C600.822326,394.068547 600.478566,394.09979 600.151028,393.977308 C598.995931,393.544839 597.687084,394.112294 597.169531,395.268445 C596.91199,395.844649 596.594479,396.3946 596.226944,396.907082 C595.476891,397.951986 595.63815,399.338154 596.603228,400.133105 C596.863249,400.345583 597.007001,400.659291 597.000763,400.995526 C596.994499,401.34299 596.83076,401.662968 596.550728,401.875446 C595.678143,402.536654 594.726807,403.086606 593.721732,403.509088 C593.394199,403.645309 593.032932,403.627814 592.72665,403.460349 C592.429116,403.296606 592.234103,403.022854 592.179124,402.687893 C591.972843,401.449247 590.842756,400.616787 589.558888,400.751804 C589.252606,400.784287 588.941325,400.800543 588.626294,400.800543 C588.28129,400.800543 588.001257,401.080534 588.001257,401.425482 C588.001257,401.770464 588.28129,402.05045 588.626294,402.05045 C588.986351,402.05045 589.341379,402.031681 589.690138,401.994207 C590.320204,401.936685 590.850229,402.316663 590.946516,402.892902 C591.064019,403.601566 591.492803,404.207769 592.122869,404.555265 C592.480376,404.751489 592.874162,404.851478 593.270457,404.851478 C593.585488,404.851478 593.904243,404.788997 594.205531,404.662763 C595.305618,404.19902 596.349446,403.596575 597.304535,402.872889 C597.89085,402.427915 598.234615,401.752968 598.249632,401.021773 C598.263379,400.301839 597.952099,399.626892 597.395788,399.168141 C596.945749,398.798189 596.878266,398.139494 597.239528,397.637038 C597.657084,397.057082 598.017101,396.432109 598.308371,395.779653 C598.557154,395.224706 599.178437,394.949711 599.723484,395.154715 C600.397301,395.407184 601.136122,395.338436 601.752406,394.967206 C602.377478,394.590985 602.79,393.957299 602.883772,393.228617 C602.961282,392.629892 603,392.023692 603,391.426237 C603,390.828785 602.961282,390.222586 602.883772,389.62386 Z" id="Fill-1"></path>
            </g>
        </g>
    </g>
</svg>