<?xml version="1.0" encoding="UTF-8"?>
<svg width="26px" height="30px" viewBox="0 0 26 30" version="1.1" xmlns="http://www.w3.org/2000/svg" xmlns:xlink="http://www.w3.org/1999/xlink">
    <!-- Generator: Sketch 63.1 (92452) - https://sketch.com -->
    <title>Combined Shape</title>
    <desc>Created with Sketch.</desc>
    <g id="Developers" stroke="none" stroke-width="1" fill="none" fill-rule="evenodd">
        <g transform="translate(-1036.000000, -5817.000000)" fill="#3EC4FF" id="TECHNOLOGY">
            <g transform="translate(58.000000, 5439.000000)">
                <path d="M989.761919,378 C998.024962,378 1001.5238,384.70624 1001.5238,387.374993 C1001.5238,388.914996 1001.37276,389.943751 1001.28859,390.393751 C1002.19115,391.969988 1004,395.238715 1004,396.12497 C1004,397.041226 1003.02809,397.551229 1002.31745,397.799964 L1002.73096,399.052476 C1002.80523,399.277475 1002.74706,399.524971 1002.58115,399.692479 L1001.96212,400.317465 C1001.92216,400.357805 1001.87807,400.39147 1001.83121,400.418459 C1001.83106,400.427323 1001.82996,400.439377 1001.82852,400.45147 C1001.78726,400.798756 1001.47664,401.042512 1001.15025,400.999565 C1001.22668,401.115769 1001.24975,401.162473 1001.3735,401.35319 C1001.55552,401.637346 1001.83337,402.066737 1001.83337,402.899028 C1001.83337,404.813628 999.785244,405.162171 998.291648,405.416017 C996.298124,405.755755 994.144444,406.966901 993.929689,407.417761 C993.929689,407.766339 993.667587,408 993.331494,408 C992.99664,408 992.733333,407.667849 992.733333,407.319272 C992.733333,405.844152 996.492249,404.443578 998.095079,404.170799 C1000.43924,403.770437 1000.62003,403.391544 1000.62003,402.899028 C1000.62003,402.451924 1000.51327,402.286476 1000.36522,402.056646 C1000.2172,401.825524 1000.01337,401.509799 1000.01337,401.004612 C1000.01337,400.491874 1000.22204,400.191287 1000.39558,400.030887 C1000.56621,399.873931 1000.75566,399.799409 1000.91825,399.765455 C1000.93659,399.644122 1000.99377,399.527607 1001.08676,399.433723 L1001.43469,399.08248 L1000.93694,397.573721 C1000.88127,397.404973 1000.90105,397.219965 1000.98771,397.064995 C1001.07563,396.911226 1001.22421,396.801243 1001.39753,396.764969 C1002.06611,396.62247 1002.70745,396.288722 1002.76439,396.116218 C1002.71857,395.624988 1001.34554,392.976248 1000.1,390.816229 C1000.02078,390.676237 999.996013,390.508729 1000.03439,390.351242 C1000.03562,390.338738 1000.28574,389.287491 1000.28574,387.374993 C1000.28574,385.654978 997.653521,379.250003 989.761919,379.250003 C981.810849,379.250003 979.238098,385.566248 979.238098,388.624996 C979.238098,391.411241 980.971416,394.44622 982.364273,396.884978 C983.385722,398.671232 984.190492,400.082474 984.190492,401.124977 C984.190492,403.488709 980.708948,407.364959 980.311511,407.798733 C980.190188,407.932452 980.024273,407.999966 979.857131,407.999966 C979.70732,407.999966 979.55628,407.944957 979.437414,407.83373 C979.186103,407.599981 979.17,407.204958 979.402751,406.951231 C980.389538,405.869978 982.952393,402.716232 982.952393,401.124977 C982.952393,400.417461 982.146396,399.00498 981.292088,397.508721 C979.826186,394.94248 978,391.744988 978,388.624996 C978,384.213736 981.648653,378 989.761919,378 Z M985.800017,384.956514 C986.517609,384.956514 987.100035,385.443461 987.100035,386.043482 C987.100035,386.643477 986.517609,387.130455 985.800017,387.130455 C985.749255,387.130455 985.699169,387.128018 985.649919,387.123277 L985.258342,387.535628 L985.258342,389.527669 L988.659354,393.112369 C988.770184,393.229182 988.833368,393.388708 988.833368,393.555743 L988.833368,407.371971 C988.833368,407.718641 988.566422,408 988.237513,408 C987.908604,408 987.641693,407.718641 987.641693,407.371971 L987.641693,393.815747 L984.240646,390.232329 C984.129816,390.114234 984.066667,389.954743 984.066667,389.787673 L984.066667,387.275624 C984.066667,387.108589 984.129816,386.949064 984.240646,386.831003 L984.596849,386.455688 C984.534425,386.328549 984.5,386.189356 984.5,386.043482 C984.5,385.443461 985.082391,384.956514 985.800017,384.956514 Z M986.991446,381.913039 C987.154756,381.913039 987.310652,381.978865 987.426053,382.0944 L988.653786,383.336637 C988.893216,383.578863 988.893216,383.972663 988.653786,384.214888 C988.414391,384.457145 988.025188,384.457145 987.785789,384.214888 L986.7373,383.155277 L984.79013,383.155277 L982.6944,385.275765 L982.6944,390.972654 L986.19832,394.518011 C986.312503,394.633542 986.377599,394.791285 986.377599,394.956519 L986.377599,407.378865 C986.377599,407.721728 986.102575,407.999965 985.763713,407.999965 C985.42485,407.999965 985.149866,407.721728 985.149866,407.378865 L985.149866,395.213637 L981.645909,391.668315 C981.531726,391.552784 981.466667,391.395011 981.466667,391.229806 L981.466667,385.018618 C981.466667,384.853414 981.531726,384.69564 981.645909,384.578875 L984.101372,382.0944 C984.216778,381.978865 984.372708,381.913039 984.53598,381.913039 L986.991446,381.913039 Z M992.541947,395.572945 C992.795443,395.815197 992.795443,396.208953 992.541947,396.4512 L991.43319,397.512008 L991.43319,401.966511 L991.856946,402.371601 C991.92997,402.356005 992.005708,402.347798 992.083346,402.347798 C992.681342,402.347798 993.166697,402.834745 993.166697,403.434766 C993.166697,404.03476 992.681342,404.521738 992.083346,404.521738 C991.485325,404.521738 991,404.03476 991,403.434766 L991.006361,403.31638 L991.006361,403.31638 L990.323107,402.663376 C990.202216,402.546615 990.133333,402.38888 990.133333,402.22365 L990.133333,397.254869 C990.133333,397.089669 990.202216,396.931904 990.323107,396.815143 L991.622964,395.572945 C991.876421,395.330732 992.288491,395.330732 992.541947,395.572945 Z M997.341508,398.174824 C997.552858,398.407981 997.552858,398.786963 997.341508,399.020123 L996.417083,400.041127 L996.417083,402.184802 C996.417083,402.514793 996.174316,402.782615 995.875195,402.782615 C995.5761,402.782615 995.333333,402.514793 995.333333,402.184802 L995.333333,399.793636 C995.333333,399.634636 995.390763,399.482788 995.491556,399.370406 L996.575306,398.174824 C996.786629,397.941694 997.130189,397.941694 997.341508,398.174824 Z M998.622533,392.964252 C998.859154,393.206504 998.859154,393.60026 998.622533,393.842508 L993.946853,398.629902 L993.946853,400.857152 C993.946853,401.200008 993.675019,401.478234 993.340078,401.478234 C993.005172,401.478234 992.733333,401.200008 992.733333,400.857152 L992.733333,398.372763 C992.733333,398.207563 992.79764,398.049794 992.910502,397.933033 L997.764585,392.964252 C998.001206,392.722039 998.385907,392.722039 998.622533,392.964252 Z M996.022576,391.668975 C996.259176,391.923319 996.259176,392.336727 996.022576,392.59107 L994.80939,393.895238 C994.695319,394.017864 994.541265,394.086973 994.379887,394.086973 L991.953446,394.086973 C991.792103,394.086973 991.638014,394.017864 991.523978,393.896568 L990.310757,392.592366 C990.074192,392.338022 990.074192,391.92461 990.310757,391.670306 C990.547357,391.415963 990.931928,391.415963 991.168528,391.670306 L992.204589,392.78277 L994.128745,392.78277 L995.16484,391.668975 C995.40144,391.414667 995.786011,391.414667 996.022576,391.668975 Z M987.693714,388.190814 L988.721624,389.303869 L996.898178,389.303869 C997.230402,389.303869 997.5,389.596126 997.5,389.956273 C997.5,390.31642 997.230402,390.608716 996.898178,390.608716 L988.472462,390.608716 C988.312384,390.608716 988.159509,390.539533 988.04637,390.418181 L986.842695,389.113365 C986.607989,388.858896 986.607989,388.445284 986.842695,388.190814 C987.077432,387.93638 987.458978,387.93638 987.693714,388.190814 Z M997.322567,385.582026 C997.559176,385.836369 997.559176,386.249777 997.322567,386.504121 L996.109286,387.808289 C995.995246,387.930915 995.841183,388.000023 995.679796,388.000023 L992.039957,388.000023 C991.705116,388.000023 991.433333,387.707871 991.433333,387.347907 C991.433333,386.987972 991.705116,386.69582 992.039957,386.69582 L995.428641,386.69582 L996.464788,385.582026 C996.701367,385.327718 997.085989,385.327718 997.322567,385.582026 Z M994.466684,382.347821 C995.184275,382.347821 995.766701,382.932159 995.766701,383.652185 C995.766701,384.372175 995.184275,384.956548 994.466684,384.956548 C994.350576,384.956548 994.238008,384.941251 994.130875,384.912557 L993.843395,385.199683 C993.721173,385.322313 993.556116,385.391426 993.383212,385.391426 L991.052537,385.391426 L989.942467,386.505264 C989.816346,386.631777 989.649998,386.695677 989.483611,386.695677 C989.317228,386.695677 989.150845,386.631777 989.023432,386.505264 C988.769967,386.250912 988.769967,385.837487 989.023432,385.583135 L990.323311,384.278884 C990.445494,384.156293 990.610585,384.087176 990.783455,384.087176 L993.114129,384.087176 L993.210884,383.990511 C993.182045,383.8826 993.166667,383.769183 993.166667,383.652185 C993.166667,382.932159 993.749058,382.347821 994.466684,382.347821 Z" id="Combined-Shape"></path>
            </g>
        </g>
    </g>
</svg>