<?xml version="1.0" encoding="UTF-8"?>
<svg width="30px" height="30px" viewBox="0 0 30 30" version="1.1" xmlns="http://www.w3.org/2000/svg" xmlns:xlink="http://www.w3.org/1999/xlink">
    <!-- Generator: Sketch 63.1 (92452) - https://sketch.com -->
    <title>Fill 1</title>
    <desc>Created with Sketch.</desc>
    <g id="Developers" stroke="none" stroke-width="1" fill="none" fill-rule="evenodd">
        <g transform="translate(-627.000000, -6095.000000)" fill="#3EC4FF" id="TECHNOLOGY">
            <g transform="translate(58.000000, 5439.000000)">
                <path d="M583.48366,663.500017 C585.206273,663.500017 586.608895,662.097487 586.608895,660.374991 C586.608895,658.652496 585.206273,657.250004 583.48366,657.250004 C581.761051,657.250004 580.358464,658.652496 580.358464,660.374991 C580.358464,662.097487 581.761051,663.500017 583.48366,663.500017 Z M583.48366,658.500004 C584.517482,658.500004 585.358808,659.341239 585.358808,660.374991 C585.358808,661.408743 584.517482,662.250013 583.48366,662.250013 C582.449838,662.250013 581.608551,661.408743 581.608551,660.374991 C581.608551,659.341239 582.449838,658.500004 583.48366,658.500004 Z M581.93856,664.749987 C581.59229,664.749987 581.241025,664.811265 580.897264,664.933752 C580.572212,665.048735 580.402212,665.406248 580.517234,665.731243 C580.633499,666.056239 580.98976,666.227504 581.314777,666.111248 C581.524808,666.0375 581.734799,665.999987 581.939838,665.999987 L585.026282,665.999987 C585.97009,665.999987 586.768908,666.706265 586.886408,667.6425 L587.505199,672.591256 C587.545195,672.907504 587.813955,673.138739 588.125229,673.138739 C588.151477,673.138739 588.177729,673.1375 588.201499,673.133743 C588.544016,673.091239 588.786529,672.778748 588.744021,672.436252 L588.125229,667.487495 C587.93146,665.926239 586.597629,664.749987 585.025038,664.749987 L581.93856,664.749987 Z M574.625582,662.250013 C576.34819,662.250013 577.750777,660.847487 577.750777,659.124991 C577.750777,657.402496 576.34819,656 574.625582,656 C572.90297,656 571.500383,657.402496 571.500383,659.124991 C571.500383,660.847487 572.90297,662.250013 574.625582,662.250013 Z M574.625582,657.250004 C575.659403,657.250004 576.50069,658.091239 576.50069,659.124991 C576.50069,660.158743 575.659403,661.000013 574.625582,661.000013 C573.59176,661.000013 572.750469,660.158743 572.750469,659.124991 C572.750469,658.091239 573.59176,657.250004 574.625582,657.250004 Z M598.817186,684.933766 L595.433216,681.550021 C596.092003,680.703756 596.500794,679.653743 596.500794,678.500017 C596.500794,675.742495 594.258125,673.500004 591.500451,673.500004 C588.742781,673.500004 586.500108,675.742495 586.500108,678.500017 C586.500108,681.257504 588.742781,683.499994 591.500451,683.499994 C592.653051,683.499994 593.703094,683.0925 594.549416,682.43376 L597.933386,685.817507 C598.055886,685.938756 598.215899,686.000004 598.375907,686.000004 C598.534677,686.000004 598.69469,685.938756 598.817186,685.817507 C599.060977,685.573768 599.060977,685.177503 598.817186,684.933766 Z M591.500451,682.249991 C589.432808,682.249991 587.750195,680.567487 587.750195,678.500017 C587.750195,676.432513 589.432808,674.750008 591.500451,674.750008 C593.568094,674.750008 595.250707,676.432513 595.250707,678.500017 C595.250707,680.567487 593.568094,682.249991 591.500451,682.249991 Z M586.127586,682.100015 C585.767568,682.076247 585.48506,682.335003 585.460051,682.678738 L585.401316,683.501235 L581.564799,683.501235 L581.114769,677.204995 C581.091003,676.861261 580.800982,676.586243 580.447234,676.626239 C580.103442,676.650004 579.843429,676.949991 579.868438,677.293761 L580.359703,684.17 C580.383473,684.496234 580.65599,684.749998 580.98349,684.749998 L585.983834,684.749998 C586.311364,684.749998 586.583886,684.496234 586.606377,684.17 L586.706382,682.767505 C586.73139,682.423735 586.471377,682.124987 586.127586,682.100015 Z M580.23469,673.796239 L579.407147,666.536239 C579.210895,664.804996 577.839551,663.500017 576.220699,663.500017 L573.027982,663.500017 C571.40913,663.500017 570.039026,664.804996 569.841501,666.536239 L569.013955,673.796239 C568.945197,674.403761 569.132732,675.007491 569.527748,675.450017 C569.869025,675.831261 570.321535,676.053748 570.811593,676.081234 L571.501623,685.421243 C571.526632,685.747512 571.79791,686 572.125408,686 L577.125751,686 C577.453286,686 577.724529,685.747512 577.747025,685.421243 L578.437086,676.081234 C578.927112,676.053748 579.380895,675.8325 579.720934,675.450017 C580.11719,675.006252 580.304725,674.403761 580.23469,673.796239 Z M578.789595,674.617495 C578.718356,674.697513 578.562099,674.833748 578.33209,674.833748 L577.85829,674.833748 C577.53076,674.833748 577.258273,675.086269 577.234503,675.412504 L576.544477,684.749998 L572.705445,684.749998 L572.016656,675.412504 C571.991647,675.086269 571.720403,674.833748 571.39287,674.833748 L570.919071,674.833748 C570.689061,674.833748 570.534045,674.697513 570.461567,674.617495 C570.302795,674.438756 570.227802,674.191265 570.256531,673.9375 L571.084112,666.677504 C571.20909,665.578752 572.04542,664.749987 573.029223,664.749987 L576.221938,664.749987 C577.204499,664.749987 578.040795,665.578752 578.167082,666.677504 L578.994629,673.9375 C579.02336,674.191265 578.948364,674.438756 578.789595,674.617495 Z" id="Fill-1"></path>
            </g>
        </g>
    </g>
</svg>