<?xml version="1.0" encoding="UTF-8"?>
<svg width="24px" height="26px" viewBox="0 0 24 26" version="1.1" xmlns="http://www.w3.org/2000/svg" xmlns:xlink="http://www.w3.org/1999/xlink">
    <!-- Generator: Sketch 63.1 (92452) - https://sketch.com -->
    <title>Combined Shape</title>
    <desc>Created with Sketch.</desc>
    <g id="Symbols" stroke="none" stroke-width="1" fill="none" fill-rule="evenodd">
        <g id="Icon-/-Benefits-/-Application-Copy" fill="#3EC4FF">
            <path d="M12.0151515,0 C12.5283311,0 13.0276096,0.190693318 13.5048148,0.567622055 C13.7093459,0.455928906 13.9392771,0.393939394 14.1818182,0.393939394 C15.0505924,0.393939394 15.7576033,1.18929515 15.7576033,2.16666667 C15.7576033,2.61594609 15.608207,3.02677098 15.3623765,3.33955916 C15.656185,4.0536166 15.9134278,4.85856581 16.1300461,5.73317548 C17.5438,5.33465832 18.8502065,5.12121212 19.9649706,5.12121212 C22.0645297,5.12121212 22.9506924,5.88787727 23.3244779,6.52955333 C24.0595491,7.79156182 23.4858039,9.64350242 21.7043627,11.7442118 C21.3454631,12.1679016 20.9453347,12.5939159 20.508716,13.0184993 C20.9460929,13.4451976 21.346387,13.8734575 21.7054067,14.2994839 C23.4849333,16.4089309 24.0595491,18.2685415 23.3248048,19.5358012 C22.9862493,20.1197449 22.409367,20.5261772 21.6062776,20.74938 C21.4018525,21.5039904 20.7115763,22.0606388 19.8939394,22.0606388 C19.0923489,22.0606388 18.4131903,21.5256249 18.1948244,20.7939939 C17.5391062,20.6907139 16.8429479,20.5334472 16.1199872,20.327965 C15.3151523,23.6027246 13.9287463,26 12.0151515,26 C10.0899169,26 8.69829171,23.5734243 7.89540732,20.2671319 C6.60781148,20.6305029 5.40925494,20.839707 4.36350381,20.873846 L4.06376848,20.8788194 L4.06376848,20.8788194 C3.69304003,20.8788194 3.3457381,20.8549648 3.02613871,20.8077213 C2.70734719,21.094906 2.26292638,21.2727548 1.77272727,21.2727548 C0.795354576,21.2727548 -2.24265051e-14,20.5657439 -2.24265051e-14,19.6969697 C-2.24265051e-14,19.3071291 0.160147857,18.9498657 0.425027046,18.6744391 C0.181936485,17.1443537 1.33006598,15.0999091 3.47526129,13.0066248 C3.05568051,12.5943154 2.67110016,12.1814235 2.32489597,11.7706058 C0.545401606,9.66231303 -0.0292475694,7.80267091 0.705501333,6.53541121 C1.07911858,5.89106818 1.96492282,5.12121212 4.06355182,5.12121212 C5.1770347,5.12121212 6.48179922,5.33524339 7.89360549,5.73527932 C8.69744903,2.42804538 10.0893339,0 12.0151515,0 Z M11.9533801,18.7417171 L11.7017783,18.8565259 C10.7643182,19.2810865 9.83974881,19.6454412 8.94740116,19.9431649 C9.69970338,23.01117 10.8970528,24.8695629 12.0151515,24.8695629 C13.1261721,24.8695629 14.3154432,23.0346246 15.0688178,20.0013297 C14.0593683,19.6626038 13.0111546,19.2390668 11.9533801,18.7417171 Z M19.9644979,19.8184094 C19.6669555,19.8184094 19.4284961,20.0467839 19.4103158,20.3497352 C19.4058725,20.4174654 19.3896626,20.482853 19.362889,20.5433057 C19.4571211,20.7413266 19.6602574,20.8788115 19.8939394,20.8788115 C20.2189591,20.8788115 20.4848721,20.6128985 20.4848721,20.2878788 C20.4848721,20.2403805 20.479217,20.1941442 20.4685415,20.1498156 C20.380233,19.9523804 20.1876519,19.8184094 19.9644979,19.8184094 Z M1.43138391,19.3353727 C1.38239527,19.3757604 1.32745692,19.4071737 1.26908778,19.4290562 C1.2126734,19.5062881 1.18182921,19.5985831 1.18182921,19.6969697 C1.18182921,19.985877 1.44773988,20.2222406 1.77272727,20.2222406 C2.05601639,20.2222406 2.29440036,20.0426763 2.35094491,19.8052648 C2.35202682,19.7885961 2.35277033,19.7724794 2.35277033,19.7564152 C2.35277033,19.3263752 1.84264206,18.99651 1.43138391,19.3353727 Z M4.31915213,13.7937984 C2.60664227,15.4669384 1.63122682,17.0165527 1.53704752,18.0868567 C2.00653346,18.0152451 2.46341009,18.1533486 2.81698579,18.424254 C3.25845437,18.711565 3.54548724,19.1750745 3.54548724,19.6969697 L3.543,19.733 L3.67324615,19.7430222 C3.73590224,19.7465245 3.79973637,19.7490267 3.86466387,19.7506534 L4.06264182,19.7530312 C4.06264182,19.7530312 4.06264182,19.7530312 4.06376848,19.7530312 C5.1007443,19.7530312 6.32485729,19.5492184 7.65667398,19.1683963 C7.46265985,18.1713085 7.31805613,17.1164407 7.22355017,16.0394465 C6.16262198,15.3183518 5.18537305,14.562146 4.31915213,13.7937984 Z M19.6756709,13.7874079 L19.4007619,14.0263692 C18.6148373,14.6976761 17.7452867,15.3576982 16.8114672,15.9910946 C16.7149808,17.1042523 16.565344,18.1950033 16.3635933,19.2225781 C17.0164027,19.4108192 17.6450016,19.5567068 18.2399848,19.6572175 C18.493485,18.9890764 19.1394838,18.5151515 19.8939394,18.5151515 C20.6230585,18.5151515 21.2509006,18.9577797 21.5228044,19.5884013 L21.4680739,19.6092867 C21.8848461,19.4657076 22.1778188,19.2520388 22.3424894,18.9705809 C22.8069518,18.1690758 22.2436933,16.6949388 20.83666,15.0263494 C20.4896386,14.6150583 20.1010443,14.2007948 19.6756709,13.7874079 Z M15.6404152,16.7499393 L15.5325575,16.8169192 C15.2159242,17.0115637 14.8935607,17.2027678 14.5661061,17.3900252 C14.1343617,17.6369622 13.7012228,17.8726594 13.2685403,18.0965016 C13.9628067,18.3982373 14.6478097,18.664789 15.3143174,18.8924742 C15.444492,18.2223493 15.5547754,17.5065778 15.6404152,16.7499393 Z M8.39619792,16.8038499 L8.40200996,16.8553616 C8.4835334,17.5533692 8.58607114,18.2160324 8.70621239,18.839128 C9.33696089,18.6246148 9.98570004,18.3746361 10.6450544,18.0917921 C10.2495115,17.8837256 9.85383604,17.6663718 9.46002515,17.4399018 C9.0989359,17.2324659 8.74404104,17.0202231 8.39619792,16.8038499 Z M11.9952881,8.54216881 L11.980687,8.55077003 C11.3304002,8.86853692 10.6750773,9.21553666 10.0216015,9.58946182 C9.4055209,9.94192154 8.81836533,10.3030375 8.26168372,10.669065 C8.21204171,11.4150179 8.18519,12.1934292 8.18519,13.0000158 C8.18519,13.823155 8.21315537,14.6169509 8.26545585,15.3769087 C8.83130286,15.7497644 9.42073828,16.1127495 10.0289445,16.4620458 C10.67135,16.8312115 11.3178788,17.1751008 11.9614391,17.491057 C12.6369834,17.162214 13.3185062,16.8026383 13.9980258,16.4139536 C14.6083928,16.0648847 15.1999547,15.7020878 15.7682196,15.329126 C15.8182853,14.584312 15.845113,13.8062387 15.845113,13.0000158 C15.845113,12.2172579 15.8193106,11.4464721 15.7690863,10.6957748 C15.2021952,10.3227209 14.6117578,9.95907541 14.0024852,9.60916667 C13.3328908,9.22425749 12.6613542,8.86775929 11.9952881,8.54216881 Z M12.0151515,10.2424242 C13.6449024,10.2424242 14.9697285,11.4789291 14.9697285,13 C14.9697285,14.5211024 13.6449024,15.7576073 12.0151515,15.7576073 C10.3854321,15.7576073 9.06060606,14.5211024 9.06060606,13 C9.06060606,11.4789291 10.3854321,10.2424242 12.0151515,10.2424242 Z M12.0151515,11.3454624 C11.0377839,11.3454624 10.2424321,12.08779 10.2424321,13 C10.2424321,13.91221 11.0377839,14.6545691 12.0151515,14.6545691 C12.9925191,14.6545691 13.7879064,13.91221 13.7879064,13 C13.7879064,12.08779 12.9925191,11.3454624 12.0151515,11.3454624 Z M7.12526911,11.4526139 L7.1088833,11.4647215 C6.39453801,11.9824928 5.74166544,12.5045834 5.1544707,13.0208271 C5.75819637,13.551869 6.41858091,14.077374 7.12522352,14.5892978 C7.10304155,14.0596451 7.09090909,13.5284395 7.09090909,13.0000158 C7.09090909,12.4855654 7.10240827,11.9684786 7.12526911,11.4526139 Z M16.9086787,11.4836991 C16.9287265,11.987283 16.9393939,12.4919989 16.9393939,13.0011385 C16.9393939,13.5145606 16.9279367,14.0306172 16.9051589,14.5454702 C17.5978774,14.0474084 18.2454701,13.535405 18.8390228,13.0182009 C18.2463731,12.4980324 17.5996524,11.9843757 16.9086787,11.4836991 Z M19.9649706,6.24588152 C18.9289913,6.24588152 17.7054942,6.44948505 16.373981,6.83004132 C16.5717685,7.83592448 16.7207914,8.9133295 16.8159972,10.0368246 C17.8605951,10.7474729 18.8232806,11.491506 19.678713,12.2475705 C20.1017194,11.8387067 20.4891649,11.4274876 20.83523,11.0192097 C22.2428897,9.35641515 22.8063964,7.88950303 22.3417252,7.09134636 C22.0236073,6.54646121 21.1806164,6.24588152 19.9649706,6.24588152 Z M4.06355182,6.2516803 C2.84956927,6.2516803 2.00579245,6.55351273 1.68781561,7.10066303 C1.223352,7.90216818 1.78661048,9.37627758 3.19480318,11.044863 C3.5284588,11.4403135 3.90054541,11.8385118 4.30680251,12.2360368 C5.16280862,11.4833089 6.13969403,10.7317922 7.22035048,10.0027102 C7.3140033,8.91414047 7.45941784,7.84687179 7.65471275,6.83929591 C6.32262249,6.45623845 5.09931769,6.2516803 4.06355182,6.2516803 Z M15.3232401,7.15970443 L15.0351929,7.25944831 C14.4719485,7.45888801 13.8953101,7.68580529 13.3105255,7.93844097 C13.7306205,8.15882215 14.1511019,8.38917512 14.5703133,8.63018788 C14.9341838,8.83922404 15.2917651,9.0531421 15.6421794,9.27124952 C15.559365,8.53775566 15.4527084,7.83143051 15.3232401,7.15970443 Z M8.70494475,7.1696561 L8.68106167,7.29327995 C8.56597476,7.90828382 8.46796525,8.56087053 8.39022648,9.24708635 C8.73593851,9.03416832 9.09059553,8.82327088 9.45355273,8.61565545 C9.86494767,8.38021834 10.2775658,8.15499584 10.6898158,7.94051492 C10.014009,7.64782593 9.34994626,7.39012637 8.70494475,7.1696561 Z M12.0151515,1.13043667 C10.8965647,1.13043667 9.69865787,2.99045278 8.94615413,6.06081608 C9.93404286,6.39256244 10.9617865,6.80602934 12.0030223,7.29295595 C13.0521954,6.80362111 14.0869127,6.38889923 15.0814623,6.05700883 C14.8931786,5.28650832 14.6713213,4.57591584 14.4192848,3.93957121 C13.4541294,4.08878364 12.5623058,3.27035485 12.5623058,2.26087333 C12.5623058,2.063406 12.5970533,1.87092469 12.6630403,1.69005051 C12.6882678,1.59200562 12.720018,1.49718247 12.7584076,1.4065749 L12.7866267,1.4254697 C12.5228961,1.22990242 12.2657364,1.13043667 12.0151515,1.13043667 Z M14.1818182,1.57576939 C14.1399306,1.57576939 14.0991472,1.58136013 14.0600284,1.59191106 C14.0240571,1.68372325 13.9647952,1.76311279 13.8874509,1.82339182 C13.806582,1.88765245 13.6726398,2.02095455 13.6588297,2.22618103 L13.6565748,2.16666667 C13.6565748,2.49168636 13.8929385,2.75759939 14.1818182,2.75759939 C14.4707255,2.75759939 14.7070891,2.49168636 14.7070891,2.16666667 C14.7070891,1.84167848 14.4717655,1.57576939 14.1818182,1.57576939 Z" id="Combined-Shape"></path>
        </g>
    </g>
</svg>