<?xml version="1.0" encoding="UTF-8"?>
<svg width="39px" height="30px" viewBox="0 0 39 30" version="1.1" xmlns="http://www.w3.org/2000/svg" xmlns:xlink="http://www.w3.org/1999/xlink">
    <!-- Generator: Sketch 63.1 (92452) - https://sketch.com -->
    <title>Path</title>
    <desc>Created with Sketch.</desc>
    <g id="Symbols" stroke="none" stroke-width="1" fill="none" fill-rule="evenodd">
        <g id="Icon-/-Platform-/-Analytics" fill="#3EC4FF">
            <path d="M5.59026667,22.1052833 L0.798591111,22.1052833 C0.357790222,22.1052833 3.05533376e-13,22.4589778 3.05533376e-13,22.8947389 L3.05533376e-13,29.2105456 C3.05533376e-13,29.6463478 0.357790222,30 0.798591111,30 L5.59026667,30 C6.03111111,30 6.38890556,29.6463478 6.38890556,29.2105456 L6.38890556,22.8947389 C6.38890556,22.4589778 6.03111111,22.1052833 5.59026667,22.1052833 Z M4.79167778,28.4210906 L1.59722611,28.4210906 L1.59722611,23.6842333 L4.79167778,23.6842333 L4.79167778,28.4210906 Z M21.5624833,7.89476111 L16.77085,7.89476111 C16.3300056,7.89476111 15.9722167,8.24841111 15.9722167,8.68421111 L15.9722167,29.2105456 C15.9722167,29.6463478 16.3300056,30 16.77085,30 L21.5624833,30 C22.0033278,30 22.3611167,29.6463478 22.3611167,29.2105456 L22.3611167,8.68421111 C22.3611167,8.24841111 22.0033278,7.89476111 21.5624833,7.89476111 Z M20.7638944,28.4210906 L17.5694389,28.4210906 L17.5694389,9.47371111 L20.7638944,9.47371111 L20.7638944,28.4210906 Z M37.5347444,28.4210906 L32.7430667,28.4210906 C32.3022222,28.4210906 31.9444333,28.7747461 31.9444333,29.2105456 C31.9444333,29.6463478 32.3022222,30 32.7430667,30 L37.5347444,30 C37.9755444,30 38.3333333,29.6463478 38.3333333,29.2105456 C38.3333333,28.7747461 37.9755444,28.4210906 37.5347444,28.4210906 Z M29.5486167,0 L24.7569389,0 C24.3160889,0 23.9583444,0.353694444 23.9583444,0.789455556 L23.9583444,29.2105456 C23.9583444,29.6463478 24.3160889,30 24.7569389,30 L29.5486167,30 C29.9894556,30 30.3472056,29.6463478 30.3472056,29.2105456 L30.3472056,0.789455556 C30.3472056,0.353694444 29.9894556,0 29.5486167,0 Z M28.7500222,28.4210906 L25.5555722,28.4210906 L25.5555722,1.57895 L28.7500222,1.57895 L28.7500222,28.4210906 Z M13.5764,15.7894778 L8.78472222,15.7894778 C8.34387778,15.7894778 7.98612778,16.1431722 7.98612778,16.5789722 L7.98612778,29.2105456 C7.98612778,29.6463478 8.34387778,30 8.78472222,30 L13.5764,30 C14.0172444,30 14.3749889,29.6463478 14.3749889,29.2105456 L14.3749889,16.5789722 C14.3749889,16.1431722 14.0172444,15.7894778 13.5764,15.7894778 Z M12.7777611,28.4210906 L9.58335556,28.4210906 L9.58335556,17.3684278 L12.7777611,17.3684278 L12.7777611,28.4210906 Z" id="Fill-1"></path>
        </g>
    </g>
</svg>