<?xml version="1.0" encoding="UTF-8"?>
<svg width="24px" height="26px" viewBox="0 0 24 26" version="1.1" xmlns="http://www.w3.org/2000/svg" xmlns:xlink="http://www.w3.org/1999/xlink">
    <!-- Generator: Sketch 63.1 (92452) - https://sketch.com -->
    <title>Combined Shape</title>
    <desc>Created with Sketch.</desc>
    <g id="Symbols" stroke="none" stroke-width="1" fill="none" fill-rule="evenodd">
        <g id="Icon-/-Benefits-/-Performance" fill="#3EC4FF">
            <path d="M16.4965666,25.1034483 C16.7934822,25.1034483 17.0344828,25.3042823 17.0344828,25.5517118 C17.0344828,25.7991659 16.7934822,26 16.4965666,26 L6.81377826,26 C6.51686259,26 6.27586207,25.7991659 6.27586207,25.5517118 C6.27586207,25.3042823 6.51686259,25.1034483 6.81377826,25.1034483 L16.4965666,25.1034483 Z M14.7370795,22.4137931 C15.0154693,22.4137931 15.2413793,22.6146271 15.2413793,22.8620566 C15.2413793,23.1095105 15.0154693,23.3103448 14.7370795,23.3103448 L7.67671361,23.3103448 C7.39835184,23.3103448 7.17241379,23.1095105 7.17241379,22.8620566 C7.17241379,22.6146271 7.39835184,22.4137931 7.67671361,22.4137931 L14.7370795,22.4137931 Z M14.1168169,21.3591048 C14.0147037,21.460232 13.8768001,21.5172414 13.732335,21.5172414 L10.4742193,21.5172414 C10.3297581,21.5172414 10.1918201,21.460232 10.0897374,21.3601693 C9.11289045,20.3923115 8.30498008,19.2158893 7.63704687,17.9199683 C7.60192592,17.927387 7.56563163,17.9310345 7.52924196,17.9310345 C7.42567708,17.9310345 7.3210449,17.9011973 7.2282704,17.8404433 L7.1745801,17.8042062 C6.59326211,17.4089829 1.99379061,14.2027588 0.557508307,10.6709045 C-0.494249019,8.08677927 -0.0109969479,5.00923445 1.61247634,3.95000684 C2.04803133,3.66410428 3.12929848,3.19181078 4.54702644,4.19965725 C4.44398026,2.12776191 4.49403072,0.698581976 4.50093813,0.516425118 C4.5129064,0.228075209 4.7518221,0 5.04397582,0 L19.1625823,0 C19.454736,0 19.6936479,0.228075209 19.7055895,0.516425118 C19.7122577,0.684119714 19.7553202,1.90868431 19.6816048,3.71879172 C20.6429442,3.39876996 21.3621813,3.72990148 21.6978655,3.94886794 C23.3202316,5.00826128 23.8045838,8.08521235 22.7538989,10.6697783 C21.5998395,13.5081014 18.4035526,16.1361385 16.8904513,17.264391 C16.1652252,18.8188018 15.2558469,20.2307557 14.1168169,21.3591048 Z M18.6304041,1.07586584 L5.57615024,1.07586584 C5.54790041,3.66331789 5.71513607,15.2664979 10.702268,20.4413755 L13.5031813,20.4413755 C14.2385496,19.6785109 14.8691395,18.7762389 15.4097727,17.7839232 C15.3811738,17.7585438 15.3558276,17.7291552 15.3334429,17.6965462 C15.1673071,17.4524846 15.2320508,17.1210179 15.4790721,16.9568983 C15.4885979,16.9506214 15.6829506,16.8198522 15.9996315,16.5880875 C17.5503286,13.1317492 18.1959812,8.91326397 18.4590196,5.67160276 C18.3266723,5.66977361 18.1963749,5.61792092 18.0960323,5.51876613 C17.885694,5.31094779 17.885694,4.97307878 18.0960323,4.76525667 C18.2500745,4.61305624 18.4011143,4.4788305 18.5488251,4.36081691 C18.6327311,2.87841733 18.6373089,1.70793933 18.6304041,1.07586584 Z M6.81393108,1.79310345 C7.10547784,1.79310345 7.34540851,2.0230572 7.35184215,2.31371038 C7.46696254,7.33674645 8.63210957,14.4475856 11.5336699,17.9588178 C11.7219558,18.1855766 11.6875355,18.522026 11.4573019,18.7083261 C11.3583086,18.7881836 11.2378233,18.8275862 11.1173415,18.8275862 C10.9613385,18.8275862 10.8064042,18.7605159 10.6998835,18.6316938 C6.73646572,13.8354128 6.32010509,4.21732559 6.27599132,2.33715358 C6.26955769,2.0433017 6.50409473,1.79950083 6.80210381,1.79310345 L6.81393108,1.79310345 L6.81393108,1.79310345 Z M2.20684309,4.83979971 C1.14001481,5.5356622 0.636252017,8.00684853 1.55748356,10.2723644 C2.55842269,12.7339554 5.39168081,15.1302696 6.88451528,16.2687006 C5.4693628,12.7740912 4.87829373,8.74786925 4.6383921,5.63801531 C4.56999753,5.61372107 4.50638328,5.57373255 4.4516739,5.51968663 C3.854066,4.9303909 2.98030772,4.33577627 2.20684309,4.83979971 Z M19.6579696,4.89360869 L19.6193473,4.91569887 C19.4357381,7.81529068 18.9498717,11.7076517 17.7170846,15.2245046 C19.1955999,13.9539652 20.9968472,12.1317153 21.7528573,10.2722312 C22.6740855,8.00635372 22.1703256,5.5347719 21.1034683,4.83774319 C20.6295075,4.53030801 20.1192783,4.63284792 19.6579696,4.89360869 Z" id="Combined-Shape"></path>
        </g>
    </g>
</svg>