<?xml version="1.0" encoding="UTF-8"?>
<svg width="26px" height="24px" viewBox="0 0 26 24" version="1.1" xmlns="http://www.w3.org/2000/svg" xmlns:xlink="http://www.w3.org/1999/xlink">
    <!-- Generator: Sketch 63.1 (92452) - https://sketch.com -->
    <title>LinkedIn</title>
    <desc>Created with Sketch.</desc>
    <g id="Symbols" stroke="none" stroke-width="1" fill="none" fill-rule="evenodd">
        <g id="Icon-/-Social-/-LinkedIn" fill="#FFFFFF" fill-rule="nonzero">
            <path d="M26,14.714381 L26,24 L20.4273581,24 L20.4273581,15.3362757 C20.4273581,13.1598776 19.6213356,11.6745709 17.604224,11.6745709 C16.064415,11.6745709 15.1480737,12.6755588 14.7449415,13.643846 C14.5979303,13.9900049 14.5600895,14.4718128 14.5600895,14.9563652 L14.5600895,24 L8.98557369,24 C8.98557369,24 9.06065094,9.32649476 8.98557369,7.80621019 L14.5595454,7.80621019 L14.5595454,10.1016151 C14.5482415,10.1187829 14.5335525,10.1372937 14.5229135,10.153936 L14.5595454,10.153936 L14.5595454,10.1016151 C15.3001021,8.99978102 16.6226585,7.42577408 19.5829507,7.42577408 C23.2505528,7.42577408 26,9.74027377 26,14.714381 Z M3.15439287,0 C1.24735828,0 0,1.20834448 0,2.79735865 C0,4.35174525 1.21127042,5.59676109 3.0804037,5.59676109 L3.11764008,5.59676109 C5.06160882,5.59676109 6.27058219,4.35197882 6.27058219,2.79735865 C6.2339503,1.20834448 5.06160882,0 3.15439287,0 Z M0.331077358,24 L5.90347743,24 L5.90347743,7.80621019 L0.331077358,7.80621019 L0.331077358,24 Z" id="LinkedIn"></path>
        </g>
    </g>
</svg>