<?xml version="1.0" encoding="UTF-8"?>
<svg width="25px" height="20px" viewBox="0 0 25 20" version="1.1" xmlns="http://www.w3.org/2000/svg" xmlns:xlink="http://www.w3.org/1999/xlink">
    <!-- Generator: Sketch 63.1 (92452) - https://sketch.com -->
    <title>Path</title>
    <desc>Created with Sketch.</desc>
    <g id="Symbols" stroke="none" stroke-width="1" fill="none" fill-rule="evenodd">
        <g id="Icon-/-Social-/-Twitter" fill="#FFFFFF" fill-rule="nonzero">
            <path d="M25,2.36631471 C24.0798596,2.76786846 23.0925622,3.04019762 22.0552239,3.16177817 C23.1144169,2.53709876 23.9252025,1.54626961 24.309476,0.369247605 C23.3159286,0.947740883 22.2192357,1.36780127 21.050688,1.59551335 C20.114943,0.612368467 18.7839359,0 17.3076263,0 C14.4753504,0 12.1789006,2.26171198 12.1789006,5.04961589 C12.1789006,5.44501417 12.224203,5.83119937 12.3117031,6.20048721 C8.05001315,5.98967249 4.27104456,3.97876565 1.74183291,0.923119012 C1.29971618,1.66780992 1.04820433,2.53552972 1.04820433,3.46178682 C1.04820433,5.21424448 1.95429241,6.76051408 3.32904956,7.66516669 C2.48856616,7.6374872 1.69808284,7.40977512 1.0060474,7.0312742 L1.0060474,7.09435769 C1.0060474,9.54069348 2.77447349,11.5823777 5.11933026,12.0470551 C4.68971355,12.1609112 4.23668993,12.2239947 3.76802086,12.2239947 C3.43685202,12.2239947 3.11659006,12.1916885 2.80257811,12.1301338 C3.4555612,14.1379831 5.3489875,15.5980761 7.59233267,15.6381068 C5.83795889,16.9920683 3.62586377,17.7967448 1.22320461,17.7967448 C0.809233348,17.7967448 0.401471244,17.772123 0,17.7275059 C2.2698975,19.1630173 4.96471399,20 7.86104226,20 C17.295208,20 22.4520792,12.3040157 22.4520792,5.62967821 L22.4348814,4.9757905 C23.4424811,4.26799217 24.3141737,3.37870812 25,2.36631471 Z" id="Path"></path>
        </g>
    </g>
</svg>