<?xml version="1.0" encoding="UTF-8"?>
<svg width="40px" height="35px" viewBox="0 0 40 35" version="1.1" xmlns="http://www.w3.org/2000/svg" xmlns:xlink="http://www.w3.org/1999/xlink">
    <!-- Generator: Sketch 63.1 (92452) - https://sketch.com -->
    <title>Combined Shape</title>
    <desc>Created with Sketch.</desc>
    <g id="Symbols" stroke="none" stroke-width="1" fill="none" fill-rule="evenodd">
        <g id="Icon-/-Partners-/-Systems" transform="translate(0.000000, -3.000000)" fill="#3EC4FF">
            <path d="M36.7666882,25.0918826 L39.5533529,26.5319935 C39.8266706,26.6756671 40,26.956414 40,27.2652469 C40,27.5740738 39.8266706,27.8548266 39.5516529,27.9968575 L20.3850118,37.9058865 C20.265,37.9686445 20.1316765,38 20,38 C19.8683235,38 19.735,37.9686445 19.6149882,37.9058865 L0.448346294,27.9968575 C0.173331176,27.8548266 0,27.5740738 0,27.2652469 C0,26.956414 0.173331176,26.6756671 0.448346294,26.5336303 L3.23501,25.0935194 C3.64165353,24.8854484 4.14667471,25.0390435 4.36000882,25.4436686 C4.57334294,25.8482524 4.41498471,26.3470389 4.00668706,26.5584308 L2.63501,27.2652469 L20,36.2444612 L37.3649882,27.2652469 L35.9950118,26.5567467 C35.5866706,26.3453548 35.4283529,25.8466155 35.6416941,25.4419845 C35.8550235,25.0374067 36.36,24.8854484 36.7666882,25.0918826 Z M36.7666882,18.0918789 L39.5533529,19.531991 C39.8266706,19.6756693 40,19.9564185 40,20.2652477 C40,20.5740769 39.8266706,20.8548261 39.5516529,20.9968596 L20.3850118,30.9058856 C20.265,30.9686417 20.1316765,31 20,31 C19.8683235,31 19.735,30.9686417 19.6149882,30.9058856 L0.448346294,20.9968596 C0.173331176,20.8548261 0,20.5740769 0,20.2652477 C0,19.9564185 0.173331176,19.6756693 0.448346294,19.5336301 L3.23501,18.0935181 C3.64165353,17.8870893 4.14667471,18.0374089 4.36000882,18.4436703 C4.57334294,18.848253 4.41498471,19.3470405 4.00668706,19.5584319 L2.63501,20.2652477 L20,29.2444627 L37.3649882,20.2652477 L35.9950118,19.5567475 C35.5866706,19.3453562 35.4283529,18.8466139 35.6416941,18.441986 C35.8550235,18.0374089 36.36,17.8854502 36.7666882,18.0918789 Z M20.3866647,3.09642673 L39.5533529,13.2503015 C39.8266706,13.3958461 40,13.6835343 40,14 C40,14.3164553 39.8266706,14.6041435 39.5516529,14.7496881 L20.3850118,24.9035153 C20.265,24.9678206 20.1316765,25 20,25 C19.8683235,25 19.735,24.9678206 19.6149882,24.9035153 L0.448346294,14.7496881 C0.173331176,14.6041435 0,14.3164553 0,14 C0,13.6835343 0.173331176,13.3958461 0.448346294,13.2503015 L19.6149882,3.09642673 C19.8566588,2.96785776 20.1449941,2.96785776 20.3866647,3.09642673 Z M20,4.79890872 L2.63501,13.9999948 L20,23.2010809 L37.3649882,13.9999948 L20,4.79890872 Z" id="Combined-Shape"></path>
        </g>
    </g>
</svg>