<?xml version="1.0" encoding="UTF-8"?>
<svg width="30px" height="30px" viewBox="0 0 30 30" version="1.1" xmlns="http://www.w3.org/2000/svg" xmlns:xlink="http://www.w3.org/1999/xlink">
    <!-- Generator: Sketch 63.1 (92452) - https://sketch.com -->
    <title>Fill 1</title>
    <desc>Created with Sketch.</desc>
    <g id="Symbols" stroke="none" stroke-width="1" fill="none" fill-rule="evenodd">
        <g id="Icon-/-Platform-/-Integration" fill="#3EC4FF">
            <path d="M15.6249824,20.0000127 L22.9462605,20.0000127 C23.2912344,20.0000127 23.5712475,19.7199997 23.5712475,19.3749954 C23.5712475,19.0299823 23.2912344,18.7500084 22.9462605,18.7500084 L15.6249824,18.7500084 C15.2800085,18.7500084 14.9999998,19.0299823 14.9999998,19.3749954 C14.9999998,19.7199997 15.2800085,20.0000127 15.6249824,20.0000127 Z M24.375004,17.5 C24.5962475,17.5 24.8012388,17.3825128 24.9137388,17.1925084 C25.4324909,16.3087693 29.9999996,8.47376509 29.9999996,5.62499557 C29.9999996,2.52373909 27.4762605,0 24.375004,0 C21.2737475,0 18.7500084,2.52373909 18.7500084,5.62499557 C18.7500084,8.47376509 23.3162431,16.3087693 23.8362388,17.1925084 C23.9487388,17.3825128 24.1537605,17.5 24.375004,17.5 Z M24.375004,1.25000433 C26.787517,1.25000433 28.7499996,3.21251734 28.7499996,5.62499557 C28.7499996,7.51000858 25.9599909,12.8275042 24.375004,15.6237432 C22.7900171,12.8275042 20.0000127,7.51000858 20.0000127,5.62499557 C20.0000127,3.21251734 21.962491,1.25000433 24.375004,1.25000433 Z M27.4999952,5.62499557 C27.4999952,3.90249994 26.0974996,2.50000431 24.375004,2.50000431 C22.6525084,2.50000431 21.2500171,3.90249994 21.2500171,5.62499557 C21.2500171,7.3474912 22.6525084,8.74998683 24.375004,8.74998683 C26.0974996,8.74998683 27.4999952,7.3474912 27.4999952,5.62499557 Z M22.5000171,5.62499557 C22.5000171,4.59124341 23.3412518,3.75000864 24.375004,3.75000864 C25.4087561,3.75000864 26.2499909,4.59124341 26.2499909,5.62499557 C26.2499909,6.65874773 25.4087561,7.50001728 24.375004,7.50001728 C23.3412518,7.50001728 22.5000171,6.65874773 22.5000171,5.62499557 Z M4.37499124,23.7499866 C3.34124039,23.7499866 2.50000562,24.5912562 2.50000562,25.6250083 C2.50000562,26.65876 3.34124039,27.4999935 4.37499124,27.4999935 C5.4087434,27.4999935 6.25001295,26.65876 6.25001295,25.6250083 C6.25001295,24.5912562 5.4087434,23.7499866 4.37499124,23.7499866 Z M4.37499124,26.2499914 C4.02998385,26.2499914 3.75000864,25.9700166 3.75000864,25.6250083 C3.75000864,25.2799996 4.02998385,24.9999909 4.37499124,24.9999909 C4.71999993,24.9999909 5.00001297,25.2799996 5.00001297,25.6250083 C5.00001297,25.9700166 4.71999993,26.2499914 4.37499124,26.2499914 Z M15.6249824,17.5000041 L21.4875171,17.5000041 C21.832491,17.5000041 22.112504,17.2199954 22.112504,16.8749867 C22.112504,16.5300128 21.832491,16.2500041 21.4875171,16.2500041 L15.6249824,16.2500041 C15.2800085,16.2500041 14.9999998,16.5300128 14.9999998,16.8749867 C14.9999998,17.2199954 15.2800085,17.5000041 15.6249824,17.5000041 Z M30,19.3749954 L30,16.8749867 C30,15.8850172 29.5387387,14.973752 28.7362517,14.3750172 C28.4599996,14.1687563 28.0674865,14.2262433 27.8612605,14.5024998 C27.6549996,14.7799954 27.7124909,15.171265 27.9887474,15.3774911 C28.4725039,15.7374824 28.7499996,16.2837606 28.7499996,16.8749867 L28.7499996,19.3749954 C28.7499996,20.4087432 27.9087605,21.2500171 26.8750126,21.2500171 L3.12498995,21.2500171 C2.0912378,21.2500171 1.25000303,20.4087432 1.25000303,19.3749954 L1.25000303,16.8749867 C1.25000303,15.8412345 2.0912378,14.9999998 3.12498995,14.9999998 L20.1212606,14.9999998 C20.4662345,14.9999998 20.7462432,14.7199911 20.7462432,14.3750172 C20.7462432,14.0300085 20.4662345,13.7499954 20.1212606,13.7499954 L3.12498995,13.7499954 C1.40249433,13.7499954 -6.75015599e-14,15.1524911 -6.75015599e-14,16.8749867 L-6.75015599e-14,19.3749954 C-6.75015599e-14,20.3999954 0.50373521,21.304991 1.27001607,21.8749997 C0.50373521,22.4450084 -6.75015599e-14,23.350004 -6.75015599e-14,24.375004 L-6.75015599e-14,26.8750109 C-6.75015599e-14,28.5975052 1.40249433,30 3.12498995,30 L26.8750126,30 C28.5975039,30 30,28.5975052 30,26.8750109 L30,24.375004 C30,23.350004 29.4962648,22.4450084 28.7299822,21.8749997 C29.4962648,21.304991 30,20.3999954 30,19.3749954 Z M28.750003,24.375004 L28.750003,26.8750109 C28.750003,27.9087622 27.9087605,28.7499978 26.8750126,28.7499978 L3.12498995,28.7499978 C2.0912378,28.7499978 1.25000303,27.9087622 1.25000303,26.8750109 L1.25000303,24.375004 C1.25000303,23.3412518 2.0912378,22.5000171 3.12498995,22.5000171 L26.8750126,22.5000171 C27.9087605,22.5000171 28.750003,23.3412518 28.750003,24.375004 Z M2.50000562,18.124991 C2.50000562,19.1587432 3.34124039,20.0000127 4.37499124,20.0000127 C5.4087434,20.0000127 6.25001295,19.1587432 6.25001295,18.124991 C6.25001295,17.0912389 5.4087434,16.2500041 4.37499124,16.2500041 C3.34124039,16.2500041 2.50000562,17.0912389 2.50000562,18.124991 Z M5.00001297,18.124991 C5.00001297,18.4699997 4.71999993,18.7500084 4.37499124,18.7500084 C4.02998385,18.7500084 3.75000864,18.4699997 3.75000864,18.124991 C3.75000864,17.7800171 4.02998385,17.5000041 4.37499124,17.5000041 C4.71999993,17.5000041 5.00001297,17.7800171 5.00001297,18.124991 Z M25.6250083,23.7499866 L15.6249824,23.7499866 C15.2800085,23.7499866 14.9999998,24.0299953 14.9999998,24.375004 C14.9999998,24.7200127 15.2800085,24.9999909 15.6249824,24.9999909 L25.6250083,24.9999909 C25.970017,24.9999909 26.2499909,24.7200127 26.2499909,24.375004 C26.2499909,24.0299953 25.970017,23.7499866 25.6250083,23.7499866 Z M25.6250083,26.2499914 L15.6249824,26.2499914 C15.2800085,26.2499914 14.9999998,26.5300005 14.9999998,26.8750109 C14.9999998,27.2199844 15.2800085,27.4999935 15.6249824,27.4999935 L25.6250083,27.4999935 C25.970017,27.4999935 26.2499909,27.2199844 26.2499909,26.8750109 C26.2499909,26.5300005 25.970017,26.2499914 25.6250083,26.2499914 Z" id="Fill-1"></path>
        </g>
    </g>
</svg>