<?xml version="1.0" encoding="UTF-8"?>
<svg width="27px" height="30px" viewBox="0 0 27 30" version="1.1" xmlns="http://www.w3.org/2000/svg" xmlns:xlink="http://www.w3.org/1999/xlink">
    <!-- Generator: Sketch 63.1 (92452) - https://sketch.com -->
    <title>Combined Shape</title>
    <desc>Created with Sketch.</desc>
    <g id="Symbols" stroke="none" stroke-width="1" fill="none" fill-rule="evenodd">
        <g id="Icon-/-Platform-/-AI" fill="#3EC4FF">
            <path d="M11.8012428,-3.37507799e-14 C20.0919114,-3.37507799e-14 23.6024508,6.70624003 23.6024508,9.37499344 C23.6024508,10.914996 23.4509075,11.9437513 23.3664554,12.3937508 C24.2720239,13.9699881 26.0869262,17.2387147 26.0869262,18.1249702 C26.0869262,19.0412257 25.1117664,19.5512294 24.3987499,19.7999639 L24.8136407,21.0524755 C24.8881624,21.2774753 24.8297972,21.5249706 24.6633278,21.6924791 L24.0422286,22.3174653 C24.0022768,22.3576659 23.9582046,22.3912369 23.9113711,22.4181783 C23.9107298,22.4273227 23.9096265,22.439377 23.9081852,22.4514695 C23.8667896,22.7987561 23.5551335,23.0425123 23.2276469,22.9995646 C23.3043338,23.1157688 23.3274816,23.1624731 23.4516423,23.3531902 C23.6342725,23.6373464 23.9130504,24.0667372 23.9130504,24.8990276 C23.9130504,26.8136279 21.8580789,27.1621706 20.3594894,27.4160168 C18.3593004,27.7557547 16.1984203,28.9669011 15.9829466,29.4177614 C15.9829466,29.7663389 15.7199687,30 15.3827517,30 C15.0467782,30 14.7825915,29.6678491 14.7825915,29.319272 C14.7825915,27.8441515 18.5540741,26.4435775 20.1622635,26.1707991 C22.5142608,25.7704365 22.6956519,25.3915444 22.6956519,24.8990276 C22.6956519,24.4519237 22.5885346,24.2864761 22.4399913,24.0566459 C22.2914741,23.8255245 22.08697,23.5097987 22.08697,23.0046124 C22.08697,22.4918738 22.2963393,22.1912872 22.4704521,22.0308874 C22.6416535,21.8739312 22.8317381,21.7994088 22.9948705,21.7654547 C23.0132775,21.644122 23.0706408,21.5276075 23.1639426,21.4337229 L23.5130379,21.0824798 L23.0136298,19.5737207 C22.9577646,19.4049731 22.9776168,19.2199646 23.0645645,19.0649952 C23.1527818,18.9112258 23.3018599,18.8012434 23.4757597,18.7649695 C24.1465676,18.6224696 24.7900538,18.2887222 24.8471885,18.1162181 C24.8012146,17.6249882 23.4235901,14.9762478 22.1738916,12.8162286 C22.0944047,12.6762374 22.0695526,12.5087289 22.1080612,12.3512422 C22.1092917,12.3387378 22.3602479,11.2874912 22.3602479,9.37499344 C22.3602479,7.65497805 19.7192292,1.25000289 11.8012428,1.25000289 C3.82358947,1.25000289 1.24223769,7.56624772 1.24223769,10.6249963 C1.24223769,13.4112409 2.98135045,16.44622 4.37886447,18.884978 C5.4037285,20.6712325 6.21118843,22.0824743 6.21118843,23.1249775 C6.21118843,25.4887095 2.7180051,29.3649589 2.31923904,29.7987333 C2.19751049,29.9324524 2.03104112,29.9999656 1.86333957,29.9999656 C1.71302801,29.9999656 1.5614834,29.9449566 1.44222006,29.8337299 C1.19006862,29.599981 1.17391124,29.2049582 1.40744054,28.9512311 C2.39752678,27.8699785 4.96895074,24.7162321 4.96895074,23.1249775 C4.96895074,22.4174609 4.16025907,21.0049799 3.30309485,19.5087208 C1.83229135,16.9424803 -3.90798505e-14,13.7449884 -3.90798505e-14,10.6249963 C-3.90798505e-14,6.21373625 3.66085183,-3.37507799e-14 11.8012428,-3.37507799e-14 Z M7.82609525,6.95651365 C8.54608571,6.95651365 9.13045895,7.44346091 9.13045895,8.04348195 C9.13045895,8.6434769 8.54608571,9.1304546 7.82609525,9.1304546 C7.77516323,9.1304546 7.72491014,9.12801794 7.67549477,9.12327697 L7.28260892,9.53562804 L7.28260892,11.5276692 L10.6949919,15.1123694 C10.8061918,15.2291823 10.8695874,15.3887082 10.8695874,15.5557428 L10.8695874,29.3719706 C10.8695874,29.7186409 10.6017485,29.9999997 10.2717402,29.9999997 C9.94173192,29.9999997 9.67392788,29.7186409 9.67392788,29.3719706 L9.67392788,15.8157468 L6.26151011,12.2323293 C6.15031024,12.1142337 6.08694944,11.9547426 6.08694944,11.7876732 L6.08694944,9.27562399 C6.08694944,9.10858941 6.15031024,8.9490635 6.26151011,8.83100277 L6.61890427,8.45568779 C6.55627165,8.32854907 6.52173155,8.18935572 6.52173155,8.04348195 C6.52173155,7.44346091 7.10607,6.95651365 7.82609525,6.95651365 Z M9.0215069,3.91303893 C9.18536323,3.91303893 9.34178044,3.97886494 9.45756726,4.09439959 L10.689405,5.33663727 C10.9296351,5.57886308 10.9296351,5.97266262 10.689405,6.21488842 C10.4492096,6.45714466 10.0587057,6.45714466 9.81850597,6.21488842 L8.76651154,5.15527661 L6.81283121,5.15527661 L4.71009452,7.27576545 L4.71009452,12.9726545 L8.22572956,16.5180112 C8.34029465,16.6335415 8.40560762,16.7912848 8.40560762,16.9565194 L8.40560762,29.3788645 C8.40560762,29.7217285 8.12966446,29.9999651 7.7896692,29.9999651 C7.44967394,29.9999651 7.17376992,29.7217285 7.17376992,29.3788645 L7.17376992,17.2136365 L3.65809835,13.6683145 C3.54353327,13.5527842 3.47825682,13.3950105 3.47825682,13.2298064 L3.47825682,7.01861792 C3.47825682,6.85341377 3.54353327,6.69564004 3.65809835,6.57887496 L6.12177114,4.09439959 C6.23756231,3.97886494 6.3940143,3.91303893 6.5578315,3.91303893 L9.0215069,3.91303893 Z M14.5905656,17.5729448 C14.8449088,17.8151967 14.8449088,18.2089527 14.5905656,18.4512003 L13.4781017,19.5120077 L13.4781017,23.9665113 L13.9032228,24.3716123 C13.9765065,24.3560088 14.0525156,24.3477978 14.1304314,24.3477978 C14.7304263,24.3477978 15.217404,24.834745 15.217404,25.4347661 C15.217404,26.0347597 14.7304263,26.5217383 14.1304314,26.5217383 C13.5304104,26.5217383 13.0434631,26.0347597 13.0434631,25.4347661 L13.0498449,25.3163803 L13.0498449,25.3163803 L12.3643074,24.6633757 C12.2430118,24.5466149 12.1738989,24.3888803 12.1738989,24.2236501 L12.1738989,19.2548689 C12.1738989,19.0896691 12.2430118,18.9319041 12.3643074,18.8151433 L13.6685102,17.5729448 C13.9228142,17.330732 14.3362616,17.330732 14.5905656,17.5729448 Z M19.4061731,20.1748244 C19.6182294,20.4079806 19.6182294,20.7869628 19.4061731,21.0201234 L18.4786568,22.0411265 L18.4786568,24.1848023 C18.4786568,24.5147932 18.2350788,24.7826147 17.9349574,24.7826147 C17.6348621,24.7826147 17.3912841,24.5147932 17.3912841,24.1848023 L17.3912841,21.7936355 C17.3912841,21.6346357 17.4489058,21.4827881 17.5500361,21.3704056 L18.6374088,20.1748244 C18.8494389,19.9416942 19.1941472,19.9416942 19.4061731,20.1748244 Z M20.6914803,14.9642522 C20.928893,15.2065041 20.928893,15.6002601 20.6914803,15.8425077 L16.0001683,20.6299021 L16.0001683,22.8571517 C16.0001683,23.2000078 15.7274252,23.4782336 15.3913647,23.4782336 C15.055339,23.4782336 14.7825915,23.2000078 14.7825915,22.8571517 L14.7825915,20.3727633 C14.7825915,20.2075635 14.8471132,20.0497941 14.9603522,19.9330333 L19.8306639,14.9642522 C20.0680767,14.7220394 20.4540632,14.7220394 20.6914803,14.9642522 Z M18.0828311,13.6689754 C18.3202222,13.9233186 18.3202222,14.3367268 18.0828311,14.59107 L16.8655891,15.895238 C16.751137,16.017864 16.5965677,16.0869726 16.4346505,16.0869726 L14.0000968,16.0869726 C13.8382143,16.0869726 13.6836102,16.017864 13.5691929,15.8965685 L12.3519161,14.5923656 C12.1145598,14.3380225 12.1145598,13.9246099 12.3519161,13.6703058 C12.5893071,13.4159627 12.9751632,13.4159627 13.2125542,13.6703058 L14.2520791,14.7827698 L16.1826681,14.7827698 L17.2222278,13.6689754 C17.4596188,13.414667 17.8454749,13.414667 18.0828311,13.6689754 Z M9.72612347,10.1908142 L10.7574701,11.3038695 L18.9613606,11.3038695 C19.294695,11.3038695 19.5651946,11.5961256 19.5651946,11.9562731 C19.5651946,12.3164205 19.294695,12.6087158 18.9613606,12.6087158 L10.5074747,12.6087158 C10.3468619,12.6087158 10.1934751,12.5395332 10.0799578,12.4181812 L8.87225925,11.1133653 C8.63676822,10.8588961 8.63676822,10.4452835 8.87225925,10.1908142 C9.10778071,9.93637975 9.49060201,9.93637975 9.72612347,10.1908142 Z M19.3871688,7.58202596 C19.6245685,7.83636915 19.6245685,8.24977736 19.3871688,8.50412054 L18.169831,9.80828859 C18.0554094,9.93091454 17.9008314,10.0000232 17.7389055,10.0000232 L14.0868967,10.0000232 C13.7509362,10.0000232 13.4782452,9.70787132 13.4782452,9.34790652 C13.4782452,8.98797216 13.7509362,8.69582032 14.0868967,8.69582032 L17.4869101,8.69582032 L18.5265219,7.58202596 C18.7638912,7.32771756 19.1497995,7.32771756 19.3871688,7.58202596 Z M16.5217373,4.34782103 C17.2417278,4.34782103 17.826101,4.93215948 17.826101,5.65218473 C17.826101,6.3721752 17.2417278,6.95654843 16.5217373,6.95654843 C16.4050932,6.95654843 16.2920101,6.94121214 16.1843954,6.91244746 L15.8963641,7.19968293 C15.7737338,7.32231322 15.6081253,7.39142619 15.4346429,7.39142619 L13.0961761,7.39142619 L11.9823948,8.50526402 C11.8558514,8.63177692 11.6889473,8.69567684 11.522004,8.69567684 C11.3550651,8.69567684 11.1881261,8.63177692 11.0602871,8.50526402 C10.8059744,8.25091214 10.8059744,7.83748654 11.0602871,7.58313466 L12.3645117,6.278884 C12.4871029,6.15629284 12.6527462,6.08717553 12.8261938,6.08717553 L15.1646606,6.08717553 L15.2614723,5.98951478 C15.232709,5.8819025 15.2173736,5.76882319 15.2173736,5.65218473 C15.2173736,4.93215948 15.8017121,4.34782103 16.5217373,4.34782103 Z" id="Combined-Shape"></path>
        </g>
    </g>
</svg>