<?xml version="1.0" encoding="UTF-8"?>
<svg width="14px" height="30px" viewBox="0 0 14 30" version="1.1" xmlns="http://www.w3.org/2000/svg" xmlns:xlink="http://www.w3.org/1999/xlink">
    <!-- Generator: Sketch 63.1 (92452) - https://sketch.com -->
    <title>Fill 1</title>
    <desc>Created with Sketch.</desc>
    <g id="Product" stroke="none" stroke-width="1" fill="none" fill-rule="evenodd">
        <g transform="translate(-583.000000, -6064.000000)" fill="#3EC4FF" id="SOLUTIONS">
            <g transform="translate(0.000000, 5968.000000)">
                <path d="M587.288546,126 C587.241986,126 587.195426,125.995006 587.14765,125.983741 C586.870756,125.917503 586.67594,125.665014 586.67594,125.375015 L586.67594,113.5 L583.612847,113.5 C583.433967,113.5 583.26488,113.421265 583.147247,113.282517 C583.030831,113.143765 582.979375,112.961239 583.007568,112.779987 L585.458057,96.5300174 C585.503401,96.225 585.760679,96 586.063335,96 L595.865257,96 C596.0625,96 596.247526,96.0962435 596.361479,96.2599956 C596.477861,96.422513 596.508518,96.6324913 596.446022,96.8237348 L593.038609,107.249991 L595.865257,107.249991 C596.077222,107.249991 596.27447,107.362491 596.387205,107.546261 C596.498692,107.729991 596.508518,107.961261 596.412931,108.153748 L587.836257,125.653751 C587.730883,125.870002 587.517666,126 587.288546,126 Z M584.327147,112.250004 L587.288546,112.250004 C587.626722,112.250004 587.901183,112.530013 587.901183,112.874987 L587.901183,122.727514 L594.874026,108.499995 L592.189522,108.499995 C591.992274,108.499995 591.807252,108.403752 591.6933,108.239995 C591.576918,108.077517 591.546261,107.8675 591.608757,107.676256 L595.01617,97.2500043 L586.588932,97.2500043 L584.327147,112.250004 Z" id="Fill-1"></path>
            </g>
        </g>
    </g>
</svg>