<?xml version="1.0" encoding="UTF-8"?>
<svg width="30px" height="30px" viewBox="0 0 30 30" version="1.1" xmlns="http://www.w3.org/2000/svg" xmlns:xlink="http://www.w3.org/1999/xlink">
    <!-- Generator: Sketch 63.1 (92452) - https://sketch.com -->
    <title>Combined Shape</title>
    <desc>Created with Sketch.</desc>
    <g id="Product" stroke="none" stroke-width="1" fill="none" fill-rule="evenodd">
        <g transform="translate(-972.000000, -6162.000000)" fill="#3EC4FF" id="SOLUTIONS">
            <g transform="translate(0.000000, 5968.000000)">
                <path d="M987.227273,194 L987.263,194.003 L987.31335,194.003224 C989.785751,194.054146 992.11312,194.706287 994.154871,195.819059 C994.252547,195.817139 994.352146,195.84567 994.443191,195.906814 C994.5091,195.951389 994.564503,196.009062 994.608376,196.075416 C996.812577,197.378891 998.657457,199.230389 999.952621,201.441212 C1000.00699,201.489107 1000.05411,201.547322 1000.09178,201.614718 C1000.12944,201.681042 1000.1549,201.751151 1000.16889,201.822343 C1001.33587,203.95545 1002,206.401653 1002,209.000018 C1002,210.298231 1001.83421,211.55846 1001.5227,212.760643 C1001.5378,212.810956 1001.54545,212.864868 1001.54545,212.920468 C1001.54545,213.091766 1001.47276,213.247042 1001.35508,213.359978 C999.482226,219.510972 993.755382,224 987.000018,224 C978.72915,224 972,217.270891 972,209.000018 C972,203.482782 974.99434,198.651581 979.443222,196.046212 C979.490174,195.992512 979.547509,195.946085 979.613664,195.908814 C979.679809,195.870843 979.749866,195.8452 979.821084,195.831141 C981.954689,194.664345 984.401249,194 987.000018,194 L987.198957,194.000578 C987.208348,194.000194 987.217788,194 987.227273,194 Z M987.062691,209.795464 C985.344046,209.795464 983.929759,211.051067 983.783616,212.647252 C983.806602,212.715202 983.818218,212.787987 983.818218,212.863636 C983.818218,213.240018 983.530718,213.545491 983.176486,213.545491 L974.079839,213.54627 C975.958579,218.870419 981.040738,222.69565 987.000018,222.69565 C992.95927,222.69565 998.041423,218.870419 999.920162,213.54627 L991.012545,213.545491 C990.64915,213.545491 990.354255,213.265477 990.354255,212.920468 C990.354255,211.196723 988.878323,209.795464 987.062691,209.795464 Z M987.230677,212.181818 C987.603795,212.181818 987.909091,212.487291 987.909091,212.863636 C987.909091,213.240018 987.605182,213.545491 987.230677,213.545491 C986.856173,213.545491 986.545455,213.240018 986.545455,212.863636 C986.545455,212.487291 986.8426,212.181818 987.215755,212.181818 L987.230677,212.181818 Z M980.894509,196.741874 L981.90865,198.4567 C982.096836,198.774686 981.985005,199.181841 981.6591,199.36545 C981.551368,199.426645 981.434086,199.454582 981.3182,199.454582 C981.083645,199.454582 980.853182,199.334836 980.72775,199.121968 L979.713399,197.407621 C978.017645,198.477283 976.571787,199.908532 975.484909,201.592283 L977.163464,202.727473 C977.441745,202.915659 977.5372,203.333045 977.376514,203.659027 C977.269409,203.877245 977.072627,204 976.87235,204 C976.773395,204 976.673259,203.971359 976.581268,203.908632 L974.829,202.723304 C973.920467,204.478001 973.380377,206.453019 973.311794,208.545296 L975.409104,208.545455 C975.78548,208.545455 976.090947,208.749105 976.090947,209 C976.090947,209.250923 975.78548,209.454573 975.409104,209.454573 L973.311794,209.454738 C973.342461,210.390291 973.467401,211.3024 973.677401,212.18185 L982.520352,212.181148 C982.891421,210.11951 984.78699,208.545455 987.062691,208.545455 C987.363463,208.545455 987.657603,208.572957 987.942468,208.625454 L987.946118,208.609909 L987.946118,208.609909 L990.369464,201.686423 C990.483386,201.360386 990.829909,201.192977 991.146177,201.310055 C991.461214,201.428377 991.623555,201.789659 991.508459,202.116945 L989.101156,208.997245 C990.434567,209.624267 991.404911,210.846285 991.624759,212.295482 L1000.29486,212.295857 C1000.52161,211.38131 1000.65621,210.430783 1000.68821,209.454738 L998.969686,209.454573 C998.635164,209.454573 998.363636,209.250923 998.363636,209 C998.363636,208.749105 998.635164,208.545455 998.969686,208.545455 L1000.68821,208.545296 C1000.62185,206.520792 1000.11403,204.606074 999.258127,202.894509 L997.544127,203.908691 C997.439018,203.971377 997.3246,204 997.211541,204 C996.982705,204 996.757868,203.877327 996.635491,203.65925 C996.450577,203.333486 996.559641,202.916414 996.878955,202.728314 L998.593009,201.714394 C997.509507,199.996373 996.054882,198.534801 994.342554,197.443098 L993.514786,199.121741 C993.410227,199.334768 993.218205,199.454582 993.022741,199.454582 C992.926136,199.454582 992.828405,199.426627 992.738659,199.365364 C992.467073,199.18165 992.373882,198.775623 992.5307,198.456136 L993.321614,196.852355 C991.683175,195.996307 989.851044,195.462112 987.90967,195.334221 L987.909127,197.409105 C987.909127,197.785477 987.603655,198.090945 987.227273,198.090945 C986.850927,198.090945 986.545455,197.785477 986.545455,197.409105 L986.545296,195.311793 C984.520792,195.378155 982.606074,195.885971 980.894509,196.741874 Z" id="Combined-Shape"></path>
            </g>
        </g>
    </g>
</svg>