<?xml version="1.0" encoding="UTF-8"?>
<svg width="20px" height="25px" viewBox="0 0 20 25" version="1.1" xmlns="http://www.w3.org/2000/svg" xmlns:xlink="http://www.w3.org/1999/xlink">
    <!-- Generator: Sketch 63.1 (92452) - https://sketch.com -->
    <title>Combined Shape</title>
    <desc>Created with Sketch.</desc>
    <g id="Solutions" stroke="none" stroke-width="1" fill="none" fill-rule="evenodd">
        <g id="Solutions-—-Hover" transform="translate(-1179.000000, -3461.000000)" fill="#3EC4FF">
            <g id="Group-3" transform="translate(119.000000, 3358.000000)">
                <g id="Group" transform="translate(1.000000, 92.000000)">
                    <path d="M1071.10528,11 C1072.16959,11 1073.03512,11.9199965 1073.03512,13.0512912 L1073.03484,13.3792814 C1073.34471,13.2050631 1073.7044,13.1052632 1074.08773,13.1052632 C1075.2488,13.1052632 1076.19301,14.0208561 1076.19301,15.1467368 L1076.19293,16.2905016 C1076.43989,16.1806622 1076.71298,16.1196246 1077.00002,16.1196246 C1078.103,16.1196246 1079,17.0209123 1079,18.1292 L1079,28.6794246 C1079,32.2805863 1076.08401,35.2105263 1072.5,35.2105263 L1069.619,35.2105263 C1066.98002,35.2105263 1064.53301,33.767653 1063.07301,31.3511404 L1059.24299,25.1144491 C1059.07501,24.7949228 1059,24.4834561 1059,24.1578947 C1059,23.049607 1059.897,22.1483193 1061,22.1483193 C1061.627,22.1483193 1062.20599,22.4356982 1062.58801,22.9360842 L1065.09801,25.3365123 C1065.341,25.6078035 1065.601,25.5314386 1065.67799,25.5012842 C1065.753,25.4731544 1066,25.3525965 1066,25.0320491 L1066,15.1148386 C1066,14.0065509 1066.89701,13.1052632 1068,13.1052632 C1068.43936,13.1052632 1068.84602,13.2482643 1069.17634,13.4903878 L1069.17544,13.0512912 C1069.17544,11.9199965 1070.04096,11 1071.10528,11 Z M1071.10528,12.0256456 C1070.57361,12.0256456 1070.14036,12.4851228 1070.14036,13.0512912 L1070.14036,23.8205263 C1070.14036,24.1036105 1069.92421,24.3333614 1069.65788,24.3333614 C1069.39159,24.3333614 1069.17544,24.1036105 1069.17544,23.8205263 L1069.17579,15.4972023 C1069.06823,15.4050354 1069,15.2678985 1069,15.1148386 C1069,14.5601825 1068.55099,14.1100491 1068,14.1100491 C1067.449,14.1100491 1067,14.5601825 1067,15.1148386 L1067,25.0320491 C1067,25.6630667 1066.62002,26.2166982 1066.033,26.4407825 C1065.44701,26.6648386 1064.79701,26.5050737 1064.379,26.0328211 L1061.84599,23.6052632 C1061.17499,22.7552246 1060,23.2877579 1060,24.1578947 C1060,24.3206772 1060.038,24.4754 1060.111,24.6191018 L1063.92401,30.8266632 C1065.20399,32.943727 1067.332,34.20574 1069.619,34.20574 L1072.5,34.20574 C1075.53302,34.20574 1078,31.7259309 1078,28.6794246 L1078,18.1292 C1078,17.5745439 1077.55102,17.1244105 1077.00002,17.1244105 C1076.66853,17.1244105 1076.37398,17.2873171 1076.19188,17.5378842 L1076.19301,23.8229789 C1076.19301,24.1046807 1075.95721,24.3333333 1075.66668,24.3333333 C1075.37617,24.3333333 1075.14037,24.1046807 1075.14037,23.8229789 L1075.13917,18.4768456 C1075.05299,18.386571 1075.00002,18.2640609 1075.00002,18.1292 C1075.00002,17.8684717 1075.04966,17.6191996 1075.13995,17.3904232 L1075.14037,15.1467368 C1075.14037,14.5832772 1074.66773,14.126 1074.08773,14.126 C1073.50774,14.126 1073.03509,14.5832772 1073.03509,15.1467368 L1073.03512,23.8205263 C1073.03512,24.1036105 1072.81896,24.3333614 1072.55264,24.3333614 C1072.28632,24.3333614 1072.0702,24.1036105 1072.0702,23.8205263 L1072.06912,15.427288 C1072.01435,15.3467735 1071.98246,15.2503464 1071.98246,15.1467368 C1071.98246,14.9443065 1072.01298,14.7486742 1072.0698,14.5639393 L1072.0702,13.0512912 C1072.0702,12.4851228 1071.63694,12.0256456 1071.10528,12.0256456 Z" id="Combined-Shape"></path>
                </g>
            </g>
        </g>
    </g>
</svg>