<?xml version="1.0" encoding="UTF-8"?>
<svg width="24px" height="24px" viewBox="0 0 24 24" version="1.1" xmlns="http://www.w3.org/2000/svg" xmlns:xlink="http://www.w3.org/1999/xlink">
    <!-- Generator: Sketch 63.1 (92452) - https://sketch.com -->
    <title>Fill 1</title>
    <desc>Created with Sketch.</desc>
    <g id="Solutions" stroke="none" stroke-width="1" fill="none" fill-rule="evenodd">
        <g id="Solutions-—-Hover" transform="translate(-612.000000, -3462.000000)" fill="#3EC4FF">
            <g id="Group-3" transform="translate(119.000000, 3358.000000)">
                <g id="Group" transform="translate(1.000000, 92.000000)">
                    <path d="M503.586917,18.0000025 C504.965006,18.0000025 506.087102,16.8779848 506.087102,15.4999896 C506.087102,14.1219944 504.965006,13.0000025 503.586917,13.0000025 C502.208831,13.0000025 501.086763,14.1219944 501.086763,15.4999896 C501.086763,16.8779848 502.208831,18.0000025 503.586917,18.0000025 Z M503.586917,14.0000015 C504.413973,14.0000015 505.087033,14.6729887 505.087033,15.4999896 C505.087033,16.3269905 504.413973,17.0000015 503.586917,17.0000015 C502.75986,17.0000015 502.086831,16.3269905 502.086831,15.4999896 C502.086831,14.6729887 502.75986,14.0000015 503.586917,14.0000015 Z M502.350838,18.9999827 C502.073822,18.9999827 501.792811,19.0490052 501.517802,19.1469947 C501.257761,19.2389807 501.121761,19.5249908 501.213778,19.7849871 C501.30679,20.0449834 501.591799,20.1819954 501.851812,20.0889903 C502.019836,20.0299921 502.187829,19.9999827 502.35186,19.9999827 L504.821013,19.9999827 C505.576059,19.9999827 506.215112,20.5650037 506.309112,21.3139908 L506.804145,25.2729921 C506.836141,25.5259901 507.05115,25.7109778 507.300169,25.7109778 C507.321167,25.7109778 507.342169,25.7099865 507.361184,25.7069813 C507.635198,25.6729778 507.829208,25.422985 507.795201,25.1489888 L507.300169,21.1899875 C507.145153,19.9409835 506.07809,18.9999827 504.820018,18.9999827 L502.350838,18.9999827 Z M496.500461,17 C497.878547,17 499.000615,15.8779857 499.000615,14.5 C499.000615,13.1219954 497.878547,12 496.500461,12 C495.122373,12 494.000304,13.1219954 494.000304,14.5 C494.000304,15.8779857 495.122373,17 496.500461,17 Z M496.500461,13.0000025 C497.327518,13.0000025 498.000546,13.6729897 498.000546,14.4999906 C498.000546,15.3269915 497.327518,16.0000025 496.500461,16.0000025 C495.673404,16.0000025 495.000372,15.3269915 495.000372,14.4999906 C495.000372,13.6729897 495.673404,13.0000025 496.500461,13.0000025 Z M515.853725,35.1469904 L513.146552,32.4399972 C513.673581,31.7629857 514.000614,30.9229761 514.000614,29.9999897 C514.000614,27.7939809 512.20648,25.9999897 510.000343,25.9999897 C507.79421,25.9999897 506.000072,27.7939809 506.000072,29.9999897 C506.000072,32.2059835 507.79421,33.9999734 510.000343,33.9999734 C510.922422,33.9999734 511.762456,33.6739793 512.439513,33.1469875 L515.146686,35.8539823 C515.244686,35.9509815 515.372696,35.9999767 515.500703,35.9999767 C515.627719,35.9999767 515.755729,35.9509815 515.853725,35.8539823 C516.048758,35.6589911 516.048758,35.3419801 515.853725,35.1469904 Z M510.000343,32.9999727 C508.34623,32.9999727 507.000141,31.6539702 507.000141,29.9999922 C507.000141,28.3459943 508.34623,26.9999922 510.000343,26.9999922 C511.654456,26.9999922 513.000546,28.3459943 513.000546,29.9999922 C513.000546,31.6539702 511.654456,32.9999727 510.000343,32.9999727 Z M505.702055,32.8799916 C505.414042,32.8609777 505.188035,33.067982 505.168028,33.3429696 L505.12104,34.0009665 L502.051829,34.0009665 L501.691805,28.9639798 C501.672793,28.6889922 501.440776,28.4689785 501.157778,28.500975 C500.882745,28.5199872 500.674735,28.7599765 500.694742,29.0349919 L501.087754,34.5359778 C501.106769,34.7969653 501.324783,34.9999759 501.586783,34.9999759 L505.587054,34.9999759 C505.849078,34.9999759 506.067095,34.7969653 506.085088,34.5359778 L506.165091,33.4139831 C506.185098,33.1389677 505.977088,32.8999693 505.702055,32.8799916 Z M500.987744,26.2369773 L500.325709,20.428983 C500.168708,19.0439896 499.071634,18.000008 497.776554,18.000008 L495.222383,18.000008 C493.927302,18.000008 492.83122,19.0439896 492.6732,20.428983 L492.011164,26.2369773 C491.956157,26.7229942 492.106185,27.205978 492.422198,27.5599986 C492.69522,27.864993 493.057227,28.0429824 493.449273,28.064972 L494.001296,35.5369712 C494.021303,35.7979861 494.238326,35.9999767 494.500324,35.9999767 L498.500595,35.9999767 C498.762622,35.9999767 498.979617,35.7979861 498.997613,35.5369712 L499.549661,28.064972 C499.941682,28.0429824 500.304708,27.8659843 500.576739,27.5599986 C500.893744,27.2049867 501.043771,26.7229942 500.987744,26.2369773 Z M499.831668,26.8939818 C499.774677,26.9579957 499.649672,27.0669834 499.465665,27.0669834 L499.086625,27.0669834 C498.824601,27.0669834 498.606612,27.2690006 498.587596,27.5299882 L498.035576,34.9999827 L494.964353,34.9999827 L494.413322,27.5299882 C494.393315,27.2690006 494.17632,27.0669834 493.914294,27.0669834 L493.535256,27.0669834 C493.351248,27.0669834 493.227235,26.9579957 493.169252,26.8939818 C493.042235,26.7509907 492.98224,26.5529978 493.005224,26.3499858 L493.667288,20.5419951 C493.76727,19.6629942 494.436334,18.9999827 495.223375,18.9999827 L497.777545,18.9999827 C498.563593,18.9999827 499.232629,19.6629942 499.333658,20.5419951 L499.995696,26.3499858 C500.01868,26.5529978 499.958684,26.7509907 499.831668,26.8939818 Z" id="Fill-1"></path>
                </g>
            </g>
        </g>
    </g>
</svg>