<?xml version="1.0" encoding="UTF-8"?>
<svg width="31px" height="30px" viewBox="0 0 31 30" version="1.1" xmlns="http://www.w3.org/2000/svg" xmlns:xlink="http://www.w3.org/1999/xlink">
    <!-- Generator: Sketch 63.1 (92452) - https://sketch.com -->
    <title>Fill 1</title>
    <desc>Created with Sketch.</desc>
    <g id="Solutions" stroke="none" stroke-width="1" fill="none" fill-rule="evenodd">
        <g id="Solutions-—-Hover" transform="translate(-974.000000, -1579.000000)" fill="#3EC4FF">
            <g id="Group-2" transform="translate(-1.000000, 1491.000000)">
                <path d="M988.514839,107.374995 C988.514839,107.029982 988.238926,106.750008 987.898917,106.750008 L976.7861,106.751248 C977.022605,105.3925 978.024131,104.276252 979.380432,103.932517 L982.691748,103.092487 C982.912235,103.036235 983.085939,102.861252 983.140148,102.637491 L983.534339,101.038761 C983.588552,100.818756 983.520791,100.586248 983.358187,100.431239 C982.584583,99.6937563 982.072087,98.6149825 981.988343,97.5437564 C981.962474,97.2187564 981.695148,96.968752 981.373639,96.968752 L981.243048,96.968752 C981.1482,96.968752 981.068117,96.8975173 981.057017,96.8025173 L980.856226,95.1725086 C980.847604,95.0987564 980.880869,95.0475042 980.901813,95.0224955 C980.922761,94.9987608 980.969574,94.9587347 981.126,94.9587347 C981.303404,94.9587347 981.47093,94.8825086 981.587978,94.7475129 C981.704991,94.6137608 981.759204,94.4349869 981.737035,94.2562477 C981.6853,93.8424869 981.55223,92.6837651 981.55223,92.2962478 C981.55223,91.3175086 981.55223,90.0987478 984.556809,90.0687434 C984.682478,90.0675043 984.806891,90.027513 984.909139,89.9524913 C985.756682,89.3362565 986.67813,89.2537565 987.467761,89.2537565 C988.534565,89.2537565 989.251517,89.5612565 989.659282,90.1937478 C990.169261,90.9824869 989.881022,91.2937391 989.739361,91.4462652 L989.337739,91.8537608 C989.229348,91.9637434 989.165291,92.1112434 989.157891,92.2662478 L989.060565,94.3062651 C989.0532,94.4762564 989.113556,94.6412477 989.228126,94.7650129 C989.342695,94.8887434 989.5016,94.9600086 989.669126,94.9612521 C989.743026,94.9612521 989.788617,95.0025173 989.809565,95.0262521 C989.834208,95.0550129 989.862552,95.1037521 989.853895,95.1725086 L989.653104,96.8037564 C989.640782,96.8987564 989.560735,96.9699912 989.427665,96.9699912 C989.106156,96.9699912 988.838826,97.2199999 988.812961,97.5449955 C988.726735,98.6325172 988.177313,99.7599955 987.377835,100.487491 C987.20783,100.642495 987.136374,100.88 987.191809,101.105 L987.570009,102.637491 C987.624217,102.860013 987.796669,103.034995 988.017187,103.091248 L988.184713,103.133752 C988.508695,103.215013 988.848704,103.014982 988.93123,102.68 C988.995287,102.42 988.890595,102.157491 988.684848,102.013748 L988.472987,101.151261 C989.251517,100.332482 989.792317,99.2437564 989.982048,98.1199955 C990.453835,97.9325085 990.808613,97.493739 990.873926,96.9574868 L991.074717,95.3275129 C991.12523,94.9212608 991.002039,94.5124912 990.737187,94.2037521 C990.617695,94.0637651 990.473556,93.9512651 990.314656,93.8687347 L990.377456,92.5662347 L990.623839,92.3149869 C991.037752,91.8675043 991.5958,90.9087391 990.690374,89.5062435 C990.046104,88.5062478 988.962022,88 987.467761,88 C986.897391,88 985.592822,88 984.354791,88.8212565 C980.782322,88.9174956 980.319122,90.7224913 980.319122,92.2950086 C980.319122,92.6362651 980.390578,93.3362347 980.447235,93.8412477 C980.269865,93.9237434 980.109704,94.0437521 979.977891,94.1950043 C979.70934,94.5050173 979.583704,94.9162651 979.634216,95.326239 L979.83501,96.9562477 C979.905213,97.5287346 980.304356,97.9899999 980.825435,98.153752 C981.01513,99.2274998 981.526365,100.273756 982.255639,101.075 L982.035156,101.968761 L979.082313,102.717508 C976.973349,103.252487 975.5,105.1675 975.5,107.374995 C975.5,107.72 975.775952,108.000013 976.115927,108.000013 L987.898917,108.000013 C988.238926,108.000013 988.514839,107.72 988.514839,107.374995 Z M993.362308,89.2500043 L997.057969,89.2500043 C998.7555,89.2500043 1000.13767,90.6524956 1000.13767,92.3749912 L1000.13767,94.6175173 L998.724713,93.1837434 C998.484508,92.9400086 998.093987,92.9400086 997.853778,93.1837434 C997.613539,93.4274825 997.613539,93.8237477 997.853778,94.0674869 L1000.31755,96.5674912 C1000.37543,96.6262564 1000.44319,96.6700042 1000.51465,96.7000042 C1000.51587,96.7000042 1000.51709,96.7024868 1000.51835,96.7024868 C1000.51835,96.7024868 1000.51957,96.7024868 1000.51957,96.7024868 C1000.59473,96.7337607 1000.67355,96.7499868 1000.75363,96.7499868 C1000.83246,96.7499868 1000.91253,96.7337607 1000.98643,96.7037607 C1001.06037,96.6725173 1001.12935,96.6274955 1001.18849,96.5674912 L1003.65226,94.0674869 C1003.89246,93.8237477 1003.89246,93.4274825 1003.65226,93.1837434 C1003.41202,92.9400086 1003.02153,92.9400086 1002.78129,93.1837434 L1001.36956,94.6162434 L1001.36956,92.3749912 C1001.36956,89.962513 999.435517,88 997.057969,88 L993.362308,88 C993.022335,88 992.746382,88.2800087 992.746382,88.6249826 C992.746382,88.9699913 993.022335,89.2500043 993.362308,89.2500043 Z M983.507248,116.749998 C981.809717,116.749998 980.427548,115.347503 980.427548,113.625008 L980.427548,111.385 L981.839283,112.817495 C981.959996,112.938743 982.117678,112.999991 982.275361,112.999991 C982.433043,112.999991 982.590726,112.938743 982.710217,112.817495 C982.950422,112.573756 982.950422,112.177491 982.710217,111.933752 L980.246443,109.433748 C980.19223,109.378739 980.12943,109.341261 980.064117,109.311261 C980.057969,109.308743 980.055491,109.299995 980.048126,109.297517 C980.046869,109.296239 980.044426,109.297517 980.043204,109.297517 C979.945878,109.257491 979.841155,109.253734 979.737685,109.266239 C979.708118,109.269991 979.681029,109.274987 979.652683,109.282495 C979.552914,109.309982 979.458034,109.352491 979.37921,109.431269 C979.377988,109.432508 979.376732,109.432508 979.376732,109.432508 L979.37551,109.433748 C979.37551,109.433748 979.37551,109.433748 979.37551,109.433748 C979.37551,109.433748 979.37551,109.433748 979.37551,109.433748 L976.912958,111.932513 C976.672752,112.176252 976.672752,112.572517 976.912958,112.816256 C977.153198,113.059991 977.543685,113.059991 977.783925,112.816256 L979.195661,111.383756 L979.195661,113.625008 C979.195661,116.037487 981.1297,118 983.507248,118 C983.847256,118 984.123174,117.719991 984.123174,117.375015 C984.123174,117.030007 983.847256,116.749998 983.507248,116.749998 Z M1001.4829,112.7175 L998.530061,111.968752 L998.328047,111.150008 C999.106613,110.331269 999.647378,109.242504 999.837108,108.118748 C1000.30893,107.931261 1000.66371,107.492487 1000.72898,106.956235 L1000.92978,105.326261 C1000.98029,104.920008 1000.8571,104.511239 1000.59225,104.202504 C1000.47276,104.062513 1000.32862,103.950013 1000.16972,103.867517 L1000.23255,102.564982 L1000.4789,102.313735 C1000.89284,101.867491 1001.45086,100.908761 1000.54543,99.5049955 C999.901165,98.506239 998.817117,97.9999868 997.322821,97.9999868 C996.752452,97.9999868 995.447882,97.9999868 994.209852,98.8212433 C990.637382,98.9174868 990.174217,100.722513 990.174217,102.295 C990.174217,102.636252 990.245639,103.336261 990.30233,103.841235 C990.124926,103.923765 989.964765,104.043743 989.832987,104.194991 C989.564435,104.505004 989.438765,104.916252 989.489278,105.326261 L989.690074,106.956235 C989.760308,107.528761 990.159417,107.989987 990.680495,108.153743 C990.870226,109.227487 991.381461,110.275017 992.110735,111.074987 L991.890217,111.968752 L988.937408,112.7175 C986.828409,113.252508 985.355061,115.16749 985.355061,117.375015 C985.355061,117.541251 985.419117,117.701252 985.534943,117.817507 C985.650735,117.93376 985.807161,118 985.971022,118 L1004.44929,117.998759 C1004.78926,117.998759 1005.06522,117.71875 1005.06522,117.373742 C1005.06522,115.166249 1003.5919,113.252508 1001.4829,112.7175 Z M986.641161,116.748757 C986.878922,115.39001 987.879191,114.273759 989.235491,113.92999 L992.546813,113.089995 C992.767326,113.033743 992.941,112.858761 992.995208,112.635 L993.38943,111.036269 C993.444865,110.816265 993.375852,110.583756 993.213252,110.428747 C992.439643,109.692504 991.927182,108.612491 991.843404,107.541261 C991.817539,107.216265 991.550208,106.966261 991.2287,106.966261 L991.098108,106.966261 C991.003261,106.966261 990.923178,106.894991 990.912113,106.799991 L990.711322,105.170017 C990.702695,105.096265 990.73593,105.045013 990.756874,105.020004 C990.777822,104.996235 990.824635,104.956243 990.981091,104.956243 C991.158465,104.956243 991.326026,104.880017 991.443039,104.744987 C991.560087,104.611235 991.614265,104.432495 991.592095,104.253756 C991.540365,103.839995 991.407326,102.681239 991.407326,102.293761 C991.407326,101.315017 991.407326,100.096256 994.411869,100.066252 C994.537539,100.065013 994.661952,100.024987 994.7642,99.9499998 C995.726313,99.2512651 996.805443,99.2512651 997.322821,99.2512651 C998.389626,99.2512651 999.106613,99.558765 999.514343,100.191256 C1000.02436,100.981235 999.736082,101.292487 999.594426,101.445013 L999.192834,101.852508 C999.084408,101.962495 999.020352,102.109991 999.012987,102.264995 L998.915661,104.305013 C998.908261,104.475004 998.968617,104.64 999.083187,104.763761 C999.197756,104.887491 999.356661,104.958761 999.524221,104.96 C999.598121,104.96 999.643713,105.001265 999.664626,105.025 C999.689269,105.053761 999.717617,105.1025 999.708991,105.171256 L999.5082,106.802504 C999.495878,106.897504 999.415795,106.968739 999.282761,106.968739 C998.961217,106.968739 998.693921,107.218748 998.668056,107.543743 C998.5818,108.631265 998.032404,109.758743 997.232895,110.486239 C997.062891,110.641243 996.991434,110.878747 997.046869,111.103747 L997.425069,112.636243 C997.480504,112.858761 997.652987,113.034987 997.873469,113.089995 L1001.18479,113.92999 C1002.54109,114.273759 1003.54139,115.391249 1003.77912,116.749998 L986.641161,116.748757 Z" id="Fill-1"></path>
            </g>
        </g>
    </g>
</svg>