<?xml version="1.0" encoding="UTF-8"?>
<svg width="24px" height="16px" viewBox="0 0 24 16" version="1.1" xmlns="http://www.w3.org/2000/svg" xmlns:xlink="http://www.w3.org/1999/xlink">
    <!-- Generator: Sketch 63.1 (92452) - https://sketch.com -->
    <title>Combined Shape</title>
    <desc>Created with Sketch.</desc>
    <g id="Solutions" stroke="none" stroke-width="1" fill="none" fill-rule="evenodd">
        <g id="Solutions-—-Hover" transform="translate(-988.000000, -3466.000000)" fill="#3EC4FF">
            <g id="Group-3" transform="translate(119.000000, 3358.000000)">
                <g id="Group" transform="translate(1.000000, 92.000000)">
                    <path d="M880,24.5581241 C882.118584,24.5581241 884.015061,25.5389993 885.268968,27.0754077 L885.370114,27.2038522 C885.974367,26.9324867 886.632107,26.7906782 887.300588,26.7906782 C889.89154,26.7906782 892,28.894188 892,31.4790533 C892,31.7666146 891.766063,32 891.477827,32 C891.189617,32 890.955684,31.7666146 890.955684,31.4790533 C890.955684,29.4682774 889.316098,27.8325442 887.300588,27.8325442 C886.836917,27.8325442 886.380781,27.9195115 885.955057,28.087569 C886.513144,29.0886162 886.830776,30.241713 886.830776,31.4684234 C886.830776,31.7618527 886.595369,31.9999711 886.305317,31.9999711 C886.01529,31.9999711 885.779883,31.7618527 885.779883,31.4684234 C885.779883,30.3342447 885.459123,29.2745118 884.904544,28.3771779 C884.818985,28.3365723 884.744404,28.2705949 884.69085,28.1836394 C884.647777,28.1127316 884.623726,28.0356708 884.617196,27.9583052 C883.564092,26.5397304 881.886194,25.6212477 880,25.6212477 C878.113365,25.6212477 876.435123,26.5401602 875.379582,27.9588522 C875.375631,28.0359703 875.35142,28.1123111 875.30843,28.182605 C875.255443,28.2692277 875.181199,28.3350326 875.096522,28.3774223 C874.541118,29.2737156 874.220117,30.3338187 874.220117,31.4684234 C874.220117,31.7618527 873.984706,31.9999711 873.694654,31.9999711 C873.404631,31.9999711 873.169224,31.7618527 873.169224,31.4684234 C873.169224,30.241713 873.486853,29.0886162 874.043276,28.0888839 C873.619834,27.9195854 873.163482,27.8325442 872.699611,27.8325442 C870.684016,27.8325442 869.044361,29.4682774 869.044361,31.4790533 C869.044361,31.7666146 868.810417,32 868.522166,32 C868.233945,32 868,31.7666146 868,31.4790533 C868,28.894188 870.108551,26.7906782 872.699611,26.7906782 C873.368121,26.7906782 874.02589,26.9324867 874.629668,27.2033655 L874.731022,27.0754077 C875.984925,25.5389993 877.8814,24.5581241 880,24.5581241 Z M887.384592,20.0930159 C888.91099,20.0930159 890.153848,21.3454787 890.153848,22.8837085 C890.153848,24.4219383 888.91099,25.6744309 887.384592,25.6744309 C885.858193,25.6744309 884.615364,24.4219383 884.615364,22.8837085 C884.615364,21.3454787 885.858193,20.0930159 887.384592,20.0930159 Z M872.615379,20.0930159 C874.142907,20.0930159 875.384636,21.3454787 875.384636,22.8837085 C875.384636,24.4219383 874.141777,25.6744309 872.615379,25.6744309 C871.08898,25.6744309 869.846152,24.4219383 869.846152,22.8837085 C869.846152,21.3454787 871.087881,20.0930159 872.615379,20.0930159 Z M887.384592,21.2093004 C886.468527,21.2093004 885.723062,21.9605436 885.723062,22.8837085 C885.723062,23.8068733 886.468527,24.5581501 887.384592,24.5581501 C888.300656,24.5581501 889.046154,23.8068733 889.046154,22.8837085 C889.046154,21.9605436 888.300656,21.2093004 887.384592,21.2093004 Z M872.615379,21.2093004 C871.699315,21.2093004 870.953849,21.9605436 870.953849,22.8837085 C870.953849,23.8068733 871.699315,24.5581501 872.615379,24.5581501 C873.531443,24.5581501 874.276941,23.8068733 874.276941,22.8837085 C874.276941,21.9605436 873.531443,21.2093004 872.615379,21.2093004 Z M879.81537,16 C881.851428,16 883.507673,17.6691133 883.507673,19.7209235 C883.507673,21.7727635 881.851428,23.441847 879.81537,23.441847 C877.779342,23.441847 876.123067,21.7727635 876.123067,19.7209235 C876.123067,17.6691133 877.779342,16 879.81537,16 Z M879.81537,17.0631237 C878.361659,17.0631237 877.178013,18.2559438 877.178013,19.7209235 C877.178013,21.1859032 878.361659,22.3787494 879.81537,22.3787494 C881.269082,22.3787494 882.452753,21.1859032 882.452753,19.7209235 C882.452753,18.2559438 881.269082,17.0631237 879.81537,17.0631237 Z" id="Combined-Shape"></path>
                </g>
            </g>
        </g>
    </g>
</svg>