<?xml version="1.0" encoding="UTF-8"?>
<svg width="25px" height="30px" viewBox="0 0 25 30" version="1.1" xmlns="http://www.w3.org/2000/svg" xmlns:xlink="http://www.w3.org/1999/xlink">
    <!-- Generator: Sketch 63.1 (92452) - https://sketch.com -->
    <title>Combined Shape</title>
    <desc>Created with Sketch.</desc>
    <g id="Solutions" stroke="none" stroke-width="1" fill="none" fill-rule="evenodd">
        <g id="Solutions-—-Hover" transform="translate(-977.000000, -1783.000000)" fill="#3EC4FF">
            <g id="Group-2" transform="translate(-1.000000, 1491.000000)">
                <path d="M998.159944,292 C998.510026,292 998.794153,292.282362 998.794153,292.630238 L998.794,295.529 L1001.70314,295.529412 C1002.04561,295.529412 1002.32356,295.811774 1002.32356,296.15965 L1002.32356,321.369765 C1002.32356,321.717671 1002.04561,322 1001.70314,322 L983.090979,322 C982.74854,322 982.470588,321.717671 982.470588,321.369765 L982.47,318.47 L979.134176,318.470588 C978.784128,318.470588 978.5,318.18826 978.5,317.840353 L978.5,300.193282 C978.5,300.160597 978.502494,300.128482 978.507301,300.097126 L978.5,300.193282 C978.5,300.151723 978.504131,300.110627 978.512142,300.070514 C978.529225,299.983818 978.563802,299.904191 978.611988,299.834707 C978.618734,299.825301 978.62589,299.81553 978.633331,299.805953 C978.647222,299.787948 978.66203,299.77095 978.677696,299.754786 C978.680168,299.752146 978.682661,299.7496 978.685178,299.747072 L986.129706,292.34799 C986.233295,292.141691 986.44684,292 986.693291,292 L986.72026,292.00046 C986.728318,292.000154 986.736398,292 986.744494,292 L998.159944,292 Z M998.794153,317.840353 C998.794153,318.18826 998.510026,318.470588 998.159944,318.470588 L983.711,318.47 L983.711401,320.739493 L1001.08275,320.739493 L1001.08275,296.789919 L998.794,296.789 L998.794153,317.840353 Z M997.525766,293.260507 L987.323,293.26 L987.323529,300.193291 C987.323529,300.541203 987.041203,300.823529 986.693291,300.823529 L979.768,300.823 L979.768387,317.210081 L982.595156,317.209524 C982.708406,317.056801 982.888409,316.958006 983.090979,316.958006 C983.293569,316.958006 983.473579,317.056801 983.586832,317.209524 L997.525766,317.210081 L997.524671,296.586825 C997.422657,296.474491 997.360312,296.324421 997.360312,296.15965 C997.360312,295.994893 997.422657,295.844832 997.524671,295.732501 L997.525766,293.260507 Z M986.063,294.198 L980.665,299.563 L986.063053,299.563053 L986.063,294.198 Z" id="Combined-Shape"></path>
            </g>
        </g>
    </g>
</svg>