<?xml version="1.0" encoding="UTF-8"?>
<svg width="31px" height="30px" viewBox="0 0 31 30" version="1.1" xmlns="http://www.w3.org/2000/svg" xmlns:xlink="http://www.w3.org/1999/xlink">
    <!-- Generator: Sketch 63.1 (92452) - https://sketch.com -->
    <title>Combined Shape</title>
    <desc>Created with Sketch.</desc>
    <g id="Solutions" stroke="none" stroke-width="1" fill="none" fill-rule="evenodd">
        <g id="Solutions-—-Hover" transform="translate(-569.000000, -1783.000000)" fill="#3EC4FF">
            <g id="Group-2" transform="translate(-1.000000, 1491.000000)">
                <path d="M585.5,292 C593.77119,292 600.5,298.72881 600.5,307 C600.5,315.27119 593.77119,322 585.5,322 C577.22881,322 570.5,315.27119 570.5,307 C570.5,298.72881 577.22881,292 585.5,292 Z M585.5,293.303785 C577.948514,293.303785 571.803784,299.448514 571.803784,307 C571.803784,314.551486 577.948514,320.696217 585.5,320.696217 C593.051486,320.696217 599.196215,314.551486 599.196215,307 C599.196215,299.448514 593.051486,293.303785 585.5,293.303785 Z M587.507152,299.920654 L593.948167,306.539296 C594.199103,306.797187 594.199103,307.216368 593.948167,307.474263 L587.521302,314.079673 C587.395157,314.207946 587.230434,314.272737 587.065707,314.272737 C586.90098,314.272737 586.736253,314.207946 586.610149,314.079673 C586.359213,313.821778 586.359213,313.402597 586.610149,313.144706 L592.582732,307.00745 L586.597276,300.855626 C586.346335,300.597731 586.346335,300.178549 586.597276,299.920654 C586.848248,299.6628 587.25618,299.6628 587.507152,299.920654 Z M579.779934,299.920745 L586.221217,306.542387 C586.342185,306.666741 586.409108,306.834773 586.409108,307.010755 C586.409108,307.185386 586.340872,307.354731 586.221217,307.47909 L579.786352,314.079546 C579.660239,314.207878 579.495507,314.2727 579.330776,314.2727 C579.16604,314.2727 579.001308,314.207878 578.875163,314.078237 C578.624213,313.82026 578.624213,313.400856 578.875163,313.142879 L584.854446,307.009405 L578.870017,300.856135 C578.619072,300.598126 578.619072,300.178754 578.870017,299.920745 C579.121003,299.662768 579.528948,299.662768 579.779934,299.920745 Z" id="Combined-Shape"></path>
            </g>
        </g>
    </g>
</svg>