<?xml version="1.0" encoding="UTF-8"?>
<svg width="31px" height="30px" viewBox="0 0 31 30" version="1.1" xmlns="http://www.w3.org/2000/svg" xmlns:xlink="http://www.w3.org/1999/xlink">
    <!-- Generator: Sketch 63.1 (92452) - https://sketch.com -->
    <title>Combined Shape</title>
    <desc>Created with Sketch.</desc>
    <g id="Solutions" stroke="none" stroke-width="1" fill="none" fill-rule="evenodd">
        <g id="Solutions-—-Hover" transform="translate(-570.000000, -1681.000000)" fill="#3EC4FF">
            <g id="Group-2" transform="translate(-1.000000, 1491.000000)">
                <path d="M582.251,206.521739 C583.995174,206.521739 585.413043,207.896517 585.413043,209.58497 L585.413043,209.58497 L585.413043,216.936768 C585.413043,218.625223 583.995174,220 582.251,220 L582.251,220 L574.662046,220 C572.91787,220 571.5,218.625223 571.5,216.936768 L571.5,216.936768 L571.5,209.58497 C571.5,207.896517 572.91787,206.521739 574.662046,206.521739 L574.662046,206.521739 Z M598.43677,206.521739 C600.126439,206.521739 601.5,207.896517 601.5,209.58497 L601.5,209.58497 L601.5,216.936768 C601.5,218.625223 600.126439,220 598.43677,220 L598.43677,220 L591.08497,220 C589.3953,220 588.021739,218.625223 588.021739,216.936768 L588.021739,216.936768 L588.021739,209.58497 C588.021739,207.896517 589.3953,206.521739 591.08497,206.521739 L591.08497,206.521739 Z M584.148217,212.648239 L572.764825,212.648239 L572.764825,216.936768 C572.764825,217.950091 573.616036,218.7747 574.662046,218.7747 L574.662046,218.7747 L582.251,218.7747 C583.297009,218.7747 584.148217,217.950091 584.148217,216.936768 L584.148217,216.936768 L584.148217,212.648239 Z M600.2747,212.648239 L589.247039,212.648239 L589.247039,216.936768 C589.247039,217.950091 590.071648,218.7747 591.08497,218.7747 L591.08497,218.7747 L598.43677,218.7747 C599.450091,218.7747 600.2747,217.950091 600.2747,216.936768 L600.2747,216.936768 L600.2747,212.648239 Z M582.251,207.747039 L574.662046,207.747039 C573.616036,207.747039 572.764825,208.571648 572.764825,209.58497 L572.764825,209.58497 L572.764825,211.422939 L584.148217,211.422939 L584.148217,209.58497 C584.148217,208.571648 583.297009,207.747039 582.251,207.747039 L582.251,207.747039 Z M598.43677,207.747039 L591.08497,207.747039 C590.071648,207.747039 589.247039,208.571648 589.247039,209.58497 L589.247039,209.58497 L589.247039,211.422939 L600.2747,211.422939 L600.2747,209.58497 C600.2747,208.571648 599.450091,207.747039 598.43677,207.747039 L598.43677,207.747039 Z M574.76087,208.695652 C575.121068,208.695652 575.41308,208.987665 575.41308,209.347826 C575.41308,209.708026 575.121068,210.000035 574.76087,210.000035 C574.400707,210.000035 574.108696,209.708026 574.108696,209.347826 C574.108696,208.987665 574.400707,208.695652 574.76087,208.695652 Z M590.847826,208.695652 C591.208026,208.695652 591.500035,208.987665 591.500035,209.347826 C591.500035,209.708026 591.208026,210.000035 590.847826,210.000035 C590.487665,210.000035 590.195652,209.708026 590.195652,209.347826 C590.195652,208.987665 590.487665,208.695652 590.847826,208.695652 Z M582.251,190 C583.995174,190 585.413043,191.419126 585.413043,193.162048 L585.413043,193.162048 L585.413043,200.751 C585.413043,202.493917 583.995174,203.913043 582.251,203.913043 L582.251,203.913043 L574.662046,203.913043 C572.91787,203.913043 571.5,202.493917 571.5,200.751 L571.5,200.751 L571.5,193.162048 C571.5,191.419126 572.91787,190 574.662046,190 L574.662046,190 Z M598.43677,190 C600.126439,190 601.5,191.419126 601.5,193.162048 L601.5,193.162048 L601.5,200.751 C601.5,202.493917 600.126439,203.913043 598.43677,203.913043 L598.43677,203.913043 L591.08497,203.913043 C589.3953,203.913043 588.021739,202.493917 588.021739,200.751 L588.021739,200.751 L588.021739,193.162048 C588.021739,191.419126 589.3953,190 591.08497,190 L591.08497,190 Z M584.148217,196.324126 L572.764825,196.324126 L572.764825,200.751 C572.764825,201.797009 573.616036,202.648217 574.662046,202.648217 L574.662046,202.648217 L582.251,202.648217 C583.297009,202.648217 584.148217,201.797009 584.148217,200.751 L584.148217,200.751 L584.148217,196.324126 Z M600.2747,196.324126 L589.247039,196.324126 L589.247039,200.751 C589.247039,201.797009 590.071648,202.648217 591.08497,202.648217 L591.08497,202.648217 L598.43677,202.648217 C599.450091,202.648217 600.2747,201.797009 600.2747,200.751 L600.2747,200.751 L600.2747,196.324126 Z M582.251,191.264826 L574.662046,191.264826 C573.616036,191.264826 572.764825,192.116035 572.764825,193.162048 L572.764825,193.162048 L572.764825,195.0593 L584.148217,195.0593 L584.148217,193.162048 C584.148217,192.116035 583.297009,191.264826 582.251,191.264826 L582.251,191.264826 Z M598.43677,191.264826 L591.08497,191.264826 C590.071648,191.264826 589.247039,192.116035 589.247039,193.162048 L589.247039,193.162048 L589.247039,195.0593 L600.2747,195.0593 L600.2747,193.162048 C600.2747,192.116035 599.450091,191.264826 598.43677,191.264826 L598.43677,191.264826 Z M574.76087,192.608696 C575.121068,192.608696 575.41308,192.900709 575.41308,193.26087 C575.41308,193.62107 575.121068,193.913078 574.76087,193.913078 C574.400707,193.913078 574.108696,193.62107 574.108696,193.26087 C574.108696,192.900709 574.400707,192.608696 574.76087,192.608696 Z M590.847826,192.608696 C591.208026,192.608696 591.500035,192.900709 591.500035,193.26087 C591.500035,193.62107 591.208026,193.913078 590.847826,193.913078 C590.487665,193.913078 590.195652,193.62107 590.195652,193.26087 C590.195652,192.900709 590.487665,192.608696 590.847826,192.608696 Z" id="Combined-Shape"></path>
            </g>
        </g>
    </g>
</svg>