<?xml version="1.0" encoding="UTF-8"?>
<svg width="30px" height="30px" viewBox="0 0 30 30" version="1.1" xmlns="http://www.w3.org/2000/svg" xmlns:xlink="http://www.w3.org/1999/xlink">
    <!-- Generator: Sketch 63.1 (92452) - https://sketch.com -->
    <title>Combined Shape Copy</title>
    <desc>Created with Sketch.</desc>
    <g id="Solutions" stroke="none" stroke-width="1" fill="none" fill-rule="evenodd">
        <g id="Solutions-—-Hover" transform="translate(-570.000000, -1885.000000)" fill="#3EC4FF">
            <g id="Group-2" transform="translate(-1.000000, 1491.000000)">
                <path d="M584.047022,399.036778 L600.433069,415.382175 C600.613307,415.562003 600.667492,415.832324 600.569194,416.067445 C600.47086,416.302565 600.241475,416.455953 599.986842,416.455953 L590.810664,416.455953 L584.064665,423.796304 C583.944903,423.928313 583.774742,424 583.60079,424 C583.523924,424 583.447023,423.986142 583.371405,423.957244 C583.130664,423.862931 582.970575,423.630341 582.970575,423.371311 L582.97,415.176 L581.037201,415.176481 C580.686223,415.176481 580.401369,414.897437 580.401369,414.553624 C580.401369,414.209812 580.686223,413.930803 581.037201,413.930803 L582.97,413.93 L582.970575,399.481902 C582.970575,399.227895 583.124342,398.9978 583.360049,398.900993 C583.594503,398.802937 583.866749,398.858238 584.047022,399.036778 Z M584.231041,400.999482 L584.231041,421.754395 L590.069506,415.402306 C590.189272,415.272794 590.355649,415.19861 590.533381,415.19861 L598.465486,415.19861 L584.231041,400.999482 Z M578.49394,413.930803 C578.844918,413.930803 579.129772,414.209812 579.129772,414.553624 C579.129772,414.897437 578.844918,415.176481 578.49394,415.176481 L575.950684,415.176481 C575.599706,415.176481 575.314887,414.897437 575.314887,414.553624 C575.314887,414.209812 575.599706,413.930803 575.950684,413.930803 L578.49394,413.930803 Z M572.135797,412.685125 C572.486775,412.685125 572.771629,412.964134 572.771629,413.307947 L572.771629,413.930803 L573.407426,413.930803 C573.758404,413.930803 574.043258,414.209812 574.043258,414.553624 C574.043258,414.897437 573.758404,415.176481 573.407426,415.176481 L572.135797,415.176481 C571.784854,415.176481 571.5,414.897437 571.5,414.553624 L571.5,413.307947 C571.5,412.964134 571.784854,412.685125 572.135797,412.685125 Z M572.135797,407.702418 C572.486775,407.702418 572.771629,407.981457 572.771629,408.325274 L572.771629,410.816595 C572.771629,411.160408 572.486775,411.439447 572.135797,411.439447 C571.784854,411.439447 571.5,411.160408 571.5,410.816595 L571.5,408.325274 C571.5,407.981457 571.784854,407.702418 572.135797,407.702418 Z M592.481825,402.719706 C592.832803,402.719706 593.117657,402.99875 593.117657,403.342563 L593.117657,405.833919 C593.117657,406.1777 592.832803,406.45674 592.481825,406.45674 C592.130848,406.45674 591.846029,406.1777 591.846029,405.833919 L591.846029,403.342563 C591.846029,402.99875 592.130848,402.719706 592.481825,402.719706 Z M572.135797,402.719706 C572.486775,402.719706 572.771629,402.99875 572.771629,403.342563 L572.771629,405.833919 C572.771629,406.1777 572.486775,406.45674 572.135797,406.45674 C571.784854,406.45674 571.5,406.1777 571.5,405.833919 L571.5,403.342563 C571.5,402.99875 571.784854,402.719706 572.135797,402.719706 Z M592.481825,397.737034 C592.832803,397.737034 593.117657,398.016038 593.117657,398.359855 L593.117657,400.851207 C593.117657,401.195024 592.832803,401.474063 592.481825,401.474063 C592.130848,401.474063 591.846029,401.195024 591.846029,400.851207 L591.846029,398.359855 C591.846029,398.016038 592.130848,397.737034 592.481825,397.737034 Z M572.135797,397.737034 C572.486775,397.737034 572.771629,398.016038 572.771629,398.359855 L572.771629,400.851207 C572.771629,401.195024 572.486775,401.474063 572.135797,401.474063 C571.784854,401.474063 571.5,401.195024 571.5,400.851207 L571.5,398.359855 C571.5,398.016038 571.784854,397.737034 572.135797,397.737034 Z M592.481825,394 C592.832803,394 593.117657,394.279039 593.117657,394.622821 L593.117657,395.868499 C593.117657,396.212312 592.832803,396.491356 592.481825,396.491356 C592.130848,396.491356 591.846029,396.212312 591.846029,395.868499 L591.846029,395.245678 L591.210198,395.245678 C590.85922,395.245678 590.574397,394.966639 590.574397,394.622821 C590.574397,394.279039 590.85922,394 591.210198,394 L592.481825,394 Z M573.407426,394 C573.758404,394 574.043258,394.279039 574.043258,394.622821 C574.043258,394.966639 573.758404,395.245678 573.407426,395.245678 L572.771629,395.245678 L572.771629,395.868499 C572.771629,396.212312 572.486775,396.491356 572.135797,396.491356 C571.784854,396.491356 571.5,396.212312 571.5,395.868499 L571.5,394.622821 C571.5,394.279039 571.784854,394 572.135797,394 L573.407426,394 Z M588.666937,394 C589.017915,394 589.302769,394.279039 589.302769,394.622821 C589.302769,394.966639 589.017915,395.245678 588.666937,395.245678 L586.123717,395.245678 C585.772739,395.245678 585.487885,394.966639 585.487885,394.622821 C585.487885,394.279039 585.772739,394 586.123717,394 L588.666937,394 Z M583.580456,394 C583.931399,394 584.216253,394.279039 584.216253,394.622821 C584.216253,394.966639 583.931399,395.245678 583.580456,395.245678 L581.037201,395.245678 C580.686223,395.245678 580.401369,394.966639 580.401369,394.622821 C580.401369,394.279039 580.686223,394 581.037201,394 L583.580456,394 Z M578.49394,394 C578.844918,394 579.129772,394.279039 579.129772,394.622821 C579.129772,394.966639 578.844918,395.245678 578.49394,395.245678 L575.950684,395.245678 C575.599706,395.245678 575.314887,394.966639 575.314887,394.622821 C575.314887,394.279039 575.599706,394 575.950684,394 L578.49394,394 Z" id="Combined-Shape-Copy"></path>
            </g>
        </g>
    </g>
</svg>