<?xml version="1.0" encoding="UTF-8"?>
<svg width="24px" height="28px" viewBox="0 0 24 28" version="1.1" xmlns="http://www.w3.org/2000/svg" xmlns:xlink="http://www.w3.org/1999/xlink">
    <!-- Generator: Sketch 63.1 (92452) - https://sketch.com -->
    <title>Combined Shape</title>
    <desc>Created with Sketch.</desc>
    <g id="Solutions" stroke="none" stroke-width="1" fill="none" fill-rule="evenodd">
        <g id="Solutions-—-Hover" transform="translate(-423.000000, -3460.000000)" fill="#3EC4FF">
            <g id="Group-3" transform="translate(119.000000, 3358.000000)">
                <g id="Group" transform="translate(1.000000, 92.000000)">
                    <path d="M313.857156,10 C321.48458,10 324.71428,16.169748 324.71428,18.625004 C324.71428,20.041808 324.57486,20.988264 324.497164,21.402264 C325.330288,22.852404 327,25.859636 327,26.674992 C327,27.517948 326.102852,27.987152 325.446876,28.215988 L325.828576,29.3683 C325.897136,29.5753 325.84344,29.802996 325.690288,29.957104 L325.118876,30.532092 C325.081872,30.5693268 325.041025,30.6003796 324.997612,30.6252503 C324.997831,30.6338821 324.996839,30.6446125 324.995556,30.655376 C324.957472,30.97488 324.670748,31.199136 324.36946,31.159624 C324.440012,31.266532 324.461308,31.3095 324.575536,31.48496 C324.743556,31.746384 325.000032,32.141424 325.000032,32.907132 C325.000032,34.6685664 323.109456,34.989226 321.730752,35.2227648 C319.890576,35.535324 317.902564,36.64958 317.704328,37.064372 C317.704328,37.3850636 317.462388,37.6000321 317.152148,37.6000321 C316.843052,37.6000321 316.6,37.2944529 316.6,36.9737616 C316.6,35.6166492 320.069768,34.3281196 321.549304,34.0771632 C323.713144,33.7088292 323.880024,33.360248 323.880024,32.907132 C323.880024,32.495796 323.781476,32.343584 323.644816,32.13214 C323.50818,31.919508 323.320036,31.62904 323.320036,31.164268 C323.320036,30.692548 323.512656,30.416008 323.67284,30.26844 C323.830028,30.1243315 324.004518,30.0557565 324.154396,30.0244312 C324.172324,29.9124454 324.225082,29.8053534 324.310852,29.719048 L324.63202,29.395904 L324.172564,28.007844 C324.121168,27.852596 324.139432,27.682388 324.219424,27.539816 C324.300584,27.398348 324.437736,27.297164 324.597724,27.263792 C325.214868,27.132692 325.806876,26.825644 325.85944,26.66694 C325.817144,26.215008 324.549728,23.778164 323.400004,21.790944 C323.326876,21.662152 323.304012,21.508044 323.33944,21.363156 C323.340572,21.351652 323.571452,20.384504 323.571452,18.625004 C323.571452,17.042588 321.141712,11.150004 313.857156,11.150004 C306.517706,11.150004 304.14286,16.960956 304.14286,19.775008 C304.14286,22.338356 305.742846,25.13054 307.02856,27.3742 C307.971436,29.017556 308.7143,30.3159 308.7143,31.275004 C308.7143,33.44964 305.500568,37.0157936 305.133702,37.4148666 C305.021712,37.5378882 304.86856,37.6000004 304.714274,37.6000004 C304.575988,37.6000004 304.436566,37.5493921 304.326844,37.4470634 C304.094864,37.2320142 304.08,36.8685928 304.294847,36.6351636 C305.205727,35.64041 307.57144,32.73896 307.57144,31.275004 C307.57144,30.624088 306.827443,29.324604 306.038851,27.948044 C304.68571,25.5871 303,22.645404 303,19.775008 C303,15.716644 306.367988,10 313.857156,10 Z M310.200016,16.4 C310.862408,16.4 311.400032,16.847992 311.400032,17.400012 C311.400032,17.952008 310.862408,18.400028 310.200016,18.400028 C310.152725,18.400028 310.10607,18.3977446 310.060201,18.3933029 L309.700008,18.772788 L309.700008,20.605468 L312.839404,23.903396 C312.941708,24.010864 313.000032,24.157628 313.000032,24.3113 L313.000032,37.0222444 C313.000032,37.3411814 312.75362,37.6000318 312.450012,37.6000318 C312.146404,37.6000318 311.900024,37.3411814 311.900024,37.0222444 L311.900024,24.550504 L308.760596,21.253756 C308.658292,21.145108 308.6,20.998376 308.6,20.844672 L308.6,18.533584 C308.6,18.379912 308.658292,18.233148 308.760596,18.124532 L309.089034,17.7785008 C309.031643,17.6617333 309,17.5339327 309,17.400012 C309,16.847992 309.537592,16.4 310.200016,16.4 Z M311.299796,13.6 C311.450544,13.6 311.594448,13.66056 311.700972,13.766852 L312.834264,14.909712 C313.055276,15.13256 313.055276,15.494856 312.834264,15.717704 C312.613284,15.94058 312.25402,15.94058 312.033036,15.717704 L311.0652,14.74286 L309.267812,14.74286 L307.333292,16.693712 L307.333292,21.934856 L310.56768,25.196588 C310.67308,25.302876 310.733168,25.448 310.733168,25.600016 L310.733168,37.0285868 C310.733168,37.344022 310.4793,37.6 310.166504,37.6 C309.853708,37.6 309.599876,37.344022 309.599876,37.0285868 L309.599876,25.836564 L306.365454,22.574864 C306.260054,22.468576 306.2,22.323424 306.2,22.171436 L306.2,16.457136 C306.2,16.305148 306.260054,16.159996 306.365454,16.052572 L308.632036,13.766852 C308.738564,13.66056 308.8825,13.6 309.033212,13.6 L311.299796,13.6 Z M316.423336,26.167128 C316.657332,26.39 316.657332,26.752256 316.423336,26.975124 L315.399868,27.951068 L315.399868,32.049216 L315.791404,32.4218192 C315.858694,32.4075225 315.92848,32.4 316.000012,32.4 C316.552008,32.4 317.000028,32.847992 317.000028,33.400012 C317.000028,33.9520068 316.552008,34.4000276 316.000012,34.4000276 C315.447992,34.4000276 315,33.9520068 315,33.400012 L315.006,33.291 L314.375176,32.690332 C314.263584,32.582912 314.2,32.437796 314.2,32.285784 L314.2,27.7145 C314.2,27.562516 314.263584,27.417372 314.375176,27.309952 L315.575044,26.167128 C315.809004,25.944292 316.189376,25.944292 316.423336,26.167128 Z M320.8537,28.56086 C321.048792,28.775364 321.048792,29.124028 320.8537,29.338536 L320.000384,30.27786 L320.000384,32.250044 C320.000384,32.553636 319.776292,32.800032 319.50018,32.800032 C319.224092,32.800032 319,32.553636 319,32.250044 L319,30.050168 C319,29.903888 319.053012,29.764188 319.146052,29.660796 L320.146436,28.56086 C320.341504,28.34638 320.658636,28.34638 320.8537,28.56086 Z M322.036184,23.767128 C322.254604,23.99 322.254604,24.352256 322.036184,24.575124 L317.720172,28.979532 L317.720172,31.028604 C317.720172,31.344032 317.469248,31.600001 317.160072,31.600001 C316.850928,31.600001 316.6,31.344032 316.6,31.028604 L316.6,28.742964 C316.6,28.59098 316.65936,28.445832 316.76354,28.338412 L321.244232,23.767128 C321.462652,23.544292 321.81776,23.544292 322.036184,23.767128 Z M319.636224,22.575472 C319.854624,22.809468 319.854624,23.189804 319.636224,23.4238 L318.51636,24.623636 C318.411064,24.736452 318.26886,24.800032 318.119896,24.800032 L315.880104,24.800032 C315.731172,24.800032 315.588936,24.736452 315.483672,24.62486 L314.363776,23.424992 C314.145408,23.190996 314.145408,22.810656 314.363776,22.576696 C314.582176,22.3427 314.937164,22.3427 315.155564,22.576696 L316.111928,23.600164 L317.888072,23.600164 L318.844468,22.575472 C319.062868,22.341508 319.417856,22.341508 319.636224,22.575472 Z M311.948044,19.37556 L312.896884,20.399572 L320.444472,20.399572 C320.75114,20.399572 320.999999,20.668448 320.999999,20.999784 C320.999999,21.33112 320.75114,21.600032 320.444472,21.600032 L312.666888,21.600032 C312.519124,21.600032 312.378008,21.536384 312.273572,21.42474 L311.162488,20.224308 C310.945836,19.990196 310.945836,19.609672 311.162488,19.37556 C311.379168,19.14148 311.731364,19.14148 311.948044,19.37556 Z M320.836216,16.975472 C321.054624,17.209468 321.054624,17.589804 320.836216,17.8238 L319.716264,19.023636 C319.610996,19.136452 319.468784,19.200032 319.319812,19.200032 L315.95996,19.200032 C315.650876,19.200032 315.4,18.931252 315.4,18.600084 C315.4,18.268944 315.650876,18.000164 315.95996,18.000164 L319.087976,18.000164 L320.04442,16.975472 C320.2628,16.741508 320.617836,16.741508 320.836216,16.975472 Z M318.200016,14 C318.862408,14 319.400032,14.537592 319.400032,15.200016 C319.400032,15.862408 318.862408,16.400032 318.200016,16.400032 C318.092372,16.400032 317.988025,16.3858354 317.888744,16.3592137 L317.624672,16.623716 C317.511852,16.736536 317.359492,16.80012 317.199888,16.80012 L315.048496,16.80012 L314.023816,17.824852 C313.907396,17.941244 313.753844,18.000032 313.600256,18.000032 C313.446672,18.000032 313.293088,17.941244 313.175476,17.824852 C312.941508,17.590848 312.941508,17.210496 313.175476,16.976492 L314.375364,15.77658 C314.488148,15.663796 314.64054,15.600208 314.800112,15.600208 L316.951504,15.600208 L317.040816,15.5112766 C317.014196,15.4119987 317,15.3076547 317,15.200016 C317,14.537592 317.537592,14 318.200016,14 Z" id="Combined-Shape"></path>
                </g>
            </g>
        </g>
    </g>
</svg>